<?xml version="1.0" encoding="UTF-8"?>
<svg id="Livello_2" xmlns="http://www.w3.org/2000/svg" version="1.1" viewBox="0 0 120 63.9">
  <!-- Generator: Adobe Illustrator 30.3.0, SVG Export Plug-In . SVG Version: 2.1.3 Build 182)  -->
  <defs>
    <style>
      .st0 {
        fill: #515151;
        fill-rule: evenodd;
      }
    </style>
  </defs>
  <g id="Page-1">
    <path id="Fill-1" class="st0" d="M101.7,0l18.2,43.3h-11.3l-2.9-7.4h-18.2l-2.8,7.4h-11.4l4.2-10c-3.9,6.1-10.9,9.8-19.5,9.9h-.4s-17.3,0-17.3,0v-17.9c-1.7,10.6-10.6,17.7-22.5,17.9h-.4s-17.3,0-17.3,0V.2h17.3c12.1,0,21.2,7.1,22.9,17.7V.2S57.6.2,57.6.2c13.5,0,23.2,8.8,23.2,21.4s-.2,3.7-.6,5.4L91.5,0h10.2ZM57.6,9.8h-6.6v23.8h6.6c7,0,12.3-5.2,12.3-12s-5.4-11.8-12.3-11.8h0ZM17.3,9.8h-6.6v23.8h6.6c7,0,12.3-5.2,12.3-12s-5.4-11.8-12.3-11.8h0ZM96.6,12.5l-5.6,14.3h11.1l-5.6-14.3ZM115,0c.7,0,1.3.1,1.9.4.6.3,1.1.6,1.6,1,.4.4.8,1,1.1,1.6.3.6.4,1.2.4,1.9s-.1,1.4-.4,2-.6,1.1-1.1,1.6c-.4.4-1,.8-1.6,1-.6.2-1.2.4-1.9.4s-1.3-.1-1.9-.4c-.6-.2-1.1-.6-1.6-1-.5-.4-.8-1-1.1-1.6-.3-.6-.4-1.3-.4-2s.1-1.3.4-1.9c.3-.6.6-1.1,1.1-1.6.5-.4,1-.8,1.6-1,.6-.3,1.2-.4,1.9-.4h0ZM115,.7c-.6,0-1.1.1-1.6.3-.5.2-.9.5-1.3.9-.4.4-.7.8-.9,1.3-.2.5-.3,1.1-.3,1.6s.1,1.2.3,1.7c.2.5.5,1,.9,1.3.4.4.8.7,1.3.9.5.2,1,.3,1.6.3s1.1-.1,1.6-.3c.5-.2.9-.5,1.3-.9.4-.4.7-.8.9-1.3.2-.5.3-1.1.3-1.7s-.1-1.1-.3-1.6c-.2-.5-.5-1-.9-1.3-.4-.4-.8-.7-1.3-.9-.5-.2-1-.3-1.6-.3h0ZM115.3,2c.7,0,1.2.1,1.5.4.3.3.5.7.5,1.2s-.1.9-.4,1.1c-.3.2-.6.4-1,.4h0s1.6,2.5,1.6,2.5h-1l-1.6-2.5h-.9v2.5h-.9V2h2.2ZM115.1,2.8h-1.2v1.8h.9c.2,0,.4,0,.6,0,.2,0,.3,0,.5-.1.1,0,.3-.2.3-.3,0-.1.1-.3.1-.5s0-.3-.1-.5c0-.1-.2-.2-.3-.3s-.3-.1-.4-.1c-.2,0-.3,0-.5,0h0ZM3.6,60.9c2.8,0,4.8-1.8,4.8-4.5s-2-4.4-4.8-4.4H0v8.9h3.6ZM3.6,58.9h-1.4v-4.9h1.4c1.4,0,2.5,1.1,2.5,2.4s-1.1,2.5-2.5,2.5h0ZM10,53.6c.7,0,1.2-.5,1.2-1.2s-.6-1.2-1.2-1.2-1.2.5-1.2,1.2.5,1.2,1.2,1.2h0ZM9,60.9h2.1v-6.3h-2.1v6.3ZM14.6,61.1c1.6,0,3-.7,3-2.1s-.8-1.7-2-1.9l-1.2-.2c-.5,0-.7-.3-.7-.5s.2-.5.8-.5,1,.2,1.1.7h1.9c0-1.7-1.6-2.2-3-2.2s-2.8.8-2.8,2.1.8,1.7,1.9,1.9l1.3.2c.4,0,.6.2.6.4s-.3.4-.9.4-1.1-.2-1.2-.8h-1.9c.1,1.7,1.5,2.4,3.1,2.4h0ZM21.1,61.1c1.7,0,3.1-1.1,3.2-2.7h-2c-.1.6-.6,1-1.2,1s-1.4-.7-1.4-1.5.5-1.5,1.4-1.5,1.1.4,1.2,1h2c-.1-1.6-1.5-2.7-3.2-2.7s-3.5,1.4-3.5,3.3,1.5,3.3,3.5,3.3h0ZM27,60.9v-4c.4-.4.8-.6,1.2-.6.7,0,1.1.4,1.1,1.3v3.3h2.1v-3.6c0-1.8-1.1-2.9-2.7-2.9s-1.2.2-1.8.6v-3.4h-2.1v9.3h2.1ZM33.2,53.6c.7,0,1.2-.5,1.2-1.2s-.6-1.2-1.2-1.2-1.2.5-1.2,1.2.5,1.2,1.2,1.2h0ZM32.2,60.9h2.1v-6.3h-2.1v6.3ZM41.4,60.9c2.8,0,4.8-1.8,4.8-4.5s-2-4.4-4.8-4.4h-3.6v8.9h3.6ZM41.4,58.9h-1.4v-4.9h1.4c1.4,0,2.5,1.1,2.5,2.4s-1.1,2.5-2.5,2.5h0ZM49.5,61.1c.7,0,1.3-.2,1.7-.5v.4h2.1v-6.3h-2.1v.3c-.5-.3-1-.5-1.7-.5-1.7,0-3.1,1.4-3.1,3.3s1.4,3.3,3.1,3.3h0ZM49.9,59.3c-.9,0-1.5-.7-1.5-1.6s.6-1.6,1.5-1.6.9.1,1.3.6v2c-.4.5-.8.6-1.3.6h0ZM58.6,60.9l.6-1.5h3.8l.6,1.5h2.3l-3.8-8.9h-2.1l-3.8,8.9h2.4ZM62.2,57.5h-2.3l1.1-3,1.1,3ZM68.2,63.9v-3.3c.5.3,1,.5,1.7.5,1.7,0,3.1-1.4,3.1-3.3s-1.4-3.3-3.1-3.3-1.3.2-1.7.5v-.3h-2.1v9.3h2.1ZM69.5,59.3c-.5,0-.9-.1-1.3-.6v-2c.4-.5.8-.6,1.3-.6.9,0,1.5.7,1.5,1.6s-.6,1.6-1.5,1.6h0ZM75.7,63.9v-3.3c.5.3,1,.5,1.7.5,1.7,0,3.1-1.4,3.1-3.3s-1.4-3.3-3.1-3.3-1.3.2-1.7.5v-.3h-2.1v9.3h2.1ZM77,59.3c-.5,0-.9-.1-1.3-.6v-2c.4-.5.8-.6,1.3-.6.9,0,1.5.7,1.5,1.6s-.6,1.6-1.5,1.6h0ZM84.3,61.1c1.6,0,2.8-.8,3.1-2.1h-2.1c-.2.3-.5.5-1,.5-.8,0-1.3-.4-1.4-1h4.5,0c0-.3,0-.5,0-.8,0-1.9-1.4-3.2-3.2-3.2s-3.4,1.4-3.4,3.3,1.4,3.3,3.5,3.3h0ZM85.4,57.1h-2.6c.2-.6.6-1.1,1.3-1.1s1.1.4,1.3,1.1h0ZM89.9,60.9v-4c.4-.4.8-.6,1.2-.6.7,0,1.1.4,1.1,1.3v3.3h2.1v-3.6c0-1.8-1.1-2.9-2.7-2.9s-1.2.2-1.7.6v-.4h-2.1v6.3h2.1ZM97.9,61.1c.7,0,1.3-.2,1.7-.5v.3h2.1v-9.3h-2.1v3.3c-.5-.3-1-.5-1.7-.5-1.7,0-3.1,1.4-3.1,3.3s1.4,3.3,3.1,3.3h0ZM98.3,59.4c-.9,0-1.5-.7-1.5-1.6s.6-1.6,1.5-1.6.9.1,1.3.6v2c-.4.5-.8.6-1.3.6h0ZM105.6,61.1c1.6,0,2.8-.8,3.1-2.1h-2.1c-.2.3-.5.5-1,.5-.8,0-1.3-.4-1.4-1h4.5,0c0-.3,0-.5,0-.8,0-1.9-1.4-3.2-3.2-3.2s-3.4,1.4-3.4,3.3,1.4,3.3,3.5,3.3h0ZM106.8,57.1h-2.6c.2-.6.6-1.1,1.3-1.1s1.1.4,1.3,1.1h0ZM111.3,60.9v-3.6c.5-.5,1.1-.8,2.2-.8v-2c-.9,0-1.6.3-2.2.8v-.7h-2.1v6.3h2.1ZM116.9,61.1c1.6,0,2.8-.8,3.1-2.1h-2.1c-.2.3-.5.5-1,.5-.8,0-1.3-.4-1.4-1h4.5,0c0-.3,0-.5,0-.8,0-1.9-1.4-3.2-3.2-3.2s-3.4,1.4-3.4,3.3,1.4,3.3,3.5,3.3h0ZM118,57.1h-2.6c.2-.6.6-1.1,1.3-1.1s1.1.4,1.3,1.1h0Z"/>
  </g>
</svg>