<?xml version="1.0" encoding="UTF-8"?>
<svg id="Livello_2" data-name="Livello 2" xmlns="http://www.w3.org/2000/svg" viewBox="0 0 258 65.51">
  <defs>
    <style>
      .cls-1 {
        fill: #515151;
      }
    </style>
  </defs>
  <g id="Livello_1-2" data-name="Livello 1">
    <g>
      <path class="cls-1" d="M87.06,25h-.6c.71-2.01,2.65-8.8.6-9.89-1.06.07-2.1.13-3.16.2-.07.14-.13.26-.2.4,1.29,2.98-.98,12.74-1.98,16.23.37.72.44,1.01,1.19,1.39,3.21,1.19,2.89-2.36,3.75-4.16,2.27-4.71,5.14-9.6,9.5-12.27,3.97.41,2.71,2.14,5.54-1.58-.18-1.16-.47-1.26-.99-1.97-.79-.14-1.58-.27-2.37-.4-4.81,2.84-9.43,6.42-11.28,12.07M161.26,31.33c-4.87-1.35-3.8-8.75-1.37-11.87,1-1.31,2.64-1.73,4.15-2.58,2.89-.01,3.68.75,5.54,1.59,1.26,4.98-1.06,13.11-6.59,13.11-.54,0-1.11-.08-1.72-.25M164.63,14.51c-1.09.71-4.1.56-5.55,1.39-4.49,2.6-7.95,11.86-2.37,16.03,8,5.96,17.35-3.48,17.21-11.67,3.6-.2,6.24.15,9.71-.99.13-.4.26-.79.39-1.19-.14-.2-.27-.39-.39-.59-1.09-.18-2.3.08-3.59.33-1.8.37-3.74.74-5.72-.13-3.55-1.56-4.43-4.68-9.1-5.74-.55.8-.95,1.33-.59,2.57M38.78,9.16c-.43.81-.63,1.55-.59,2.96.13.14.26.27.4.4,2.57-.16,7.7-4.44,6.73-6.53-1.5,1.44-3.84,3.02-6.53,3.16M14.68,5.8c-.21,0-.42,0-.64,0C7.86,8.12.09,7.18,0,15.4v.3c.07.06.13.13.2.2,2.17-.83,3.35-3.74,5.34-4.95,5.53-3.35,15.82-3.61,19.39,1.78,6.69,10.13-6.22,21.12-16.62,18.8-2.01-3.98,2.61-14.54,2.77-19.79-1.36-.82-2.52-.35-4.15,0-.99,4.08-4,18.41-2.96,21.77,3.7,2.58,10.08.61,13.65-.99,4.26-1.91,7.84-4.06,10.28-7.72,7.33-10.97-1.04-19-13.21-19h0ZM52.23,33.5c-.06-.46-.13-.92-.19-1.39,1.37-1.42,3.08-2.23,4.54-3.56h.8c.18,2.24-.15,3.25-.99,4.75-.79.29-1.63.51-2.49.51-.55,0-1.11-.09-1.68-.31M69.06,11.74c-1.45.07-2.91.14-4.36.2-.82.38-1.08.67-1.38,1.58-.2.2-.4.39-.59.59l.19.4c1.72-.13,3.43-.26,5.14-.4.07.07.14.13.2.2-.96,6.52-4.77,6.87-8.31,10.49h-.8c-1.05-1.91-2.11-3.82-3.17-5.74-.24-2.66,6.05-2.45.79-6.73-3.89.73-3.17,3.43-4.75,6.53-2.1,4.13-7.16,11.09-12.47,11.87-.42-.27-.69-.39-.99-.79-1.66-2.8,1.8-9.9.99-13.46-1.26-.76-2.24-.39-3.95-.2.49,4.52-2.91,12.27-.19,15.83,4.85,6.37,16-7.77,17.21-10.88.13-.07.26-.14.4-.2,1.05,1.85,2.11,3.69,3.16,5.54-2.71,2.01-7.23,2.51-7.52,6.93,5.03,5.98,13.24,1.22,11.88-6.93,1.51-.99,3.03-1.98,4.55-2.97l.99-.99c1.17,3.84-1.53,8.74,2.97,10.69,4.98,2.16,10.56-3.67,9.89-7.32-2.68,1.61-2.77,4.03-7.52,3.96-3.46-3.46-.47-11.44.59-15.44,1.45-.63,3.75-.47,6.06-.3,2.7.19,5.41.39,6.82-.69.75-.42.99-1.04,1.38-1.78v-.6c-3.66.58-8.55.64-13.06.6.23-2.51,1.44-4.09,2.38-5.94-.56-.42-1.1-.61-1.62-.61-2.58,0-4.54,4.64-4.91,6.54M104.87,23.41c.84-4.7,2.79-6.47,6.33-8.51.59.13,1.19.27,1.77.4.15.2.28.4.41.6,1.07,5.14-3.98,7.06-8.11,7.71-.13-.06-.26-.13-.39-.2M147.08,5.17c-2.89.07-4.17,4.31-4.81,6.17-.6.14-1.19.26-1.78.4h-10.09c.3-2.48,1.46-4.07,2.37-5.94v-.19c-3.93-.8-5.94,2.54-6.32,5.93-3.61.55-5.19-.04-6.53,2.77v.2c1.84-.13,3.69-.26,5.54-.4-.62,8.76-9.35,17.47-18.6,16.23-1.19-1.27-1.92-2.05-2.17-4.35v-.2c5.45-1.42,12.53-1.89,12.66-8.31.03-1.74-.76-3.09-1.78-3.75-8.2-5.4-18.6,8.98-13.85,16.81,4.52,7.45,18.77-.92,20.77-5.34.2-.13.4-.27.6-.4.6,3.17.05,6.41,2.57,8.11,4.49,3.05,11.07-2.84,10.68-6.73-2.74.8-3.31,4.77-7.72,3.56-3.8-1.96.15-12.38.6-15.43h12.27c-.86,4.19-4.12,11.28-1.78,16.23,2.98,6.29,11.26.99,12.86-3.17-.26-.46-.53-.92-.79-1.38-1.95,2.11-2.88,4.05-7.13,3.96l-1.19-.99c-1.03-4.27-.11-10.81,1.78-14.24.77-1,10.58-.66,12.66-.8.47-.66.93-1.32,1.39-1.98v-.79c-.92.2-1.85.4-2.76.6h-10.29c.4-1.88,2.3-4.09,2.37-5.54-.06-.26-.13-.53-.2-.79-.42-.15-.82-.23-1.18-.24h-.14Z"/>
      <g>
        <path class="cls-1" d="M224.54.28c-4.31,5.87-8.26,11.77-11.84,17.7-3.6,5.93-6.76,11.55-9.51,16.86-.56,1.06-.94,2.03-1.13,2.9-.18.88-.28,1.69-.28,2.44,0,1.19.34,2.22,1.03,3.09.31.18.38.42.19.7-.19.28-.37.3-.56.04-1.07-1.37-1.97-2.51-2.72-3.42-.75-.9-1.13-1.89-1.13-2.95,0-1.37.35-2.75,1.03-4.12.87-1.81,2.05-3.97,3.51-6.46,1.47-2.49,3.06-5.08,4.77-7.77,1.72-2.69,3.51-5.37,5.35-8.05,1.84-2.68,3.54-5.12,5.1-7.3.05-.06.09-.13.09-.19v-.09c0-.06-.04-.13-.09-.19-.19,0-.32.06-.38.19-1.18.68-2.52,1.5-4.03,2.43-1.5.94-3.06,1.92-4.72,2.95-1.66,1.03-3.34,2.08-5.06,3.14-1.72,1.06-3.39,2.09-5,3.09-.14-.19-.22-.41-.29-.66-.07-.25-.09-.56-.09-.94,1.43-.75,3.09-1.64,4.96-2.67,1.87-1.03,3.79-2.14,5.76-3.32,1.97-1.19,3.9-2.37,5.8-3.56,1.9-1.18,3.57-2.28,5.01-3.28.63-.12,1.3-.25,2.02-.37.71-.13,1.38-.28,2.01-.47l.18.28Z"/>
        <path class="cls-1" d="M196.35,59.34c1.12,1.5,2.6,2.53,4.41,3.09,1.83.56,3.58.84,5.27.84,4.78,0,9.3-1.24,13.56-3.72,4.26-2.48,8.19-5.64,11.79-9.48,3.61-3.84,6.77-8.03,9.48-12.57,2.72-4.54,4.91-8.82,6.61-12.85-2.16,2.34-4.77,4.5-7.87,6.46-3.09,1.97-6.47,2.95-10.11,2.95-2.35,0-4.41-.61-6.18-1.83-1.78-1.22-2.67-3.14-2.67-5.76,0-2.44.87-5.11,2.6-8.01,1.73-2.9,3.98-5.64,6.74-8.21,2.77-2.58,5.84-4.73,9.2-6.47,3.37-1.73,6.69-2.59,9.97-2.59,1.88,0,3.39.26,4.5.77,1.12.51,2.02,1.19,2.67,2.03.66.84,1.1,1.76,1.34,2.74.23.99.35,1.94.35,2.88,0,2.44-.6,5.48-1.83,9.13-1.21,3.65-3.07,7.58-5.55,11.8-2.48,4.21-5.6,8.5-9.34,12.85-3.75,4.35-8.1,8.45-13.07,12.29-3.93,3-7.99,5.39-12.14,7.16-4.17,1.78-7.94,2.67-11.31,2.67-1.87,0-3.62-.44-5.26-1.33-1.64-.89-2.83-2.32-3.58-4.29l.43-.56ZM252.1,8.49c0-1.5-.38-2.78-1.13-3.86-.75-1.07-1.91-1.61-3.51-1.61-2.72,0-5.48.86-8.29,2.6-2.81,1.73-5.34,3.86-7.58,6.39-2.25,2.53-4.1,5.17-5.55,7.94-1.45,2.76-2.18,5.17-2.18,7.23,0,1.68.57,2.98,1.68,3.87,1.13.89,2.63,1.33,4.5,1.33,2.71,0,5.39-.75,8-2.25,2.62-1.5,4.97-3.39,7.03-5.68,2.06-2.29,3.74-4.87,5.06-7.73,1.31-2.86,1.96-5.59,1.96-8.22"/>
        <path class="cls-1" d="M36.35,55.46s.09.08.14.22h-.03l-.11-.11v-.11ZM36.59,55.4l.11.14h.03v.05l-.03-.03h-.03c0,.11-.03.16-.11.16h-.03l-.03-.08.03-.03v-.03l-.03-.11.08-.08ZM37.54,54.94l.19.11.24-.11.25.16.02-.08h.05l.27.11v.05l-.03.22c.12.11.19.25.19.41,0,.21-.07.35-.22.41l-.08.16h-.05c0-.05-.03-.08-.08-.08v-.08c0-.1-.03-.17-.08-.22l-.03.03h-.11l-.05-.22h-.08v.06l.02.03-.11.27c0,.09.03.13.08.13v.08l.02.11-.11.27.08.08v.08l-.03.3.03.11-.03.03.05.33-.02.08.08.03-.11.22.03.19-.11.05.03.03v.03l-.05.08c-.16,0-.24-.06-.24-.19h-.06v-.46l-.03-.11c.11-.16.16-.28.16-.35l.05-.05-.08-.05-.03.03c0-.05-.02-.08-.05-.08.04-.11.07-.16.11-.16l-.14-.38c.06-.09.1-.25.14-.49l-.11-.22h-.06l-.08.08-.16-.05h-.08l-.22.05c-.07-.02-.14-.07-.22-.16h-.03v-.08s.05-.11.05-.19h.03l-.03-.02v-.25c.09,0,.14-.06.14-.19l.24.03.08-.08.24.08c.03-.09.05-.14.08-.14M42.15,55.08l.11.06.03-.03.14.03.14-.03.03.03.02-.03c.19.13.31.3.36.49.04,0,.07.04.08.14l-.08.3.11.32-.14-.03-.02.14.05.08-.08.33c.09.12.14.23.14.32v.14h-.05v.08c0,.05.04.15.13.3l.03.13v.05c-.06,0-.13.24-.19.73v.11l.03-.02h.03l.08.13-.14.51c.04.2.07.3.11.3-.04.05-.06.18-.08.41l-.03.03.06.3-.03.08.03.03v.03l-.03.19c.01.18.05.27.11.27h.02l.08-.05.22.08.05.19-.03.08h.03l-.03.03v.16l.03-.02.19.05c0-.05.04-.08.14-.08l.11.03c.01-.07.07-.11.19-.11l.06-.17h.02c0,.17.02.27.05.3l-.08.2c0,.09-.06.13-.16.13-.02.08-.06.14-.14.19l-.02-.03h-.03l-.11.03-.03-.03v-.03l.08-.08v-.05l-.05-.05h-.08l-.19.11-.03-.03h-.03l-.41.16h-.02l-.03-.03v-.03l-.03.03h-.08c0-.05-.09-.12-.27-.19l-.03-.03h-.03l-.08.05h-.03c0-.05-.02-.08-.05-.08l-.24.02s-.07-.06-.22-.11l-.05-.16v-.24l.05-.08c-.06-.18-.12-.28-.18-.3h-.03l-.16.16h-.06l-.03-.03c-.08,0-.14.1-.16.3-.25.27-.45.41-.6.41l-.05.11h-.13v-.05h-.16l-.08.05h-.03l-.1-.03-.11.03-.24-.05-.1.03c-.11,0-.17-.07-.17-.19-.09,0-.13-.02-.13-.08h-.03v.03l.03.08-.05.13.02.03h-.05c-.06-.05-.24-.13-.54-.21v.02l-.25-.13s-.13-.11-.27-.33c-.06,0-.13-.07-.22-.22-.04,0-.09-.16-.16-.46l.08-.03v-.05s-.07-.04-.11-.13v-.22c0-.05-.03-.13-.11-.22l-.03-.11v-.05l.06-.08-.03-.11.05-.11c-.05-.06-.09-.24-.13-.54h.03l-.03-.03v-.11c0-.08.11-.14.35-.19l.02-.03h.09s.03.05.08.05v.05l-.02.08.05.35-.05.19.13.65v.03l-.08.16.05.11h-.03l.03.08-.03.08.08.05h.08l.08-.89-.03-.03v-.03l.03-.16-.03-.16.05-.22h-.03l-.03.03h-.03l-.05-.22h.03l-.08-.36c.07-.05.13-.24.19-.57-.08-.17-.13-.31-.13-.41l.03-.03-.03-.13v-.03l.05-.16c.2,0,.3.06.3.19v.05c0,.17-.04.29-.14.38h.11v.11l-.03.19.08.03.03-.03.08.3c-.09.03-.14.09-.14.19,0,.13-.05.22-.16.24v.03s.04.05.14.05l.03.02v.27l-.03.11.16.6s-.08.06-.11.19h-.03l.03.14h.21l.03.24-.03.03-.02.08h-.03l.08.16v.05h-.05l.05.05.03-.03h.03c.05,0,.08.03.08.09l.09-.03c.29.06.43.14.43.22h.11l.08-.06c.21.13.34.19.4.19.13-.02.24-.07.36-.16l.27-.11.14.03c0-.05.03-.08.08-.08.04-.04.06-.1.06-.19.04,0,.16-.12.35-.35.06,0,.11-.1.16-.3.07-.01.14-.12.22-.32l-.03-.14v-.08c.04-.18.08-.27.13-.27l.14.03v-.05l-.05-.11.05-.16v-.16h-.08l-.03-.3.03-.11c-.04-.13-.09-.19-.16-.19l-.08.03v-.08c.08,0,.13-.06.16-.19.07,0,.11-.04.11-.11l-.06-.44h.06v-.03c.14.05.22.12.22.22l-.06.16.11.14-.03.03v.03l.08.16c-.07.16-.12.31-.13.46l.08.08c0,.13-.05.23-.14.33l.03.14-.05.16c.05,0,.08.05.08.13h.03l-.08.11c.02.15.05.22.08.22h.03l.03-.03h.03v.05c.08-.05.16-.15.24-.3l-.03-.03.05-.19-.03-.16v-.08h.05v-.05l-.03-.14c.08,0,.13-.08.16-.24l-.11-.19.02-.11-.11-.25v-.05l.05-.22v-.11l-.03-.03.03-.03v-.03l-.03-.27.06-.05v-.19c-.07,0-.11-.06-.11-.19l.05-.22c-.07-.08-.12-.24-.14-.49l-.05-.13-.16-.06c-.09,0-.14.03-.14.08-.08,0-.25-.06-.52-.16l-.25.16-.13-.11v-.14c.05-.22.13-.33.24-.33l.3.03.16-.13h.05l.06.05.16-.16h.03ZM38.41,60.56h.03v-.06h-.03v.06ZM38.49,56.35h.03l.05.06-.05.05h-.03v-.11ZM41.88,56.08h.05v.05h-.05v-.05ZM42.04,56.49l.05.05v.08s-.1.05-.13.14h-.03v-.14c.07,0,.11-.05.11-.13M42.02,56.19h.03l.05.05-.08.08v-.14ZM42.02,56.9h.03v.11h-.03v-.11ZM42.21,60.64l.03.16h.05l.05-.05v-.13h-.08l-.03.02h-.03ZM42.26,61.07l.13.08.11-.02v-.08l.05-.22h-.03c-.11,0-.2.08-.27.24"/>
        <path class="cls-1" d="M47.19,54.71c.02.09.07.14.13.14v.08c0,.06.04.14.11.22l.03-.03h.08l.03.13v.03l-.03.02v.03l.03-.03h.06s.2.08.46.24l-.03.24.03.03h.06c.13,0,.23-.06.29-.19.12-.07.2-.18.25-.3h.03l.05.06.36-.19h.03l.11.03c.18-.17.34-.25.46-.25h.05l.03-.08.03.02h.03l.08-.02.08.02.03-.02.19.13.52-.08h.06c0,.07.15.2.46.38.02.07.07.11.16.11h.11l.08.3-.05.05.03.16-.03.08.05.11-.02.14.13.13-.05.08.16.38-.02.11.05.16c-.07,0-.14.1-.19.3l.16.27c-.03.3-.07.51-.13.63-.04.14-.1.22-.19.22l-.06.14v.11c.13.23.23.35.33.38l.11-.13h.03v-.05l-.05-.22c.07-.17.11-.33.11-.48v-.08l-.05-.05.05-.16-.03-.03v-.03s.1-.05.19-.05l.03-.08h.05v.22l-.03.03c0,.05.03.08.08.08v.08l.02.11-.02.11v.06l.05.08v.25l-.03.11.14.27h-.03c-.09,0-.13.02-.13.06l.02.21-.02.11.05.33-.03.11v.08c.05.07.08.13.08.19v.08l-.03.24c0,.18.1.27.3.27v.05l.19-.03.08.19c-.04.05-.05.13-.05.22h-.03l-.02-.03h-.03c-.06.18-.11.27-.16.27l-.08-.03c0,.06-.13.13-.38.19l-.08.13-.08-.02-.19.08h-.03c-.12,0-.21-.04-.27-.11l-.02.03h-.03l-.03-.03h-.03l-.08.03-.19-.11-.21.03-.03-.03h-.02l-.11.05-.03-.03h-.03l-.16.05h-.03l-.3-.22v-.03l-.13.03h-.05c0-.09.03-.14.08-.14v-.05l-.06-.22.22-.27c.08,0,.2-.04.35-.13l.16.02s.09-.09.25-.19c0-.04.05-.1.16-.16l.03.03h.02s.05-.03.05-.08l-.05-.11.05-.16s-.05-.03-.05-.08l.08-.19c0-.09-.02-.14-.05-.14l.05-.22-.03-.08.03-.03h.17v-.08l-.03-.08h.06v-.08c-.14-.04-.22-.09-.22-.16l.03-.14-.03-.25.03-.14-.08-.16.05-.08-.05-.41.05-.11-.02-.22c.04-.06.07-.18.11-.38h-.03l-.07.03-.03-.03v-.03l.05-.05-.02-.03v-.02s.03-.07.11-.08v-.02l-.22-.41.03-.19c-.04-.14-.12-.24-.24-.3,0-.11-.09-.19-.27-.24l-.08.08s-.13-.05-.3-.05l-.27-.14c-.16.13-.24.21-.24.27,0,.11-.03.16-.08.16l-.16-.03s-.16.13-.38.38h-.03l-.14-.03v-.05l.06-.16h-.03l.03-.03v-.03l-.11-.08c0,.05-.05.08-.13.08l-.05-.05c-.2.3-.34.46-.41.49l-.07.14.02.03-.06.11c0,.07.06.11.16.11l.03.08c0,.1-.06.18-.19.25l-.08.19v.08h.05v.11l-.11.38c.07.03.11.09.11.19v.05l-.02.03.08.14v.05l-.06.33.06.16-.03.11.06.49c-.06,0-.09.22-.11.65l.16.49-.03.19h.03l.17.11.03-.03h.03l.08.03v-.03l.08-.11h.03c0,.07.07.11.18.11l.11-.02.05.08.03-.03h.03c.14,0,.22.05.22.16l.14-.03c.09.14.13.27.13.38-.01.07-.12.14-.32.22l-.08-.03v.03l-.19-.08-.16.08-.08-.03-.05.05-.14-.03s-.09.07-.27.08l-.05-.05h-.08l-.08.05-.27-.11v.03l-.03.11h-.05l-.03-.03-.19.14h-.03c-.05,0-.08-.06-.08-.19l-.41-.08-.03.08-.14-.03-.16.05c-.02-.05-.07-.08-.16-.08h-.19c-.05-.05-.17-.1-.35-.13v-.05h-.03l-.11.05-.19-.03-.08.08h-.13l-.05-.24c.04-.18.11-.27.19-.27l.08.02v-.02c0-.08.08-.17.24-.27v-.14l.05-.06h.03l.02.03h.03l.05-.06c.07.06.19.08.38.08.18-.09.33-.14.43-.14v-.14c0-.09.03-.14.08-.14l-.03-.22.03-.03v-.03l-.05-.13.02-.19-.05-.11.05-.19-.05-.08.05-.16-.02-.16.05-.06v-.19l.05-.22v-.35l-.11-.16v-.03l.13-.33h-.03c-.09,0-.14-.03-.14-.08l.03-.03c0-.05-.04-.08-.11-.08l-.03-.03v-.11c.09-.07.13-.12.13-.16l-.11-.16v-.02c.1-.09.2-.32.3-.71l-.03-.16s.07-.08.08-.24h-.03l-.02-.03-.08-.05c-.15,0-.27.05-.38.14h-.11c-.1,0-.2-.04-.32-.14-.04,0-.05-.03-.05-.08l-.03-.03h-.03l-.08.05-.19-.13v-.08h.06v-.05l-.16-.14-.08.11-.08-.03v-.08l.05-.22v-.08l.33-.19h.11v.06h.19l.1-.08.03.03.03-.03h.14l.13.03.05-.05c.03.07.11.11.25.11,0-.1.06-.15.19-.16M46.86,61.44v.08l.08-.05-.03-.08-.05.05ZM47.11,57.61h.03v-.06h-.03v.06ZM47.81,56.99s-.03.05-.08.05l-.03.14h.03l-.03.03v.05l.11.14v.02c-.14.1-.21.19-.21.27l-.11.05.05.19-.03.19c.06.11.08.23.08.38,0,.05-.03.08-.08.08v.27l-.03.03.08.33-.06.08.11.19s.05-.03.05-.08l-.03-.08s.06-.05.06-.14l.03-.03h.03l.03.03.03-.08-.05-.11.08-.22-.05-.08.05-.14c-.03-.11-.07-.16-.11-.16l.06-.08-.03-.41h.03l.13-.03.08.03.08-.3c-.09-.1-.14-.19-.14-.27l.03-.03h.03l.03.03h.02l.03-.03v-.03c-.07,0-.11-.04-.11-.14-.06-.11-.1-.16-.13-.16h-.03ZM47.76,60.06c0,.07-.02.11-.05.11s-.06-.03-.06-.08h-.05v.06l.19.24.05-.05-.05-.19.03.03h.03v-.08l-.08-.03ZM47.68,60.03h.05v-.03h-.05v.03ZM47.95,56.99h.05v-.05h-.05v.05ZM48.71,56.53h.05l.03.08c0,.12-.1.21-.3.27l-.03-.02c.04-.2.11-.3.22-.3l.03-.03ZM51.66,59.57l.03.08-.03.16.05.16v.05l-.08.11v.03l.05.05.02-.02h.03v.13l.02-.03s.08-.05.14-.05l.03-.11-.11-.35.03-.11-.05-.11.05-.14-.03-.03h-.05s-.07.05-.11.16M51.72,59.38h.03v-.05h-.03v.05ZM51.88,55.88s.1.1.17.3c-.04.11-.08.17-.11.17h-.06v-.03l.03-.14s-.07-.06-.08-.19h-.02c.02-.07.05-.11.08-.11M51.83,60.3v.03l.05.05v-.08h-.05ZM52.02,56.34l.05.05-.03.16c.06,0,.11.09.16.27-.01.11-.03.16-.05.16l.05.22v.19c0,.21-.04.32-.11.32-.05-.01-.08-.08-.08-.22l.05-.22-.03-.11.03-.11h-.03l.03-.03v-.03c-.02-.07-.06-.12-.14-.16v-.11c.05-.15.08-.28.08-.4M51.96,60.57v.11l.06.05.03-.02v-.05l-.08-.08ZM52.94,61.33s.09.05.14.16c-.03.13-.07.19-.11.19s-.08-.07-.11-.22v-.03l.08-.11Z"/>
        <path class="cls-1" d="M55.26,55.46s.08.08.14.22h-.03l-.11-.11v-.11ZM55.5,55.4l.11.14h.03v.05l-.03-.03h-.03c0,.11-.04.16-.11.16h-.03l-.03-.08.03-.03v-.03l-.03-.11.08-.08ZM56.45,54.94l.19.11.24-.11.25.16.03-.08h.05l.27.11v.05l-.03.22c.13.11.19.25.19.41,0,.21-.07.35-.22.41l-.08.16h-.05c0-.05-.03-.08-.08-.08v-.08c0-.1-.03-.17-.08-.22l-.03.03h-.11l-.06-.22h-.08v.06l.03.03-.11.27c0,.09.03.13.08.13v.08l.03.11-.11.27.08.08v.08l-.03.3.03.11-.03.03.05.33-.03.08.08.03-.1.22.03.19-.11.05.03.03v.03l-.05.08c-.16,0-.24-.06-.24-.19h-.06v-.46l-.03-.11c.11-.16.17-.28.17-.35l.05-.05-.08-.05-.03.03c0-.05-.02-.08-.05-.08.04-.11.07-.16.11-.16l-.14-.38c.06-.09.1-.25.14-.49l-.11-.22h-.06l-.08.08-.16-.05h-.08l-.22.05c-.06-.02-.14-.07-.22-.16h-.03v-.08s.06-.11.06-.19h.03l-.03-.02v-.25c.09,0,.14-.06.14-.19l.24.03.08-.08.24.08c.02-.09.05-.14.08-.14M61.06,55.08l.11.06.03-.03.13.03.14-.03.03.03.02-.03c.19.13.31.3.36.49.04,0,.06.04.08.14l-.08.3.11.32-.13-.03-.03.14.06.08-.08.33c.08.12.14.23.14.32v.14h-.05v.08c0,.05.05.15.13.3l.03.13v.05c-.06,0-.12.24-.19.73v.11l.03-.02h.03l.08.13-.13.51c.03.2.07.3.11.3-.03.05-.07.18-.08.41l-.03.03.05.3-.03.08.03.03v.03l-.03.19c.01.18.05.27.11.27h.03l.08-.05.21.08.06.19-.02.08h.02l-.02.03v.16l.02-.02.19.05c0-.05.05-.08.14-.08l.11.03c.02-.07.08-.11.19-.11l.05-.17h.03c0,.17.02.27.05.3l-.08.2c0,.09-.05.13-.16.13-.02.08-.06.14-.13.19l-.03-.03h-.03l-.11.03-.03-.03v-.03l.08-.08v-.05l-.05-.05h-.08l-.2.11-.02-.03h-.03l-.41.16h-.03l-.03-.03v-.03l-.03.03h-.08c0-.05-.09-.12-.27-.19l-.02-.03h-.03l-.08.05h-.02c0-.05-.02-.08-.06-.08l-.25.02s-.07-.06-.21-.11l-.05-.16v-.24l.05-.08c-.07-.18-.13-.28-.19-.3h-.03l-.16.16h-.06l-.02-.03c-.08,0-.14.1-.16.3-.24.27-.45.41-.6.41l-.05.11h-.14v-.05h-.16l-.08.05h-.03l-.11-.03-.1.03-.25-.05-.11.03c-.11,0-.16-.07-.16-.19-.09,0-.14-.02-.14-.08h-.03v.03l.03.08-.05.13.03.03h-.05c-.06-.05-.24-.13-.54-.21v.02l-.24-.13s-.13-.11-.27-.33c-.06,0-.13-.07-.22-.22-.04,0-.09-.16-.16-.46l.08-.03v-.05s-.07-.04-.11-.13v-.22c0-.05-.04-.13-.11-.22l-.03-.11v-.05l.05-.08-.03-.11.05-.11c-.05-.06-.09-.24-.14-.54h.03l-.03-.03v-.11c0-.08.12-.14.35-.19l.03-.03h.08s.02.05.08.05v.05l-.03.08.06.35-.06.19.14.65v.03l-.08.16.06.11h-.03l.03.08-.03.08.08.05h.08l.08-.89-.03-.03v-.03l.03-.16-.03-.16.05-.22h-.03l-.03.03h-.03l-.05-.22h.03l-.08-.36c.07-.05.14-.24.19-.57-.09-.17-.14-.31-.14-.41l.03-.03-.03-.13v-.03l.05-.16c.2,0,.3.06.3.19v.05c0,.17-.05.29-.14.38h.11v.11l-.03.19.08.03.03-.03.08.3c-.09.03-.13.09-.13.19,0,.13-.05.22-.16.24v.03s.04.05.13.05l.03.02v.27l-.03.11.16.6s-.08.06-.11.19h-.03l.03.14h.22l.03.24-.03.03-.03.08h-.03l.08.16v.05h-.06l.06.05.02-.03h.03c.05,0,.08.03.08.09l.08-.03c.29.06.43.14.43.22h.11l.08-.06c.21.13.34.19.4.19.13-.02.24-.07.36-.16l.27-.11.14.03c0-.05.03-.08.08-.08.04-.04.06-.1.06-.19.04,0,.16-.12.35-.35.06,0,.12-.1.16-.3.07-.01.15-.12.22-.32l-.03-.14v-.08c.04-.18.08-.27.13-.27l.14.03v-.05l-.06-.11.06-.16v-.16h-.08l-.03-.3.03-.11c-.04-.13-.09-.19-.16-.19l-.08.03v-.08c.08,0,.13-.06.16-.19.07,0,.1-.04.1-.11l-.05-.44h.05v-.03c.15.05.22.12.22.22l-.05.16.11.14-.03.03v.03l.08.16c-.07.16-.12.31-.14.46l.08.08c0,.13-.04.23-.13.33l.02.14-.05.16c.05,0,.08.05.08.13h.03l-.08.11c.02.15.04.22.08.22h.03l.03-.03h.03v.05c.09-.05.17-.15.24-.3l-.02-.03.05-.19-.03-.16v-.08h.06v-.05l-.03-.14c.07,0,.13-.08.16-.24l-.11-.19.02-.11-.11-.25v-.05l.06-.22v-.11l-.03-.03.03-.03v-.03l-.03-.27.06-.05v-.19c-.08,0-.11-.06-.11-.19l.05-.22c-.07-.08-.12-.24-.13-.49l-.05-.13-.17-.06c-.09,0-.14.03-.14.08-.08,0-.25-.06-.52-.16l-.24.16-.13-.11v-.14c.05-.22.13-.33.24-.33l.3.03.16-.13h.05l.05.05.16-.16h.03ZM57.32,60.56h.03v-.06h-.03v.06ZM57.4,56.35h.03l.06.06-.06.05h-.03v-.11ZM60.79,56.08h.06v.05h-.06v-.05ZM60.95,56.49l.06.05v.08c-.05,0-.1.05-.14.14h-.03v-.14c.07,0,.11-.05.11-.13M60.93,56.19h.02l.06.05-.08.08v-.14ZM60.93,56.9h.03v.11h-.03v-.11ZM61.12,60.64l.03.16h.06l.06-.05v-.13h-.09l-.03.02h-.03ZM61.17,61.07l.14.08.11-.02v-.08l.06-.22h-.03c-.11,0-.2.08-.27.24"/>
        <path class="cls-1" d="M66.1,54.71c.03.09.07.14.14.14v.08c0,.06.04.14.1.22l.04-.03h.07l.04.13v.03l-.04.02v.03l.04-.03h.05s.2.08.46.24l-.02.24.02.03h.06c.14,0,.24-.06.3-.19.12-.07.2-.18.25-.3h.03l.06.06.35-.19h.03l.11.03c.19-.17.34-.25.46-.25h.05l.03-.08.02.02h.03l.08-.02.08.02.03-.02.19.13.51-.08h.05c0,.07.16.2.46.38.02.07.07.11.16.11h.1l.08.3-.05.05.03.16-.03.08.05.11-.03.14.14.13-.06.08.16.38-.03.11.06.16c-.08,0-.14.1-.19.3l.16.27c-.03.3-.07.51-.14.63-.04.14-.1.22-.19.22l-.06.14v.11c.12.23.23.35.32.38l.11-.13h.03v-.05l-.05-.22c.07-.17.11-.33.11-.48v-.08l-.05-.05.05-.16-.03-.03v-.03s.1-.05.19-.05l.03-.08h.05v.22l-.03.03c0,.05.03.08.09.08v.08l.02.11-.02.11v.06l.05.08v.25l-.03.11.14.27h-.03c-.1,0-.13.02-.13.06l.02.21-.02.11.05.33-.03.11v.08c.06.07.08.13.08.19v.08l-.03.24c0,.18.09.27.3.27v.05l.19-.03.08.19c-.04.05-.06.13-.06.22h-.03l-.03-.03h-.03c-.06.18-.11.27-.16.27l-.08-.03c0,.06-.13.13-.38.19l-.08.13-.08-.02-.19.08h-.03c-.12,0-.21-.04-.27-.11l-.03.03h-.03l-.02-.03h-.03l-.08.03-.19-.11-.22.03-.03-.03h-.03l-.11.05-.03-.03h-.03l-.16.05h-.03l-.3-.22v-.03l-.13.03h-.05c0-.09.03-.14.08-.14v-.05l-.05-.22.21-.27c.08,0,.2-.04.35-.13l.16.02s.08-.09.24-.19c0-.04.05-.1.16-.16l.02.03h.02s.05-.03.05-.08l-.05-.11.05-.16s-.05-.03-.05-.08l.09-.19c0-.09-.02-.14-.05-.14l.05-.22-.03-.08.03-.03h.16v-.08l-.03-.08h.06v-.08c-.15-.04-.22-.09-.22-.16l.03-.14-.03-.25.03-.14-.09-.16.05-.08-.05-.41.05-.11-.02-.22c.04-.06.07-.18.11-.38h-.03l-.08.03-.03-.03v-.03l.05-.05-.02-.03v-.02s.03-.07.11-.08v-.02l-.22-.41.03-.19c-.04-.14-.12-.24-.25-.3,0-.11-.09-.19-.27-.24l-.08.08s-.13-.05-.3-.05l-.27-.14c-.16.13-.25.21-.25.27,0,.11-.02.16-.08.16l-.16-.03s-.17.13-.38.38h-.03l-.14-.03v-.05l.05-.16h-.03l.03-.03v-.03l-.11-.08c0,.05-.05.08-.13.08l-.06-.05c-.2.3-.34.46-.41.49l-.08.14.03.03-.05.11c0,.07.05.11.16.11l.03.08c0,.1-.07.18-.19.25l-.08.19v.08h.06v.11l-.11.38c.07.03.11.09.11.19v.05l-.03.03.08.14v.05l-.05.33.05.16-.03.11.05.49c-.05,0-.09.22-.11.65l.16.49-.02.19h.02l.17.11.03-.03h.03l.08.03v-.03l.08-.11h.03c0,.07.07.11.19.11l.11-.02.05.08.03-.03h.03c.14,0,.21.05.21.16l.14-.03c.09.14.13.27.13.38,0,.07-.12.14-.33.22l-.08-.03v.03l-.19-.08-.16.08-.08-.03-.06.05-.13-.03s-.1.07-.28.08l-.05-.05h-.08l-.08.05-.27-.11v.03l-.03.11h-.05l-.03-.03-.19.14h-.03s-.08-.06-.08-.19l-.4-.08-.03.08-.14-.03-.16.05c-.01-.05-.07-.08-.16-.08h-.19c-.05-.05-.17-.1-.35-.13v-.05h-.03l-.11.05-.19-.03-.08.08h-.14l-.05-.24c.04-.18.1-.27.19-.27l.08.02v-.02c0-.08.08-.17.24-.27v-.14l.05-.06h.03l.03.03h.03l.05-.06c.07.06.2.08.38.08.18-.09.32-.14.43-.14v-.14c0-.09.03-.14.08-.14l-.03-.22.03-.03v-.03l-.06-.13.03-.19-.05-.11.05-.19-.05-.08.05-.16-.03-.16.06-.06v-.19l.05-.22v-.35l-.11-.16v-.03l.13-.33h-.02c-.09,0-.14-.03-.14-.08l.03-.03c0-.05-.04-.08-.11-.08l-.03-.03v-.11c.09-.07.14-.12.14-.16l-.11-.16v-.02c.1-.09.21-.32.3-.71l-.02-.16s.07-.08.08-.24h-.02l-.03-.03-.08-.05c-.15,0-.27.05-.38.14h-.11c-.1,0-.2-.04-.33-.14-.03,0-.05-.03-.05-.08l-.03-.03h-.03l-.08.05-.19-.13v-.08h.06v-.05l-.16-.14-.08.11-.08-.03v-.08l.05-.22v-.08l.33-.19h.11v.06h.19l.11-.08.03.03.03-.03h.14l.13.03.05-.05c.03.07.11.11.25.11,0-.1.06-.15.19-.16M65.78,61.44v.08l.08-.05-.03-.08-.06.05ZM66.02,57.61h.03v-.06h-.03v.06ZM66.72,56.99s-.03.05-.08.05l-.03.14h.03l-.03.03v.05l.11.14v.02c-.15.1-.22.19-.22.27l-.11.05.05.19-.03.19c.06.11.08.23.08.38,0,.05-.02.08-.08.08v.27l-.03.03.09.33-.06.08.11.19s.05-.03.05-.08l-.03-.08s.05-.05.05-.14l.03-.03h.03l.03.03.03-.08-.05-.11.08-.22-.06-.08.06-.14c-.04-.11-.07-.16-.11-.16l.06-.08-.03-.41h.03l.13-.03.08.03.08-.3c-.09-.1-.13-.19-.13-.27l.02-.03h.03l.02.03h.03l.02-.03v-.03c-.07,0-.11-.04-.11-.14-.06-.11-.1-.16-.13-.16h-.03ZM66.67,60.06c0,.07-.02.11-.06.11-.04,0-.05-.03-.05-.08h-.06v.06l.19.24.06-.05-.06-.19.03.03h.03v-.08l-.08-.03ZM66.59,60.03h.05v-.03h-.05v.03ZM66.86,56.99h.05v-.05h-.05v.05ZM67.62,56.53h.06l.03.08c0,.12-.1.21-.3.27l-.03-.02c.04-.2.11-.3.22-.3l.03-.03ZM70.58,59.57l.03.08-.03.16.06.16v.05l-.08.11v.03l.05.05.03-.02h.03v.13l.02-.03s.08-.05.14-.05l.03-.11-.11-.35.03-.11-.06-.11.06-.14-.03-.03h-.06s-.07.05-.11.16M70.63,59.38h.03v-.05h-.03v.05ZM70.79,55.88s.1.1.17.3c-.04.11-.08.17-.11.17h-.06v-.03l.03-.14s-.07-.06-.08-.19h-.03c.03-.07.06-.11.08-.11M70.74,60.3v.03l.05.05v-.08h-.05ZM70.93,56.34l.05.05-.02.16c.06,0,.11.09.16.27-.02.11-.03.16-.05.16l.05.22v.19c0,.21-.03.32-.11.32-.05-.01-.08-.08-.08-.22l.05-.22-.02-.11.02-.11h-.02l.02-.03v-.03c-.02-.07-.06-.12-.13-.16v-.11c.05-.15.08-.28.08-.4M70.88,60.57v.11l.05.05.03-.02v-.05l-.08-.08ZM71.85,61.33s.08.05.13.16c-.03.13-.07.19-.11.19-.05,0-.08-.07-.11-.22v-.03l.09-.11Z"/>
        <path class="cls-1" d="M73.42,54.91h.02l.3.05.09-.03v.03l.02-.03h.06c.06,0,.13.03.21.11h.03l.08-.05h.05l.27.05.03-.03v.03l.25-.08c.21.02.37.07.49.16l.3-.08.14.06.16-.03.11.06.14-.03c.11.04.18.09.19.13l.03-.02h.05c0,.07.08.15.25.24l.02.03v.03l-.16.11.05.19-.05.6.08.21-.03.52.05.11-.02.43v.05l.05.27-.05.27c0,.13.11.21.32.24v.35l-.05.08v.05l.05.08v.05c-.2.12-.3.23-.3.33l.06.46-.08.33c.14.07.22.19.22.35l.76.16h.03l.16.19h.05c.07,0,.14-.12.22-.35h.02l.06.16h.19l.03-.03.27.05c.15-.11.28-.16.41-.16l.06-.05h.06c.18.14.27.27.27.38v.27h-.02l-.08-.03v.03c0,.09-.14.2-.44.33l-.02-.03-.46.11h-.05l-.16-.03c-.13.06-.26.08-.38.08-.02-.05-.07-.08-.16-.08l-.22.14-.22-.08-.21.03v-.03l-.3.11-.22-.08c-.04.09-.12.13-.21.13l-.16-.03c-.16.08-.25.14-.25.19h-.05c0-.07-.07-.12-.22-.16l-.13.03h-.08l-.11-.16-.08-.05h-.05c-.18.1-.3.21-.38.33l-.11.03c0-.16-.13-.24-.38-.24h-.02v.03l-.14-.05c-.12.09-.23.14-.32.14,0-.07-.09-.12-.27-.16h-.05l-.03.03h-.03l-.13-.19.03-.13-.03-.22c0-.23.13-.4.38-.49.04-.08.07-.13.11-.14h.08c.1.07.19.11.27.11l.08-.03.08.08.65-.16c0,.09.13.17.38.24.27-.07.4-.18.4-.35l-.06-.16.08-.38-.03-.22v-.03c.09,0,.16-.13.22-.41-.06-.01-.08-.08-.08-.22l.03-.3-.16-.44v-.13l.03-.11-.03-.03v-.03l.19-.52c0-.35-.03-.56-.08-.62l.08-.16v-.16c0-.09-.02-.13-.05-.13l.03-.14c0-.24-.13-.35-.38-.35l-.03.03h-.03l-.22-.05c0,.05-.03.1-.11.13h-.16c0-.1-.05-.17-.16-.22h-.03c0,.08-.03.11-.09.11l-.08-.08c-.13.09-.27.13-.4.13l-.11-.05-.03.03h-.03c-.07,0-.14-.04-.24-.11l-.02.02c-.24,0-.41-.1-.52-.3v-.03l.03-.11-.05-.16c0-.09.08-.21.24-.35M75.64,52.15h.3l.08.05h.06l.16-.03c.06,0,.15.14.27.41.13,0,.2.21.22.63v.03l-.17.44s-.11.11-.24.33l-.05.05c0,.07-.07.11-.22.11v.03l-.03-.03c-.06,0-.16.05-.32.14l-.03-.02v-.03l-.02.03h-.03c-.08,0-.24-.11-.45-.33,0-.06-.08-.12-.22-.19l-.16-.27.03-.16s-.06-.07-.17-.11c0-.07-.01-.11-.05-.11.05-.13.11-.19.17-.19v-.14c0-.07.05-.14.14-.22,0-.05.09-.13.27-.24,0-.09.08-.14.24-.14l.16.06.08-.08ZM75.42,53.45h.05v-.05h-.05v.05ZM75.5,53.51l.16.19h.05l.06-.06c0-.06-.06-.13-.17-.19h-.05l-.05.05Z"/>
        <path class="cls-1" d="M83.2,54.94c.18.01.27.06.27.13l.32-.08.16.05c.11,0,.17-.03.17-.08h.07c0,.07.08.11.24.14l.14-.03.08.06.03-.03h.05s.09.12.27.22c0,.04.04.05.13.05l.14.22.03-.03h.03c.17.09.32.23.46.4,0,.17.02.25.08.25.07,0,.18.11.33.35h.03l-.03.17.05.22c0,.18-.02.27-.08.27-.07,0-.11.02-.11.05v.05l.03-.03h.05l.05.11-.1.14.02.14-.35.27-.32.11c-.16,0-.29-.1-.38-.3-.1,0-.14-.04-.14-.11-.07,0-.16-.21-.27-.62l.03-.02v-.03l-.03-.11c0-.09.14-.22.41-.4l.05-.14c0-.14-.07-.22-.21-.27-.06-.11-.16-.16-.33-.16l-.03-.14v-.14h-.03l-.16.11-.08-.03-.05.05c-.08-.11-.15-.16-.2-.16l-.13.14h-.03v-.14h-.03s-.05.09-.14.14l-.27-.05c-.07.09-.17.15-.29.19,0,.03-.14.07-.41.11l-.03.03.03.02v.06l-.03-.03h-.02c-.04.06-.09.11-.16.13v-.03c-.08,0-.14.06-.16.19l-.08.03-.03-.03h-.03c-.09,0-.17.15-.24.46l-.02.03v.03l.02.08h-.02l-.16.19c-.09,0-.14.05-.14.14,0,.13-.06.34-.16.62v.05l.03.24-.08.22c.18.17.27.34.27.52l-.03.08c0,.13.07.28.19.46l-.02.11c0,.06.02.08.08.08.05.19.16.35.33.49v.03l-.03.02v.03s.07.07.11.22l.13-.05s.04.06.14.08c0,.09.07.14.21.14,0,.15.19.24.57.3l.19.11c.38-.05.57-.12.57-.19l.3-.19.08.06c.09-.02.19-.14.33-.35.04,0,.07-.05.08-.14l.33.08.11-.27v-.14h.05c0-.1.1-.3.3-.6h-.06c.1-.16.24-.24.44-.24l.1.27h.05l.14-.03v.16h-.08v.16h.05l.03-.11c.07.03.11.05.11.08v.08c-.06.13-.14.19-.22.19l-.03-.03v.03l.06.22c0,.12-.06.2-.19.24,0,.07-.1.2-.3.38-.07.22-.21.32-.41.32,0,.04-.03.06-.08.06,0,.08-.08.13-.24.16l-.17.19c0,.07-.02.11-.08.11h-.03l-.05-.05-.35.16-.11-.03-.03.03-.03-.03h-.13c-.29.16-.47.24-.55.24h-.05l-.03-.03c-.05-.11-.1-.16-.16-.16v-.03l-.14.03c-.17,0-.36-.05-.56-.14-.3-.06-.49-.18-.54-.33-.11-.03-.17-.1-.17-.19l-.3-.22c-.08,0-.13-.06-.13-.19-.11-.03-.16-.1-.16-.19h-.03l.06-.22v-.05c-.08,0-.11-.04-.11-.13-.1-.09-.18-.21-.27-.38h-.03v-.16h.06v-.19c-.05-.05-.1-.19-.14-.41l-.03-.03v-.08l.08-.11v-.08l-.14-.3v-.11c.05,0,.08-.08.08-.25.13-.16.19-.37.19-.65v-.14c0-.08.04-.15.11-.19l-.03-.03v-.08l.11-.13-.02-.11.18-.57c0-.06.06-.08.16-.08l.25-.25c.11,0,.21-.12.3-.35l.02.03h.03c.02-.15.05-.22.08-.22l.03.13c.06,0,.13-.03.22-.11h.25c.06-.07.14-.11.21-.11,0-.07.08-.11.24-.11v-.03ZM85.32,60.26l.05.06h.03l-.05-.06h-.03Z"/>
        <path class="cls-1" d="M90.45,54.59c.1.09.3.17.57.24.04,0,.05-.05.05-.13l.25.05c.03-.07.06-.11.08-.11.15.13.31.21.49.24l.08.05c.05,0,.08-.05.08-.16l.11-.03.11.32h.02l.03-.03c.37.1.57.22.57.35.04.07.14.12.3.16l.05.14-.02.22c.08.25.22.38.43.38l.03.03v.03l-.05.11.11.25h-.02l.21.4c0,.21.07.35.2.44v.05h.02l-.02.02v.05l.08.14-.14.57.14.38-.06.22v.3l-.02.02.02.08c0,.12-.07.23-.22.33-.02.14-.07.24-.16.3,0,.1-.07.19-.22.27,0,.04-.08.11-.24.19l-.17.57h-.13c-.07.07-.23.16-.49.27,0,.09-.09.18-.27.25,0,.04-.08.09-.24.13l-.16-.02h-.14c-.03.06-.2.11-.51.13l-.08.05-.14-.03-.13.03c0-.06-.1-.11-.3-.13l-.11.02-.14-.05-.18.03c-.14-.24-.27-.35-.38-.35,0-.05-.05-.09-.14-.14l-.22.06c-.04-.13-.07-.19-.11-.19v.03c-.09-.03-.17-.09-.24-.19-.07,0-.14-.06-.19-.19-.14-.13-.29-.19-.46-.19l-.06-.06.03-.16c-.06-.08-.12-.26-.2-.54-.18-.15-.27-.37-.27-.65l-.16-.14.03-.08-.03-.03v-.03l.11-.43-.11-.43v-.03l.03-.14-.03-.16v-.02l.27-.36-.03-.02v-.03l.06-.14-.03-.03v-.03c0-.16.08-.28.24-.38l.06-.11.03.03h.03c.14-.03.22-.07.22-.11-.06-.08-.08-.16-.08-.25l.16-.22-.03-.16v-.03c.13,0,.19-.04.19-.13.15,0,.22-.09.22-.27.07,0,.11-.04.11-.11h.11c.09,0,.16-.06.21-.19l.11-.05.11.08.21-.13.06-.16-.03-.08.16-.16h.09c.02.11.04.16.08.16l.22-.19ZM87.89,60.07h.06l.06.05-.06.06h-.06v-.11ZM90.53,55.92h-.05s-.08-.08-.24-.11c0,.06-.04.08-.11.08,0,.11-.02.16-.06.16l.03.14-.03.11h-.02c-.17-.16-.28-.24-.32-.24l-.16-.05c-.1.22-.22.33-.39.33-.08.09-.16.15-.24.16-.13.16-.19.28-.19.38l.03.22s-.05.11-.16.19l-.05.16.03.19-.14.57v.49c.09.09.14.21.14.35-.08.02-.11.05-.11.11l.05.16-.03.03c.15.17.23.3.24.41,0,.03.1.12.27.24.03.11.17.26.41.46,0,.13.11.21.32.24,0,.05.16.1.47.14,0,.11.06.16.16.16v-.03c0-.05.03-.08.11-.08l.05.16h.03c.08-.07.15-.11.22-.11l.03.08h.08l.29-.11.03-.02h.16l.16-.03.13.03h.02c.12-.07.26-.2.44-.38.07,0,.14-.07.19-.22.2-.02.3-.06.3-.11.07,0,.13-.12.19-.35l.03-.03v-.08s-.03-.05-.08-.05l-.02-.03v-.06c.1,0,.26-.15.49-.46l.27-.73s-.07-.12-.08-.35l-.11-.41-.17-.27s-.06-.17-.11-.52c-.18-.11-.29-.21-.33-.3-.16-.04-.3-.15-.41-.33-.09,0-.13-.04-.13-.14l-.16-.14v.03l-.21-.05s-.09.07-.25.11c-.06-.22-.18-.32-.36-.32h-.08l-.11.03-.16-.05h-.03c-.06.09-.15.17-.27.24M89.55,56.06l.05.05h-.05v-.05Z"/>
        <path class="cls-1" d="M101.42,54.74h.06c.08,0,.17.05.24.16.19,0,.36.11.52.33.05,0,.11.04.19.13.03,0,.12.06.24.19.11,0,.16.08.16.24,0,.13.07.22.2.27l.05.25-.03.22.03.11-.03.08.06.22c0,.1-.05.22-.14.35l-.19-.03h-.03l-.11.11s-.1-.07-.16-.22c-.14.07-.31.12-.52.13l-.03.03h-.03c-.17-.1-.27-.22-.32-.35l.02-.16-.08-.08c.14-.15.28-.33.41-.54.07,0,.11-.05.11-.16v-.11c-.11-.07-.16-.17-.16-.3l-.38-.05h-.08c-.11-.12-.21-.19-.3-.22v-.05c-.12,0-.19.05-.19.16,0,.04-.1.06-.3.08l-.03-.08h-.05c-.1.25-.24.38-.41.38l-.06.11v.03l.14.11h.03l.27-.19.05.05c0,.07-.07.15-.22.24l-.03-.03h-.08s-.06.06-.11.19c-.06,0-.08.03-.08.11-.06,0-.09.03-.09.08h-.03l-.05-.05v-.08l.05-.19-.03.03h-.03l-.03-.03.03-.03v-.05l-.05-.05v.03l-.03-.03h-.03s-.05.03-.05.08c-.05,0-.08.04-.08.11-.18.02-.27.08-.27.19l.03.08h-.05l-.11-.08c-.13.08-.21.21-.24.38l.03.03h.03l.13-.06.03.03c0-.05.06-.08.19-.08l.11-.05c0-.08.06-.16.19-.22l.08.03c0,.18-.07.27-.22.27-.02.2-.1.3-.25.3-.01.05-.06.1-.14.14h-.03v-.16h-.03l-.08.05-.16-.11h-.03s-.07.05-.08.14l.03.13-.03.03v.03l.03.11h.13l.11-.08h.03l.08.08v.11l-.11.14v.13l.08.33v.11l-.05.11h-.03l-.19-.3v-.06l.11-.14s-.07-.03-.08-.11h-.06s-.09.13-.16.38l.05.19.03-.03h.03c.06,0,.16.08.27.24.07,0,.13.16.16.49l.03.03-.05.3h.05v.03l-.05.08.03.11-.05.16h.03l-.05.27.11.24-.03.03v.33l.05.05.08-.03c.05.15.13.22.24.22l.02.03h.05c0-.07.04-.12.11-.14l.11.03.05-.05.08.03c.05-.06.08-.11.08-.16h.05c.05,0,.16.05.33.16l.08-.03v.03c.06,0,.21.16.46.49.03,0,.1.07.19.22v.03c-.12.13-.2.25-.22.35-.12-.09-.25-.14-.38-.14l-.06-.05-.13.08-.06-.06h-.03l-.21.06-.03-.03h-.03l-.11.05-.22-.11c0,.07-.14.11-.41.14l-.03.03-.03-.03h-.03l-.08.05-.03-.03-.19.03-.14-.03c0,.07-.02.11-.08.11h-.16l-.16-.14-.08-.03v.03l-.03.03-.16-.05-.06.05h-.22l-.19-.03-.13.16-.11-.05-.21.05c0-.05-.14-.11-.41-.16,0,.07-.03.11-.08.11h-.03l-.38-.35c-.07-.17-.12-.35-.13-.57.04-.18.16-.27.35-.27,0,.04.05.05.16.05v.03l.24-.05.36.11c.18-.02.29-.04.32-.08l.03.03h.02l.11-.03.08.03v-.05h.14s.07-.07.11-.22l.11-.03-.05-.17.05-.27-.05-.24.03-.49s-.05-.05-.05-.16l-.03-.03c-.02-.11-.03-.16-.05-.16l.11-.41-.05-.19c.03-.32.09-.52.16-.6v-.05l-.08-.22.02-.43-.02-.08.02-.03v-.03l-.02-.22.16-.54v-.16c-.06,0-.08-.05-.08-.14l-.13-.05-.06.05-.24-.08s-.03.05-.08.05l-.35-.03-.11.08c-.13,0-.19-.05-.19-.16v-.11l-.46.22c-.2-.07-.3-.13-.3-.19l-.08-.22c0-.24.06-.43.19-.57l.28.08h.03l.22-.03c.21.07.48.12.81.13v-.03l.03.03h.03c.07-.06.18-.1.32-.11l.03.03h.02l.03-.03h.02l.19.08.03-.03h.02c.26.19.38.41.38.65l.24.19.03.03v.03c.2-.05.3-.15.3-.3.31-.22.46-.42.46-.6h.05l.03.03h.03l.05-.05h.05c.02.09.04.13.08.13l.02-.03v.06h.03s.05-.04.08-.11l.03-.03h.03l.08.08h.11l.08-.08.35.13h.03v-.03l-.03-.13c.11-.15.22-.22.35-.22M98.66,58.43l-.11.24h.03l-.06.22.11.08-.03.03v.05h.03s.05-.05.05-.14c.07-.01.11-.06.11-.13l-.08-.14.05-.05c-.02-.11-.05-.16-.08-.16h-.03ZM100.9,55.85h.08l.03.08-.08.06-.05-.06.02-.08ZM101.1,55.2h.03v-.05h-.03v.05Z"/>
        <path class="cls-1" d="M104.71,54.91h.02l.3.05.08-.03v.03l.03-.03h.05c.07,0,.14.03.22.11h.03l.08-.05h.06l.27.05.03-.03v.03l.25-.08c.2.02.37.07.49.16l.3-.08.13.06.17-.03.11.06.14-.03c.12.04.18.09.19.13l.03-.02h.05c0,.07.08.15.25.24l.02.03v.03l-.16.11.05.19-.05.6.08.21-.03.52.06.11-.03.43v.05l.06.27-.06.27c0,.13.1.21.33.24v.35l-.06.08v.05l.06.08v.05c-.2.12-.3.23-.3.33l.05.46-.08.33c.14.07.21.19.21.35l.76.16h.03l.17.19h.05c.07,0,.14-.12.22-.35h.02l.05.16h.19l.03-.03.27.05c.14-.11.28-.16.41-.16l.06-.05h.05c.18.14.27.27.27.38v.27h-.02l-.08-.03v.03c0,.09-.14.2-.43.33l-.02-.03-.47.11h-.05l-.17-.03c-.13.06-.25.08-.37.08-.02-.05-.08-.08-.17-.08l-.21.14-.22-.08-.22.03v-.03l-.3.11-.22-.08c-.05.09-.12.13-.22.13l-.16-.03c-.16.08-.24.14-.24.19h-.06c0-.07-.08-.12-.22-.16l-.13.03h-.08l-.11-.16-.08-.05h-.05c-.17.1-.3.21-.38.33l-.11.03c0-.16-.13-.24-.38-.24h-.02v.03l-.14-.05c-.12.09-.23.14-.32.14,0-.07-.1-.12-.27-.16h-.05l-.03.03h-.03l-.14-.19.03-.13-.03-.22c0-.23.13-.4.38-.49.03-.08.07-.13.11-.14h.08c.11.07.19.11.27.11l.08-.03.08.08.65-.16c0,.09.12.17.37.24.27-.07.41-.18.41-.35l-.05-.16.08-.38-.02-.22v-.03c.08,0,.16-.13.22-.41-.06-.01-.09-.08-.09-.22l.03-.3-.17-.44v-.13l.02-.11-.02-.03v-.03l.19-.52c0-.35-.02-.56-.08-.62l.08-.16v-.16c0-.09-.02-.13-.06-.13l.03-.14c0-.24-.13-.35-.39-.35l-.02.03h-.03l-.21-.05c0,.05-.04.1-.11.13h-.16c0-.1-.05-.17-.16-.22h-.03c0,.08-.03.11-.08.11l-.09-.08c-.13.09-.26.13-.4.13l-.11-.05-.03.03h-.02c-.07,0-.15-.04-.24-.11l-.03.02c-.24,0-.41-.1-.51-.3v-.03l.02-.11-.05-.16c0-.09.08-.21.25-.35M106.93,52.15h.3l.08.05h.05l.16-.03c.06,0,.15.14.27.41.13,0,.2.21.21.63v.03l-.16.44s-.11.11-.24.33l-.05.05c0,.07-.07.11-.22.11v.03l-.03-.03c-.06,0-.17.05-.33.14l-.02-.02v-.03l-.03.03h-.03c-.08,0-.24-.11-.46-.33,0-.06-.07-.12-.21-.19l-.17-.27.03-.16s-.05-.07-.16-.11c0-.07-.02-.11-.06-.11.05-.13.1-.19.16-.19v-.14c0-.07.05-.14.14-.22,0-.05.09-.13.27-.24,0-.09.08-.14.24-.14l.16.06.08-.08ZM106.71,53.45h.05v-.05h-.05v.05ZM106.79,53.51l.16.19h.06l.05-.06c0-.06-.05-.13-.16-.19h-.06l-.05.05Z"/>
        <path class="cls-1" d="M116.84,52.11h.21c.28.13.49.19.6.19l.32.03.11-.03c.04.12.17.22.38.3h.03v.13s.08.09.24.16l.11-.03s.14.17.38.38c0,.04.07.1.22.19l.05.22-.03.11.05.08v.03l-.03.03.03.03v.03c-.08.29-.19.54-.33.73h-.02v-.06h-.03l-.19.14-.35-.03-.08.03s-.08-.08-.24-.11l-.08.03c-.02-.09-.12-.21-.3-.35l-.11-.22.08-.38-.11-.38-.49-.3h-.11l-.11.03-.11-.03h-.06s-.05.03-.05.08h-.08c-.16,0-.26.03-.33.08h-.03l-.22-.05.03-.14h-.05l-.27.3h-.08l-.14-.03s-.05.09-.14.11l-.05-.05-.06.05.06.06c0,.17-.09.39-.25.65l-.02.13c.1.57.15.89.19.93l-.03.08c.07.06.21.1.41.14l.03-.03.13.03h.09l.27-.03s.05.06.14.09c0-.05.1-.1.3-.14.13.04.19.14.19.3,0,.29-.12.43-.35.43l-.06.05h-.03c-.07,0-.2-.06-.41-.19l-.54.14-.16-.03c-.09.04-.12.07-.14.11l.05.22v.13c0,.15-.01.27-.05.35l.03.24v.16c0,.07-.04.15-.14.22l-.05.3s.08.14.24.3l-.05.14c.1.06.18.15.25.27-.13.03-.19.13-.19.3l.03.08c0,.22-.03.32-.11.32v.22l.17.41s-.07.09-.11.27h.06v.14l.05.08v.08l-.03.24c.05.12.12.2.19.24h.05l.25-.11.27.11.54-.22.11.06.03-.03h.03l.24.03.22-.03s.04.06.14.08l.13.32-.02.52c-.15.21-.28.32-.39.32l-.19-.05c-.07.15-.14.22-.24.22l-.06-.16h-.27l-.16-.11-.08.03-.03-.03h-.03l-.08.03-.09-.08h-.05l-.02.03-.11-.05v.03l-.03-.03h-.3c-.07,0-.17.07-.3.22h-.05c0-.07-.02-.11-.05-.11-.04,0-.06.04-.08.13h-.03l-.19-.13c-.13.07-.23.11-.3.11v-.03c0-.05-.05-.11-.16-.16h-.11l-.08.05h-.16l-.11-.03-.09.03-.08-.08-.03.03h-.08l-.14-.03-.16.03h-.11l-.11-.08-.05.06h-.14l-.1-.03-.27.11c-.09-.02-.17-.09-.27-.19-.02.05-.07.08-.16.08v-.03c.02-.24.1-.46.24-.65,0-.19.14-.3.43-.32l.19-.03c0,.05.08.1.25.14l.16-.03c.18.02.34.1.47.24l.13.05c0-.18.05-.27.16-.27.2,0,.33-.1.41-.3l-.08-.19.03-.11-.06-.08.03-.14v-.11l-.03-.13.06-.06c-.07-.42-.13-.62-.16-.62l-.11.05c0-.05-.02-.08-.08-.08l-.03-.03v-.03h.03l.03.03h.03l.08-.06-.03-.03v-.03l.22-.27-.06-.16v-.14c0-.12.11-.22.33-.3l.02-.11c-.11-.02-.16-.05-.16-.08v-.03l.03-.16-.03-.02v-.03l.03-.22-.16-.73v-.02c0-.09.02-.14.05-.14l-.03-.19v-.22c-.04-.09-.11-.13-.2-.13l-.08.02-.08-.08-.18.16h-.06l-.41-.11c-.05.11-.18.24-.41.41v-.06l.03-.16-.3-.27-.11-.27.11-.22c0-.15.04-.24.1-.27h.6s.05.03.05.08h.06c.09,0,.15-.03.18-.08l.22.08.02-.03h.03l.11.03.02-.03v-.03l-.13-.06.02-.08h.16l.11-.3c-.04-.12-.08-.19-.11-.19l-.05.05s-.02-.05-.08-.05v-.06h.13l.11-.11-.03-.14c.09-.56.22-.91.4-1.06l.2-.32c.29-.1.43-.21.43-.3.08-.05.37-.1.88-.16.05-.12.23-.19.51-.19l.17-.06Z"/>
        <path class="cls-1" d="M124.19,55.19l.03.03h.02l.11-.03.13.08.08-.05s.1.13.3.27c0,.07.09.14.27.22l.25-.05c.09.04.26.18.51.41.2.08.3.21.3.38.2.07.29.18.29.32h.05v.03l-.05.22h.03l.08-.03v.03l.11.33-.11.16.05.06-.03.32.05.27c-.16.04-.24.12-.24.24l-.08.05h-.03c-.06,0-.16-.04-.3-.13l-.03.03h-.02l-.17-.06-.03.03c-.03-.07-.05-.11-.08-.11h-.13c-.07.08-.13.13-.19.13,0-.04-.11-.08-.33-.11-.07-.07-.11-.15-.11-.22.05,0,.13-.04.21-.14l.2-.13c.11,0,.16-.03.16-.08l.03.03h.05c.03-.13.07-.19.11-.19l.03.03.08-.35-.08-.19c-.09,0-.15-.12-.16-.35-.11-.17-.17-.33-.19-.49-.04,0-.06-.03-.06-.11-.14-.06-.22-.13-.22-.24h-.13c-.14,0-.21-.05-.21-.14h-.09l-.11-.03-.25.11h-.05l-.11-.05-.08.02v-.02c0-.06-.02-.09-.06-.09l-.14.03-.06-.05s-.07.07-.21.11l.03-.03v-.03l-.3-.08c-.15.17-.3.29-.43.35h-.06v-.05h-.03s-.05.02-.05.08h-.03l-.02-.03-.03.03h-.05l-.1-.08h-.03c-.09.11-.2.16-.32.16,0,.06-.11.15-.33.27l-.03.03c-.06.04-.12.17-.19.38-.13.03-.19.07-.19.13l.03.14-.03.16.08.49-.05.05c.08.11.21.19.38.24,0,.05.04.07.11.08.15-.11.27-.16.35-.16,0,.04.03.05.08.05l.19-.03c.02.07.08.11.16.11,0-.07.05-.11.17-.11h.03l.24.16.79-.16h.03c.08.09.15.13.22.13l.08.11v.05c-.07,0-.11.06-.11.16-.16.02-.31.06-.43.13h-.14l-.11-.05-.08.03-.03-.08-.16.05c-.07-.03-.1-.05-.1-.08l-.14.08h-.05v-.05l-.4.14-.46-.08-.03.03h-.03l-.08-.05-.38.13-.03-.03v.14h-.16l.03.14-.06.05s.08.12.13.35l-.03.03v.03l.22.62v.03h-.05v.06s.09.03.14.08l.02-.03h.03c.1.2.2.31.3.33,0,.04.09.11.27.22l.3.22c.09,0,.13-.02.13-.06.11.03.23.13.33.3h.02c.3-.05.5-.11.6-.19h.07l.11.08h.03s.07-.11.11-.32l.03-.03h.03l.05.06.13-.06.27.03c.05-.15.2-.22.46-.22l.03.02c.22-.27.37-.49.46-.65v-.05l-.08-.08.08-.22v-.11h-.05v-.05h.05l.03.03.03-.03h.25c0-.06.04-.08.11-.08l.06.11.14-.03h.19c.01.07.07.11.16.11l.05.11.06.16v.03l-.06.08c.06.02.08.07.08.16v.03c-.06.21-.11.33-.16.38l.03.03v.03c0,.12-.19.33-.57.65l-.22.11c-.04.16-.15.3-.32.43l-.11-.05-.32.22c-.05,0-.1.03-.14.08l-.22-.08h-.05l-.03.03h-.03l-.06-.06h-.02c0,.06-.09.08-.25.08l-.16.08v-.03l-.19.05-.19-.03-.22.08c0-.08-.15-.14-.46-.16l-.03-.03-.19.03-.11-.03-.14.03c-.13-.13-.24-.19-.35-.19-.06-.14-.14-.21-.25-.21,0-.1-.05-.21-.13-.33l-.14.03c-.1-.18-.18-.27-.25-.27-.03,0-.05-.04-.05-.11h-.11v-.03l.03-.11-.05-.14-.14.03-.02-.03s-.05-.07-.05-.22h-.05c0-.2-.06-.38-.19-.54l.03-.27h-.03s-.06-.08-.08-.25l.03-.08-.05-.22v-.11c0-.09.02-.14.05-.14l-.11-.54h.02l-.05-.16.05-.11-.02-.24.02-.16-.02-.14c.05,0,.11-.12.19-.38.08-.05.13-.13.13-.25.1,0,.17-.04.22-.13h.06l.08.03.02-.03v-.14l-.14.03v-.11c.07-.09.18-.14.3-.14l.19-.14-.03-.08s.05-.05.05-.14l.35-.27.14.03v-.03l.16.08h.02l.14-.11h.03l.14.02c0-.05.02-.08.08-.08l.03-.03v-.03l.02.03h.03l.19-.03.32.08c.16-.04.24-.07.24-.11l.27.05c.08-.06.2-.1.38-.14M120.99,57.93l.13.05c.17,0,.25-.05.25-.16l-.13-.08h-.03c-.15.09-.22.15-.22.19M121.23,57.6h.03v-.05h-.03v.05ZM121.34,56.35h.06v-.03h-.06v.03ZM121.34,57.49v.06l.06.05h.02l-.02-.11h-.06ZM124,60.91v.03l.05.05v-.08h-.05ZM124.65,58.09c.11,0,.18.05.24.16l-.27.08-.08-.06-.19.06v-.08l.22-.14.08-.03ZM124.54,57.87h.05l.06.05v.05l-.03-.03h-.03l-.03.03-.02-.03v-.08Z"/>
        <path class="cls-1" d="M133.26,54.74h.05c.09,0,.17.05.24.16.18,0,.36.11.51.33.05,0,.11.04.19.13.04,0,.12.06.24.19.11,0,.17.08.17.24,0,.13.06.22.19.27l.06.25-.02.22.02.11-.02.08.05.22c0,.1-.05.22-.14.35l-.19-.03h-.02l-.11.11c-.05,0-.11-.07-.17-.22-.13.07-.31.12-.51.13l-.03.03h-.02c-.16-.1-.27-.22-.33-.35l.03-.16-.08-.08c.15-.15.28-.33.41-.54.08,0,.11-.05.11-.16v-.11c-.11-.07-.16-.17-.16-.3l-.38-.05h-.08c-.12-.12-.22-.19-.3-.22v-.05c-.13,0-.19.05-.19.16,0,.04-.1.06-.3.08l-.03-.08h-.05c-.1.25-.24.38-.4.38l-.06.11v.03l.14.11h.03l.27-.19.06.05c0,.07-.07.15-.22.24l-.03-.03h-.08s-.06.06-.11.19c-.06,0-.09.03-.09.11-.05,0-.08.03-.08.08h-.03l-.05-.05v-.08l.05-.19-.03.03h-.02l-.03-.03.03-.03v-.05l-.06-.05v.03l-.03-.03h-.03s-.06.03-.06.08c-.05,0-.08.04-.08.11-.18.02-.27.08-.27.19l.02.08h-.05l-.11-.08c-.13.08-.21.21-.24.38l.03.03h.03l.14-.06.02.03c0-.05.07-.08.19-.08l.11-.05c0-.08.06-.16.19-.22l.09.03c0,.18-.08.27-.22.27-.02.2-.11.3-.25.3-.01.05-.06.1-.13.14h-.03v-.16h-.02l-.08.05-.16-.11h-.03s-.07.05-.08.14l.03.13-.03.03v.03l.03.11h.13l.11-.08h.03l.08.08v.11l-.11.14v.13l.08.33v.11l-.05.11h-.03l-.19-.3v-.06l.11-.14s-.07-.03-.08-.11h-.05s-.1.13-.17.38l.06.19.03-.03h.03c.07,0,.16.08.27.24.07,0,.13.16.16.49l.03.03-.05.3h.05v.03l-.05.08.02.11-.06.16h.03l-.05.27.11.24-.03.03v.33l.05.05.09-.03c.05.15.13.22.24.22l.02.03h.06c0-.07.03-.12.11-.14l.11.03.05-.05.09.03c.05-.06.08-.11.08-.16h.05c.05,0,.16.05.32.16l.09-.03v.03c.06,0,.21.16.46.49.04,0,.1.07.19.22v.03c-.12.13-.2.25-.22.35-.12-.09-.25-.14-.38-.14l-.05-.05-.14.08-.06-.06h-.03l-.21.06-.03-.03h-.03l-.11.05-.22-.11c0,.07-.14.11-.4.14l-.03.03-.02-.03h-.03l-.08.05-.03-.03-.19.03-.13-.03c0,.07-.03.11-.08.11h-.16l-.16-.14-.08-.03v.03l-.03.03-.16-.05-.05.05h-.22l-.19-.03-.13.16-.11-.05-.22.05c0-.05-.14-.11-.4-.16,0,.07-.03.11-.08.11h-.02l-.38-.35c-.07-.17-.11-.35-.14-.57.05-.18.17-.27.36-.27,0,.04.05.05.16.05v.03l.24-.05.35.11c.18-.02.29-.04.32-.08l.03.03h.02l.11-.03.08.03v-.05h.14s.08-.07.11-.22l.11-.03-.06-.17.06-.27-.06-.24.03-.49s-.06-.05-.06-.16l-.03-.03c-.01-.11-.03-.16-.06-.16l.11-.41-.05-.19c.04-.32.09-.52.17-.6v-.05l-.08-.22.03-.43-.03-.08.03-.03v-.03l-.03-.22.16-.54v-.16c-.05,0-.08-.05-.08-.14l-.14-.05-.05.05-.24-.08s-.03.05-.09.05l-.35-.03-.11.08c-.12,0-.19-.05-.19-.16v-.11l-.46.22c-.2-.07-.3-.13-.3-.19l-.08-.22c0-.24.07-.43.19-.57l.27.08h.03l.21-.03c.21.07.49.12.82.13v-.03l.03.03h.03c.08-.06.19-.1.32-.11l.03.03h.03l.02-.03h.03l.19.08.03-.03h.03c.25.19.38.41.38.65l.24.19.03.03v.03c.2-.05.3-.15.3-.3.31-.22.46-.42.46-.6h.05l.03.03h.02l.06-.05h.05c.01.09.04.13.08.13l.03-.03v.06h.02s.06-.04.08-.11l.02-.03h.03l.08.08h.11l.08-.08.35.13h.02v-.03l-.02-.13c.11-.15.22-.22.36-.22M130.49,58.43l-.11.24h.02l-.05.22.11.08-.03.03v.05h.03s.05-.05.05-.14c.07-.01.11-.06.11-.13l-.08-.14.06-.05c-.02-.11-.05-.16-.09-.16h-.02ZM132.74,55.85h.08l.03.08-.08.06-.05-.06.02-.08ZM132.92,55.2h.03v-.05h-.03v.05Z"/>
        <path class="cls-1" d="M136.54,54.91h.03l.3.05.08-.03v.03l.02-.03h.06c.06,0,.14.03.22.11h.03l.09-.05h.05l.27.05.03-.03v.03l.24-.08c.21.02.37.07.49.16l.29-.08.14.06.16-.03.1.06.14-.03c.12.04.18.09.19.13l.03-.02h.05c0,.07.08.15.24.24l.03.03v.03l-.17.11.06.19-.06.6.08.21-.03.52.05.11-.03.43v.05l.05.27-.05.27c0,.13.11.21.33.24v.35l-.06.08v.05l.06.08v.05c-.2.12-.3.23-.3.33l.06.46-.08.33c.14.07.22.19.22.35l.76.16h.03l.16.19h.05c.07,0,.14-.12.21-.35h.03l.05.16h.19l.02-.03.28.05c.14-.11.28-.16.4-.16l.05-.05h.06c.18.14.27.27.27.38v.27h-.03l-.08-.03v.03c0,.09-.14.2-.43.33l-.03-.03-.46.11h-.05l-.17-.03c-.13.06-.25.08-.38.08-.02-.05-.08-.08-.16-.08l-.22.14-.22-.08-.22.03v-.03l-.3.11-.21-.08c-.05.09-.12.13-.22.13l-.16-.03c-.16.08-.24.14-.24.19h-.05c0-.07-.08-.12-.22-.16l-.13.03h-.09l-.11-.16-.08-.05h-.06c-.17.1-.3.21-.38.33l-.11.03c0-.16-.13-.24-.37-.24h-.03v.03l-.14-.05c-.12.09-.23.14-.32.14,0-.07-.1-.12-.27-.16h-.05l-.03.03h-.03l-.14-.19.03-.13-.03-.22c0-.23.13-.4.38-.49.04-.08.08-.13.11-.14h.08c.1.07.2.11.27.11l.08-.03.09.08.65-.16c0,.09.13.17.38.24.26-.07.4-.18.4-.35l-.06-.16.08-.38-.02-.22v-.03c.08,0,.15-.13.22-.41-.06-.01-.08-.08-.08-.22l.03-.3-.16-.44v-.13l.02-.11-.02-.03v-.03l.19-.52c0-.35-.03-.56-.08-.62l.08-.16v-.16c0-.09-.02-.13-.06-.13l.03-.14c0-.24-.13-.35-.38-.35l-.02.03h-.03l-.22-.05c0,.05-.04.1-.11.13h-.16c0-.1-.05-.17-.16-.22h-.03c0,.08-.03.11-.08.11l-.08-.08c-.13.09-.26.13-.41.13l-.11-.05-.03.03h-.02c-.07,0-.15-.04-.25-.11l-.03.02c-.24,0-.41-.1-.51-.3v-.03l.02-.11-.06-.16c0-.09.09-.21.25-.35M138.76,52.15h.3l.08.05h.05l.16-.03c.06,0,.15.14.28.41.13,0,.2.21.22.63v.03l-.17.44s-.1.11-.24.33l-.05.05c0,.07-.07.11-.22.11v.03l-.03-.03c-.06,0-.16.05-.32.14l-.02-.02v-.03l-.03.03h-.03c-.09,0-.24-.11-.46-.33,0-.06-.07-.12-.22-.19l-.16-.27.02-.16s-.05-.07-.16-.11c0-.07-.02-.11-.05-.11.04-.13.1-.19.16-.19v-.14c0-.07.05-.14.14-.22,0-.05.09-.13.27-.24,0-.09.08-.14.24-.14l.16.06.08-.08ZM138.55,53.45h.05v-.05h-.05v.05ZM138.63,53.51l.16.19h.05l.06-.06c0-.06-.06-.13-.16-.19h-.05l-.05.05Z"/>
        <path class="cls-1" d="M144.7,54.97c.05.09.12.14.22.14h.09s.05-.03.05-.08l.03-.03h.06l.16.16h.03l.03-.03.16.13s.06.03.06.08l-.02.08s.05.03.05.08c0,.17-.09.37-.27.6v.03l.08.08c.18-.01.26-.06.26-.13h.16c.07-.04.11-.12.11-.22.09,0,.21-.07.35-.22.11,0,.16-.05.16-.14.11,0,.16-.05.16-.16.14-.13.27-.22.41-.27h.06c.11.13.22.19.33.19l.05-.08c.34.16.53.28.57.35v.11l-.03.03c.13.17.22.34.27.51h.03l.02-.03v.08s.05-.04.05-.11c.08,0,.16-.08.22-.25.03,0,.05-.03.05-.08.24-.07.5-.26.76-.57.17-.1.34-.15.52-.16l.02-.03.22.06.11-.06c.32,0,.49.06.49.19l.08.08-.05.14c.34.25.52.39.52.43,0,.12.02.23.08.35l-.02.03v.03l.06.22s-.09.07-.11.22l.02.02h-.02l.02.08c0,.13-.02.19-.08.19,0,.16.06.32.16.49l.05.24-.19.22c0,.08.04.16.11.24l-.05.22v.11l.03.03-.08.38.05.19-.02.16v.08l.11.3-.03.02v.11c0,.25.04.5.11.73l-.03.11c.45.22.68.41.68.57,0,.31-.08.56-.22.76h-.25l-.19.05-.14-.16c-.14.02-.23.04-.27.08h-.03c-.1-.08-.24-.14-.46-.16l-.02-.03h-.03c-.05.05-.17.09-.35.14-.01-.11-.11-.16-.3-.16,0-.07-.04-.14-.13-.22l-.02-.11.02-.03v-.03l-.02-.08c0-.09.06-.17.19-.24l.16.05.11-.05c0,.07.04.11.08.11h.06c0-.11.06-.16.19-.16l.06-.16-.03-.16c.02-.21.06-.39.13-.57-.05-.02-.08-.08-.08-.22h.03l-.05-.24.02-.03v-.03c-.07-.11-.11-.2-.11-.27.05-.38.1-.57.13-.57-.03-.18-.05-.27-.08-.27l.05-.33c-.05,0-.08-.06-.08-.19.11-.18.16-.3.16-.35l-.05-.43h.03c-.08-.08-.13-.31-.17-.68l-.13-.16.02-.03v-.08h-.05c0-.05-.02-.08-.06-.08h-.05c0,.05-.05.09-.14.11-.01-.05-.1-.1-.27-.14-.22.01-.33.07-.33.16-.06,0-.13.05-.22.14l-.27.05s-.11-.09-.24-.27l-.02-.03h-.04l-.02.03c-.05,0-.08.07-.11.22l-.03.03h-.08v-.06h-.03l-.05.06.14.19.18.03v.05l-.13.11c0,.13-.05.19-.16.19l-.05.13h.02c-.05.16-.1.24-.13.24h-.03v-.03c0-.13.06-.24.17-.35-.04,0-.05-.03-.05-.08-.09,0-.13.21-.13.63l.08.08-.02.03.06.24-.03.14c.1.52.18.79.22.79l.03.16-.11.11.05.14s-.1.07-.19.19v.03c.15.08.22.23.22.43v.03c-.09,0-.13.06-.13.19l.02.14-.08.03v.06l.06.22-.03.16c.07.13.12.21.16.21l.14-.03s.09.08.27.13l.21.38v.08c0,.09-.08.2-.24.32l-.08-.05-.21.14-.21-.19c-.12,0-.21.05-.27.16-.36,0-.65-.12-.84-.38v-.08l.11-.35c.06-.07.14-.12.26-.16l.11-.3-.02-.03.02-.14c0-.27-.04-.52-.13-.76v-.13l.03-.03c.06-.07.09-.14.09-.22l.02-.03-.07-.32.02-.24-.02-.41.05-.16-.03-.16c.05-.04.09-.18.11-.4.04,0,.05-.04.05-.11.08,0,.16-.05.22-.13v-.03h-.05l-.11.08-.06-.14c0-.07.04-.14.11-.19l.14.08.07-.13-.02-.16v-.05h-.13v.05l-.13-.03-.03.03-.05-.16.03-.03v-.03c-.21-.25-.32-.47-.33-.65-.09-.03-.13-.06-.13-.11h-.03c-.1.12-.22.19-.35.19l-.17.03v.03l-.08.08-.03-.03.03-.14-.22-.22h-.14c-.22.29-.39.43-.49.43l-.05.25.05.22v.03c0,.15-.09.31-.27.49l-.11.49h.03c.12,0,.2.09.24.27-.02.15-.05.22-.11.22l-.08-.08v.11l.06.05h.02c0,.06-.02.08-.08.08l-.03.03v.03l.05.3-.03.16.03.3c-.13.19-.19.33-.19.41.07.03.14.17.22.41l-.14.19.06.08-.02.22.21.3c.08.16.14.24.16.24l.08.06.11-.06c.16.12.24.23.24.35l.09.14c0,.14-.11.24-.33.3h-.11l-.08-.05h-.14l-.32.3h-.05l-.06-.05s-.07-.05-.22-.05v-.03c-.06,0-.17.09-.33.27l-.08.03s-.11-.07-.19-.22c-.29-.22-.44-.38-.49-.49,0-.4.08-.6.24-.6l.25-.06s.08.07.24.08l.05-.11-.03-.16.03-.03v-.03l-.03-.03v-.03l.06-.16c-.06-.16-.11-.25-.17-.25l.03-.03v-.14l-.05-.05.11-.38-.11-.44.05-.38-.03-.03v-.03l.08-.54-.06-.16c.02-.11.04-.16.06-.16l-.02-.03v-.16c0-.27.03-.43.11-.49v-.03c0-.09-.03-.14-.08-.14v-.16l-.08-.03.08-.46-.11-.22-.03.03h-.03c-.07-.05-.15-.08-.25-.08l-.13.03-.27-.19-.09-.16c.04-.38.12-.57.28-.57.17,0,.29-.04.38-.11l.16-.05Z"/>
        <path class="cls-1" d="M157.19,55.19l.02.03h.03l.11-.03.13.08.08-.05s.1.13.3.27c0,.07.08.14.26.22l.25-.05c.09.04.27.18.52.41.2.08.3.21.3.38.2.07.3.18.3.32h.05v.03l-.05.22h.02l.08-.03v.03l.11.33-.11.16.05.06-.02.32.05.27c-.16.04-.24.12-.24.24l-.08.05h-.02c-.06,0-.15-.04-.3-.13l-.03.03h-.02l-.17-.06-.03.03c-.03-.07-.06-.11-.08-.11h-.14c-.07.08-.13.13-.18.13,0-.04-.11-.08-.32-.11-.08-.07-.11-.15-.11-.22.05,0,.13-.04.21-.14l.2-.13c.11,0,.16-.03.16-.08l.03.03h.06c.02-.13.06-.19.11-.19l.02.03.08-.35-.08-.19c-.1,0-.15-.12-.17-.35-.1-.17-.16-.33-.18-.49-.04,0-.06-.03-.06-.11-.14-.06-.22-.13-.22-.24h-.14c-.15,0-.22-.05-.22-.14h-.09l-.1-.03-.25.11h-.05l-.11-.05-.08.02v-.02c0-.06-.02-.09-.05-.09l-.14.03-.05-.05s-.07.07-.21.11l.02-.03v-.03l-.3-.08c-.15.17-.3.29-.43.35h-.05v-.05h-.03s-.05.02-.05.08h-.03l-.03-.03-.03.03h-.05l-.11-.08h-.03c-.09.11-.2.16-.32.16,0,.06-.11.15-.33.27l-.03.03c-.06.04-.12.17-.19.38-.13.03-.19.07-.19.13l.02.14-.02.16.08.49-.05.05c.08.11.21.19.38.24,0,.05.03.07.1.08.15-.11.27-.16.35-.16,0,.04.03.05.09.05l.18-.03c.02.07.07.11.16.11,0-.07.05-.11.16-.11h.03l.24.16.79-.16h.02c.09.09.16.13.22.13l.08.11v.05c-.07,0-.11.06-.11.16-.16.02-.31.06-.44.13h-.13l-.11-.05-.08.03-.03-.08-.16.05c-.08-.03-.11-.05-.11-.08l-.14.08h-.05v-.05l-.41.14-.46-.08-.03.03h-.03l-.08-.05-.38.13-.03-.03v.14h-.16l.03.14-.06.05s.08.12.13.35l-.02.03v.03l.21.62v.03h-.05v.06s.1.03.14.08l.02-.03h.03c.1.2.2.31.3.33,0,.04.09.11.27.22l.3.22c.1,0,.13-.02.13-.06.11.03.22.13.33.3h.03c.3-.05.49-.11.59-.19h.08l.11.08h.03s.07-.11.11-.32l.03-.03h.02l.06.06.13-.06.27.03c.05-.15.2-.22.46-.22l.02.02c.22-.27.37-.49.46-.65v-.05l-.08-.08.08-.22v-.11h-.05v-.05h.05l.02.03.04-.03h.24c0-.06.04-.08.11-.08l.05.11.14-.03h.19c.01.07.07.11.17.11l.05.11.05.16v.03l-.05.08c.05.02.08.07.08.16v.03c-.06.21-.11.33-.16.38l.03.03v.03c0,.12-.2.33-.57.65l-.21.11c-.05.16-.16.3-.33.43l-.11-.05-.32.22c-.05,0-.1.03-.13.08l-.22-.08h-.06l-.02.03h-.03l-.05-.06h-.03c0,.06-.09.08-.24.08l-.17.08v-.03l-.19.05-.19-.03-.22.08c0-.08-.15-.14-.46-.16l-.03-.03-.19.03-.11-.03-.14.03c-.13-.13-.24-.19-.35-.19-.05-.14-.14-.21-.24-.21,0-.1-.05-.21-.13-.33l-.14.03c-.1-.18-.18-.27-.24-.27-.03,0-.05-.04-.05-.11h-.11v-.03l.03-.11-.05-.14-.14.03-.03-.03s-.05-.07-.05-.22h-.05c0-.2-.06-.38-.19-.54l.03-.27h-.03s-.06-.08-.08-.25l.03-.08-.06-.22v-.11c0-.09.02-.14.06-.14l-.11-.54h.02l-.06-.16.06-.11-.02-.24.02-.16-.02-.14c.05,0,.12-.12.19-.38.09-.05.13-.13.13-.25.1,0,.17-.04.22-.13h.05l.08.03.03-.03v-.14l-.14.03v-.11c.07-.09.17-.14.3-.14l.19-.14-.02-.08s.05-.05.05-.14l.35-.27.14.03v-.03l.17.08h.02l.14-.11h.03l.14.02c0-.05.03-.08.08-.08l.03-.03v-.03l.03.03h.03l.19-.03.32.08c.16-.04.25-.07.25-.11l.27.05c.08-.06.2-.1.38-.14M153.99,57.93l.14.05c.16,0,.24-.05.24-.16l-.13-.08h-.03c-.15.09-.22.15-.22.19M154.23,57.6h.03v-.05h-.03v.05ZM154.34,56.35h.06v-.03h-.06v.03ZM154.34,57.49v.06l.06.05h.02l-.02-.11h-.06ZM156.99,60.91v.03l.06.05v-.08h-.06ZM157.65,58.09c.11,0,.19.05.25.16l-.28.08-.08-.06-.19.06v-.08l.22-.14.08-.03ZM157.54,57.87h.06l.05.05v.05l-.03-.03h-.02l-.03.03-.03-.03v-.08Z"/>
        <path class="cls-1" d="M162.82,54.71c.02.09.07.14.13.14v.08c0,.06.04.14.11.22l.03-.03h.08l.03.13v.03l-.03.02v.03l.03-.03h.05s.2.08.46.24l-.03.24.03.03h.06c.13,0,.23-.06.3-.19.11-.07.2-.18.24-.3h.02l.06.06.35-.19h.02l.11.03c.18-.17.34-.25.46-.25h.05l.03-.08.03.02h.03l.08-.02.08.02.02-.02.19.13.52-.08h.06c0,.07.15.2.45.38.02.07.07.11.17.11h.11l.07.3-.05.05.03.16-.03.08.05.11-.02.14.13.13-.05.08.17.38-.03.11.05.16c-.07,0-.14.1-.19.3l.17.27c-.03.3-.08.51-.14.63-.04.14-.1.22-.2.22l-.05.14v.11c.12.23.23.35.32.38l.11-.13h.03v-.05l-.06-.22c.08-.17.11-.33.11-.48v-.08l-.05-.05.05-.16-.03-.03v-.03s.1-.05.19-.05l.03-.08h.05v.22l-.03.03c0,.05.03.08.08.08v.08l.03.11-.03.11v.06l.05.08v.25l-.03.11.13.27h-.03c-.09,0-.13.02-.13.06l.03.21-.03.11.05.33-.03.11v.08c.05.07.08.13.08.19v.08l-.03.24c0,.18.1.27.3.27v.05l.2-.03.08.19c-.04.05-.05.13-.05.22h-.02l-.03-.03h-.03c-.06.18-.12.27-.17.27l-.08-.03c0,.06-.13.13-.38.19l-.08.13-.08-.02-.19.08h-.03c-.12,0-.21-.04-.28-.11l-.02.03h-.02l-.03-.03h-.03l-.08.03-.19-.11-.21.03-.03-.03h-.03l-.11.05-.03-.03h-.02l-.17.05h-.03l-.3-.22v-.03l-.14.03h-.05c0-.09.02-.14.08-.14v-.05l-.06-.22.22-.27c.08,0,.2-.04.35-.13l.16.02s.09-.09.25-.19c0-.04.05-.1.16-.16l.02.03h.03s.06-.03.06-.08l-.06-.11.06-.16s-.06-.03-.06-.08l.08-.19c0-.09-.02-.14-.06-.14l.06-.22-.02-.08.02-.03h.16v-.08l-.02-.08h.05v-.08c-.14-.04-.21-.09-.21-.16l.02-.14-.02-.25.02-.14-.08-.16.06-.08-.06-.41.06-.11-.03-.22c.04-.06.08-.18.11-.38h-.03l-.09.03-.03-.03v-.03l.06-.05-.03-.03v-.02s.04-.07.11-.08v-.02l-.22-.41.02-.19c-.04-.14-.12-.24-.24-.3,0-.11-.1-.19-.28-.24l-.08.08s-.13-.05-.3-.05l-.26-.14c-.16.13-.25.21-.25.27,0,.11-.03.16-.08.16l-.16-.03s-.16.13-.39.38h-.02l-.13-.03v-.05l.05-.16h-.02l.02-.03v-.03l-.1-.08c0,.05-.04.08-.14.08l-.05-.05c-.21.3-.34.46-.41.49l-.08.14.03.03-.05.11c0,.07.05.11.16.11l.03.08c0,.1-.06.18-.19.25l-.08.19v.08h.05v.11l-.11.38c.07.03.11.09.11.19v.05l-.03.03.08.14v.05l-.05.33.05.16-.03.11.05.49c-.05,0-.09.22-.11.65l.17.49-.03.19h.03l.16.11.03-.03h.02l.09.03v-.03l.08-.11h.03c0,.07.07.11.19.11l.1-.02.06.08.03-.03h.02c.15,0,.22.05.22.16l.13-.03c.09.14.14.27.14.38-.01.07-.12.14-.32.22l-.08-.03v.03l-.2-.08-.16.08-.08-.03-.05.05-.14-.03s-.09.07-.27.08l-.06-.05h-.08l-.09.05-.27-.11v.03l-.03.11h-.05l-.02-.03-.19.14h-.03c-.06,0-.08-.06-.08-.19l-.41-.08-.02.08-.14-.03-.16.05c-.02-.05-.07-.08-.17-.08h-.19c-.05-.05-.17-.1-.35-.13v-.05h-.03l-.11.05-.18-.03-.09.08h-.13l-.06-.24c.05-.18.11-.27.19-.27l.09.02v-.02c0-.08.08-.17.24-.27v-.14l.05-.06h.03l.02.03h.03l.05-.06c.07.06.19.08.38.08.18-.09.33-.14.43-.14v-.14c0-.09.03-.14.09-.14l-.03-.22.03-.03v-.03l-.05-.13.02-.19-.06-.11.06-.19-.06-.08.06-.16-.02-.16.05-.06v-.19l.05-.22v-.35l-.11-.16v-.03l.13-.33h-.03c-.09,0-.14-.03-.14-.08l.03-.03c0-.05-.04-.08-.11-.08l-.03-.03v-.11c.08-.07.14-.12.14-.16l-.11-.16v-.02c.11-.09.2-.32.3-.71l-.03-.16s.07-.08.08-.24h-.03l-.03-.03-.08-.05c-.15,0-.28.05-.38.14h-.11c-.09,0-.2-.04-.32-.14-.04,0-.06-.03-.06-.08l-.03-.03h-.03l-.08.05-.2-.13v-.08h.06v-.05l-.16-.14-.08.11-.09-.03v-.08l.06-.22v-.08l.33-.19h.11v.06h.19l.11-.08.03.03.02-.03h.14l.14.03.05-.05c.02.07.11.11.25.11,0-.1.06-.15.19-.16M162.49,61.44v.08l.09-.05-.03-.08-.05.05ZM162.74,57.61h.03v-.06h-.03v.06ZM163.44,56.99s-.02.05-.08.05l-.03.14h.03l-.03.03v.05l.11.14v.02c-.14.1-.21.19-.21.27l-.11.05.06.19-.03.19c.05.11.08.23.08.38,0,.05-.03.08-.08.08v.27l-.03.03.08.33-.05.08.11.19s.05-.03.05-.08l-.03-.08s.05-.05.05-.14l.03-.03h.02l.03.03.02-.08-.05-.11.09-.22-.05-.08.05-.14c-.04-.11-.07-.16-.11-.16l.06-.08-.03-.41h.03l.13-.03.08.03.08-.3c-.09-.1-.14-.19-.14-.27l.03-.03h.03l.03.03h.03l.03-.03v-.03c-.07,0-.11-.04-.11-.14-.06-.11-.11-.16-.13-.16h-.03ZM163.39,60.06c0,.07-.02.11-.05.11-.03,0-.05-.03-.05-.08h-.06v.06l.19.24.05-.05-.05-.19.02.03h.03v-.08l-.09-.03ZM163.31,60.03h.05v-.03h-.05v.03ZM163.58,56.99h.06v-.05h-.06v.05ZM164.34,56.53h.06l.03.08c0,.12-.1.21-.3.27l-.02-.02c.04-.2.11-.3.22-.3l.02-.03ZM167.29,59.57l.03.08-.03.16.05.16v.05l-.08.11v.03l.05.05.02-.02h.04v.13l.02-.03s.08-.05.14-.05l.03-.11-.11-.35.02-.11-.05-.11.05-.14-.02-.03h-.06s-.07.05-.11.16M167.35,59.38h.03v-.05h-.03v.05ZM167.51,55.88s.09.1.16.3c-.03.11-.07.17-.1.17h-.05v-.03l.03-.14s-.07-.06-.08-.19h-.03c.03-.07.05-.11.08-.11M167.46,60.3v.03l.05.05v-.08h-.05ZM167.65,56.34l.06.05-.03.16c.06,0,.12.09.17.27-.01.11-.03.16-.05.16l.05.22v.19c0,.21-.04.32-.11.32-.05-.01-.08-.08-.08-.22l.06-.22-.03-.11.03-.11h-.03l.03-.03v-.03c-.01-.07-.06-.12-.14-.16v-.11c.06-.15.08-.28.08-.4M167.59,60.57v.11l.05.05.02-.02v-.05l-.08-.08ZM168.57,61.33s.09.05.13.16c-.03.13-.07.19-.11.19-.05,0-.09-.07-.11-.22v-.03l.08-.11Z"/>
        <path class="cls-1" d="M169.76,55.49h.06v.05l-.06-.05ZM172.39,52.7l.16.03v-.03c.11,0,.25.33.39,1l-.08.11.14.56c0,.05-.03.08-.09.08l-.03.03v.03l.05.11-.03.03v.03l.26.41h.02l.08-.05.04.03h.03v-.03l.03.03h.03l.11-.03c0,.09.05.17.17.25h.11c0-.07.04-.12.14-.14v.03c.16-.13.36-.2.58-.22,0-.04.08-.06.25-.06l.13.17c.12-.05.38-.11.78-.17v.17h.13c.06.02.09.07.09.16v.28l.06.08v.06c-.1,0-.23.11-.39.33-.06,0-.08-.04-.08-.11h-.03l-.22.22s-.08-.06-.11-.17l-.03.03h-.22l-.03-.14-.33.11-.05-.05-.11.02-.2-.02-.06.05c-.05-.05-.17-.1-.36-.14-.08-.13-.13-.2-.17-.2l-.21.14h-.08l-.08-.05c-.12.08-.23.23-.34.44.02.17.04.25.06.25l-.03.03v.38s.09.18.11.41c-.07.14-.11.25-.11.33l.03.03-.03.14v.16s.03.05.08.05v.09c0,.13.03.19.06.19l-.03.14v.14l.2.11v.05c-.04.11-.11.18-.23.22v.05s.06.09.17.11l.02.14v.11c-.03.1-.08.14-.17.14v.03l.03.11-.03.11.09.2v.03l-.09.11v.03c0,.08.05.14.14.19v.03l-.03.19.14.24-.03.04.03.02h-.03c0,.09.12.19.36.31l.28-.06.22.11c.06,0,.09-.03.09-.09h.08c.24,0,.36-.09.36-.27.07,0,.12-.14.17-.42.03,0,.07-.06.11-.19l-.03-.11.05-.17-.05-.06v-.19l.05-.22v-.08l-.17.02-.08-.02v-.03c.05,0,.2-.13.45-.41l.11-.08.08.03v-.03c0-.07.06-.2.17-.39v-.05h.14l.03-.03c.2.03.3.07.3.11.08.18.17.34.25.47v.05l-.13.14v.24l.06.17c-.1.12-.18.33-.23.64-.08.14-.12.3-.14.47-.1.17-.19.25-.28.25l-.03.14v.09l-.14.05h-.02l.02-.03v-.05s-.08-.03-.08-.09c-.05,0-.08-.02-.08-.08h-.03c-.05.13-.08.27-.08.41h.03l.08.03v.06l-.05.05h-.06v-.05c-.06.05-.12.08-.19.08-.03.22-.13.33-.31.33l-.09.08c-.18,0-.27-.03-.27-.05,0-.06-.1-.13-.25-.22,0,.13-.12.21-.36.22l-.03-.03h-.03l-.11.03c-.02-.11-.05-.17-.09-.17h-.02v.09h-.08c-.08-.18-.12-.28-.17-.28l-.03.03h-.03l-.11-.03-.16.05-.06-.14-.02.03h-.03c-.07-.06-.18-.1-.33-.12-.13-.35-.22-.52-.28-.52l.04-.09-.17-.72c.07-.03.11-.05.11-.08v-.03c-.05-.08-.11-.29-.19-.64,0-.13.05-.34.16-.61l-.02-.55h.05v-.06c-.06-.09-.11-.24-.16-.44.07-.14.11-.25.11-.34l-.06-.05v-.05l.03-.17-.03-.11h.03c-.03-.09-.08-.2-.17-.31l.06-.13c-.13-.09-.2-.18-.2-.28v-.2l.03-.03v-.02h-.05v.05h-.02c0-.07-.04-.11-.11-.11-.04-.07-.1-.11-.2-.11h-.03l-.19.19-.09.03-.05-.11-.42.11-.3-.16-.03-.14h-.03l-.11.08h-.03s-.07-.05-.08-.15l.03-.02h.05v.05h.03c0-.2.11-.3.33-.3l.04-.2h.08c.09,0,.16-.05.22-.14l.17-.09c0,.05.15.1.46.14v-.03l.36.16.04.03v.02c.05-.01.08-.05.11-.11h.05v-.03s-.03-.05-.08-.05v-.19l.03-.03-.03-.08.03-.08-.03.03h-.03l-.03-.03.16-.5c.06-.01.1-.05.11-.11.06,0,.13.06.2.19l-.05.28c0,.26.08.39.25.39v-.03l-.03-.13c.07,0,.12-.25.17-.75l-.05-.31.03-.03v-.05l-.19-.33c.06-.35.12-.53.17-.53M171.91,53.03h.06l.05.86-.09.06h-.02c-.15-.14-.22-.37-.22-.72l.22-.2ZM171.94,55.22h.09l.05-.14-.02-.03c-.05,0-.09.06-.12.16M171.94,60.97h.04l.05.06h-.03l-.06-.06ZM172.11,56.82l.09.2c-.04.16-.08.24-.14.24v.09l.05.08-.03.16.06.09v.05c0,.09-.06.19-.16.28.07.12.15.19.24.19v.05l-.08.25.03.03v.12l-.06.22.11.11v.03l-.03.11.03.08c.13-.14.19-.38.19-.72l-.08-.28c.09-.17.14-.29.14-.39v-.16h-.06l-.05-.09.03-.19v-.03l-.05-.42h.03l.05-.08-.17-.39.06-.08-.03-.11c-.08,0-.13.18-.17.55M172.22,59.37l-.03.08-.03-.03h-.06c.01.11.04.17.09.17h.03l.06-.06v-.11l-.06-.05ZM172.28,59.87l-.06.08v.03h.06l-.08.08c0,.09.01.14.05.14l-.02.03v.05l.22.22c.07-.08.11-.15.11-.22l-.11-.14v-.08l.03-.03c0-.05-.07-.11-.19-.17M172.24,55.02l.04.03h.03v-.08l-.06.05ZM172.91,58.62h.06v-.05h-.06v.05ZM174.96,60.87v.02h.06v-.08l-.06.06ZM175.15,59.42v.08l.06.06.02-.11-.02-.03h-.06Z"/>
        <path class="cls-1" d="M179.79,54.59c.1.09.29.17.56.24.04,0,.06-.05.06-.13l.25.05c.02-.07.05-.11.08-.11.15.13.32.21.49.24l.08.05c.06,0,.09-.05.09-.16l.11-.03.11.32h.02l.03-.03c.38.1.57.22.57.35.04.07.14.12.3.16l.05.14-.02.22c.07.25.22.38.43.38l.03.03v.03l-.06.11.11.25h-.03l.22.4c0,.21.06.35.19.44v.05h.03l-.03.02v.05l.08.14-.13.57.13.38-.05.22v.3l-.03.02.03.08c0,.12-.07.23-.22.33-.02.14-.07.24-.16.3,0,.1-.07.19-.22.27,0,.04-.08.11-.24.19l-.16.57h-.13c-.06.07-.23.16-.49.27,0,.09-.09.18-.27.25,0,.04-.08.09-.24.13l-.16-.02h-.14c-.03.06-.2.11-.51.13l-.08.05-.14-.03-.13.03c0-.06-.1-.11-.3-.13l-.11.02-.14-.05-.19.03c-.14-.24-.27-.35-.38-.35,0-.05-.04-.09-.14-.14l-.21.06c-.04-.13-.08-.19-.11-.19v.03c-.09-.03-.17-.09-.24-.19-.08,0-.14-.06-.19-.19-.14-.13-.29-.19-.46-.19l-.05-.06.02-.16c-.05-.08-.12-.26-.18-.54-.18-.15-.27-.37-.27-.65l-.17-.14.03-.08-.03-.03v-.03l.12-.43-.12-.43v-.03l.03-.14-.03-.16v-.02l.28-.36-.03-.02v-.03l.06-.14-.02-.03v-.03c0-.16.08-.28.24-.38l.05-.11.03.03h.02c.15-.03.22-.07.22-.11-.05-.08-.08-.16-.08-.25l.16-.22-.02-.16v-.03c.12,0,.19-.04.19-.13.15,0,.22-.09.22-.27.07,0,.11-.04.11-.11h.11c.09,0,.16-.06.22-.19l.11-.05.12.08.21-.13.05-.16-.03-.08.16-.16h.09c.02.11.04.16.08.16l.22-.19ZM177.23,60.07h.06l.06.05-.06.06h-.06v-.11ZM179.87,55.92h-.06s-.08-.08-.24-.11c0,.06-.04.08-.11.08,0,.11-.02.16-.06.16l.03.14-.03.11h-.02c-.17-.16-.28-.24-.33-.24l-.16-.05c-.09.22-.22.33-.38.33-.08.09-.16.15-.24.16-.13.16-.19.28-.19.38l.03.22s-.05.11-.16.19l-.06.16.03.19-.14.57v.49c.1.09.14.21.14.35-.08.02-.11.05-.11.11l.05.16-.03.03c.15.17.23.3.24.41,0,.03.09.12.27.24.03.11.17.26.4.46,0,.13.11.21.33.24,0,.05.15.1.46.14,0,.11.06.16.16.16v-.03c0-.05.04-.08.11-.08l.06.16h.02c.08-.07.15-.11.22-.11l.02.08h.09l.3-.11.03-.02h.16l.16-.03.14.03h.02c.12-.07.26-.2.44-.38.07,0,.14-.07.19-.22.2-.02.3-.06.3-.11.07,0,.13-.12.19-.35l.03-.03v-.08s-.03-.05-.08-.05l-.03-.03v-.06c.1,0,.26-.15.49-.46l.27-.73s-.07-.12-.08-.35l-.11-.41-.16-.27s-.06-.17-.11-.52c-.18-.11-.29-.21-.32-.3-.17-.04-.3-.15-.41-.33-.08,0-.13-.04-.13-.14l-.17-.14v.03l-.21-.05s-.08.07-.24.11c-.06-.22-.18-.32-.35-.32h-.08l-.11.03-.16-.05h-.03c-.06.09-.14.17-.27.24M178.89,56.06l.05.05h-.05v-.05Z"/>
      </g>
      <path class="cls-1" d="M249.57,59.26h-2.08l-.21.52h.21c.21,0,.35.04.44.12s.13.18.13.31-.04.23-.13.31c-.09.08-.23.12-.44.12h-1.15c-.21,0-.35-.04-.44-.12-.09-.08-.13-.18-.13-.31s.05-.23.14-.31c.09-.08.24-.12.46-.11l1.34-3.35h-.56c-.21,0-.35-.04-.44-.12-.09-.08-.13-.18-.13-.31s.04-.23.13-.31c.09-.08.23-.12.44-.12h1.85s1.7,4.21,1.7,4.21c.2,0,.33.02.4.07.13.09.19.21.19.36,0,.13-.04.23-.13.31-.09.08-.23.12-.44.12h-1.15c-.21,0-.35-.04-.44-.12-.09-.08-.13-.18-.13-.31s.04-.23.13-.31c.09-.08.23-.12.44-.12h.21l-.2-.52ZM249.21,58.4l-.69-1.7-.69,1.7h1.38Z"/>
      <path class="cls-1" d="M254.27,60.75l-.03.04c.29,0,.57.06.83.18.11.05.19.08.26.08.1,0,.22-.05.37-.14.14-.09.26-.14.34-.14.12,0,.22.04.3.12s.12.18.12.31c0,.15-.08.28-.23.38-.3.22-.61.33-.91.33-.16,0-.31-.03-.47-.09-.26-.1-.46-.15-.61-.15-.24,0-.61.06-1.11.19-.1.03-.18.04-.24.04-.11,0-.2-.04-.29-.13s-.12-.19-.12-.32c0-.11.06-.22.17-.33l.55-.53c-.45-.19-.82-.51-1.1-.95-.29-.44-.43-.95-.43-1.52,0-.83.29-1.51.86-2.03.46-.42.97-.63,1.54-.63s1.09.21,1.55.63c.57.52.86,1.2.86,2.03,0,.71-.22,1.32-.65,1.81-.43.5-.95.77-1.55.83ZM255.62,58.1c0-.52-.16-.95-.47-1.29-.31-.34-.67-.51-1.07-.51s-.75.17-1.07.51-.47.77-.47,1.29.16.95.47,1.29.67.51,1.07.51.76-.17,1.07-.51c.31-.34.47-.77.47-1.29Z"/>
    </g>
  </g>
</svg>