<?xml version="1.0" encoding="UTF-8"?>
<svg id="Livello_2" data-name="Livello 2" xmlns="http://www.w3.org/2000/svg" viewBox="0 0 215.83 131.13">
  <defs>
    <style>
      .cls-1 {
        fill: #515151;
      }
    </style>
  </defs>
  <g id="Livello_1-2" data-name="Livello 1">
    <g>
      <path class="cls-1" d="M44.47,61.85c0-1.81-.88-3.35-2.63-4.62-1.76-1.27-3.87-1.91-6.35-1.91-1.01,0-1.98.11-2.91.34-.93.23-1.77.55-2.52.99-.75-.43-1.59-.76-2.52-.99-.93-.23-1.9-.34-2.91-.34-2.48,0-4.59.64-6.35,1.91-1.76,1.27-2.63,2.81-2.63,4.62v15.02h-1.1v2.07h8.08v-19.45c.06-.58.27-1.11.61-1.58.34-.47.81-.71,1.39-.71s1.05.24,1.41.71c.36.47.57,1,.63,1.58v19.45h6.78v-19.45c.06-.58.27-1.11.63-1.58.36-.47.82-.71,1.41-.71s1.04.24,1.39.71c.34.47.55,1,.61,1.58v19.45h8.08v-2.07h-1.1v-15.02Z"/>
      <path class="cls-1" d="M66.89,76.88h-1.13v-15.02c0-1.81-.87-3.35-2.62-4.62-1.74-1.27-3.87-1.91-6.36-1.91s-4.59.64-6.33,1.91c-1.74,1.27-2.62,2.81-2.62,4.62v6.75h-1.1v1.97h1.1v6.3h-1.13v2.07h8.08v-8.37h4.04v8.37h8.08v-2.07ZM58.81,59.63v8.98h-4.04v-9.11c.06-.58.27-1.11.61-1.58.34-.47.81-.71,1.39-.71s1.05.24,1.41.71c.36.47.57,1,.63,1.58v.13Z"/>
      <path class="cls-1" d="M82.62,76.94c-.32.09-.63.15-.92.18-.29.03-.58.05-.86.05-1.87.02-3.18-.68-3.92-2.12-.74-1.43-1.2-3.01-1.37-4.73-.06-.56-.1-1.11-.11-1.65-.01-.54-.02-1.05-.02-1.55.02-.5.05-1.14.1-1.92.04-.79.14-1.6.29-2.44.19-1.31.54-2.52,1.03-3.62.5-1.1,1.21-1.65,2.13-1.65h.16s.04.03.06.03h.06l.48,1.55h2.94v-3.33c-.54-.11-1.1-.18-1.68-.23-.58-.04-1.21-.06-1.87-.06-3.83,0-6.65,1.04-8.45,3.12-1.8,2.08-2.69,4.86-2.66,8.35.02,3.81.87,6.79,2.54,8.93,1.67,2.14,4.53,3.21,8.58,3.21.65,0,1.26-.03,1.84-.08.58-.05,1.13-.12,1.65-.21v-1.84Z"/>
      <path class="cls-1" d="M84.4,73.84c0,1.4.51,2.6,1.52,3.6,1.01,1,2.21,1.5,3.59,1.5h9.56v-3.36h-2.58l-.39,1.39h-2.75c-.54,0-1.01-.2-1.41-.6-.4-.4-.6-.88-.6-1.44v-4.36h5.33v-1.91h-5.33v-9.04c0-.56.2-1.04.6-1.44.4-.4.87-.6,1.41-.6h2.26l.39,1.39h2.58v-3.36h-9.08c-1.38,0-2.57.5-3.59,1.5-1.01,1-1.52,2.2-1.52,3.6v7.95h-1.16v1.91h1.16v3.26Z"/>
      <polygon class="cls-1" points="100 76.88 100 78.94 116.09 78.94 116.09 73.26 113.15 73.26 112.18 76.88 108.07 76.88 108.07 57.69 109.04 57.69 109.04 55.62 100 55.62 100 57.69 101.1 57.69 101.1 76.88 100 76.88"/>
      <polygon class="cls-1" points="133.33 73.26 130.4 73.26 129.43 76.88 125.32 76.88 125.32 57.69 126.29 57.69 126.29 55.62 117.25 55.62 117.25 57.69 118.35 57.69 118.35 76.88 117.25 76.88 117.25 78.94 133.33 78.94 133.33 73.26"/>
      <path class="cls-1" d="M137.24,77.44c1.01,1,2.21,1.5,3.59,1.5h9.56v-3.36h-2.58l-.39,1.39h-2.75c-.54,0-1.01-.2-1.41-.6-.4-.4-.6-.88-.6-1.44v-4.36h5.33v-1.91h-5.33v-9.04c0-.56.2-1.04.6-1.44.4-.4.87-.6,1.41-.6h2.26l.39,1.39h2.58v-3.36h-9.08c-1.38,0-2.57.5-3.59,1.5-1.01,1-1.52,2.2-1.52,3.6v7.95h-1.16v1.91h1.16v3.26c0,1.4.51,2.6,1.52,3.6Z"/>
      <path class="cls-1" d="M167.53,73.23c-.7-1.12-1.65-2.07-2.86-2.87,1.51-.84,2.72-1.87,3.65-3.11.93-1.24,1.39-2.54,1.39-3.92,0-2.18-1.06-4.02-3.17-5.5-2.11-1.48-4.64-2.22-7.59-2.22h-7.62v2.07h1.13v19.19h-1.13v2.07h8.08v-6.46c1.05.54,1.89,1.36,2.52,2.45.62,1.1,1.07,2.43,1.32,4.01h7.01v-2.07h-1.1c-.39-1.31-.93-2.52-1.63-3.64ZM162.39,63.66c-.03.39-.1.8-.21,1.23-.26,1.21-.64,2.28-1.15,3.21-.51.94-1.05,1.63-1.63,2.08v-12.34s.08,0,.11-.02c.03-.01.07-.02.11-.02.04-.02.08-.03.11-.03h.11c.06,0,.13,0,.19.02.06.01.13.03.19.05.65.19,1.17.72,1.58,1.57.41.85.61,1.89.61,3.12,0,.37-.02.74-.05,1.13Z"/>
      <polygon class="cls-1" points="170.93 57.69 172.03 57.69 172.03 76.88 170.93 76.88 170.93 78.94 179.98 78.94 179.98 76.88 179.01 76.88 179.01 57.69 179.98 57.69 179.98 55.62 170.93 55.62 170.93 57.69"/>
      <path class="cls-1" d="M200.14,61.85c0-1.81-.87-3.35-2.62-4.62-1.74-1.27-3.87-1.91-6.36-1.91s-4.59.64-6.33,1.91c-1.74,1.27-2.62,2.81-2.62,4.62v6.75h-1.1v1.97h1.1v6.3h-1.13v2.07h8.08v-8.37h4.04v8.37h8.08v-2.07h-1.13v-15.02ZM193.19,59.63v8.98h-4.04v-9.11c.06-.58.27-1.11.61-1.58.34-.47.81-.71,1.39-.71s1.05.24,1.41.71c.36.47.56,1,.63,1.58v.13Z"/>
      <path class="cls-1" d="M62.59,45.37c.17.75.61,1.32,1.3,1.72.69.39,1.48.6,2.37.61.1,0,.2,0,.31,0,.11,0,.21,0,.31,0l1.05-.69v.66h4.1v-1.11h-.67v-4.61c0-1.25-.47-2.13-1.41-2.65-.94-.52-1.97-.79-3.11-.82h-.21c-.46,0-.92.03-1.37.09-.45.06-.86.15-1.24.26v1.54h1.72l.24-.69c.06-.01.12-.02.19-.02h.17c.47,0,.81.11,1.01.32.2.21.3.58.3,1.11-.25.01-.51.04-.79.07-.28.04-.55.09-.82.17-.89.22-1.7.61-2.44,1.16-.74.55-1.11,1.28-1.11,2.19,0,.11,0,.23.02.35.01.12.03.24.06.37ZM66.17,44.48c.01-.17.04-.34.07-.52.09-.49.26-.88.52-1.19.26-.31.56-.5.91-.59v3.52c-.07.19-.17.33-.27.43-.11.1-.22.16-.33.19-.01,0-.03,0-.05,0-.02,0-.04,0-.07,0h-.03s-.02,0-.03-.02h-.06c-.24-.06-.41-.22-.52-.46-.11-.24-.17-.55-.17-.91,0-.15,0-.31.02-.48Z"/>
      <polygon class="cls-1" points="73.41 47.63 77.81 47.63 77.81 46.53 77.14 46.53 77.14 34.1 72.75 34.1 72.75 35.3 73.41 35.3 73.41 47.63"/>
      <polygon class="cls-1" points="78.77 47.63 83.17 47.63 83.17 46.53 82.5 46.53 82.5 38.58 78.11 38.58 78.11 39.78 78.77 39.78 78.77 47.63"/>
      <path class="cls-1" d="M79.24,36.79c.4.32.88.48,1.44.48s1.04-.16,1.44-.48c.4-.32.6-.7.6-1.15s-.2-.83-.6-1.15c-.4-.32-.88-.48-1.44-.48s-1.04.16-1.44.48c-.4.32-.6.7-.6,1.15s.2.83.6,1.15Z"/>
      <path class="cls-1" d="M83.79,38.58v1.2h.64v6.65h-.64v1.2h4.39v-6.64c0-.29.08-.54.25-.76.17-.22.41-.33.72-.33.27,0,.51.09.69.28.19.19.28.42.28.69v6.75h3.79v-6.64c0-.29.09-.54.27-.76.18-.22.42-.33.7-.33s.54.09.72.28c.18.19.27.42.27.69v6.75h4.4v-1.11h-.67v-4.5c0-1.07-.43-1.91-1.3-2.52-.87-.61-2.01-.91-3.42-.91-.6,0-1.12.03-1.55.1-.43.07-.79.21-1.08.42-.26-.16-.55-.29-.86-.38-.31-.09-.63-.14-.96-.14-.44,0-.85.08-1.24.23-.39.16-.73.37-1.03.65v-.9h-4.39Z"/>
      <path class="cls-1" d="M102.53,46.59c1.06.74,2.44,1.12,4.14,1.12.32,0,.64-.02.96-.05.31-.03.61-.08.9-.16v-1.07c-.16.05-.34.09-.53.11-.19.03-.39.04-.59.04h-.13c-.5-.01-.97-.13-1.41-.36-.44-.23-.71-.61-.81-1.14.11-.03.22-.05.33-.07.11-.02.21-.04.31-.07.05,0,.1,0,.15-.02.05-.01.11-.02.17-.04.15-.02.3-.06.46-.09.16-.04.32-.08.48-.11,1.04-.25,1.82-.67,2.35-1.27.53-.6.8-1.24.82-1.91,0-.16-.01-.32-.04-.47-.02-.15-.07-.3-.13-.45-.21-.6-.59-1.06-1.13-1.39-.54-.32-1.12-.54-1.73-.66-.2-.04-.4-.07-.59-.08-.19-.02-.38-.03-.57-.03-1.65,0-2.89.42-3.73,1.26-.84.84-1.26,1.97-1.26,3.39,0,1.6.53,2.77,1.59,3.51ZM104.84,41.18c.04-.41.12-.78.26-1.13.06-.15.14-.26.22-.34.09-.07.18-.12.28-.13.01-.01.03-.02.06-.02h.11c.21.03.38.21.51.54.12.34.19.74.19,1.2v.14s0,.08-.02.12c0,.05,0,.1,0,.14,0,.04,0,.09,0,.14,0,.03,0,.05,0,.07,0,.02,0,.03,0,.05-.06.46-.22.89-.46,1.27-.24.39-.62.61-1.12.66,0-.05,0-.12,0-.22,0-.09-.02-.2-.03-.31v-.19c-.01-.14-.02-.27-.03-.41,0-.14,0-.23,0-.28.01-.46.04-.9.07-1.3Z"/>
      <path class="cls-1" d="M110.86,38.58v1.2h.64v6.65h-.64v1.2h4.37v-6.64c0-.29.09-.54.26-.76.18-.22.42-.33.73-.33.27,0,.51.09.69.28.19.19.28.42.28.69v6.75h4.42v-1.11h-.67v-4.5c0-.94-.34-1.74-1.01-2.42-.67-.67-1.48-1.01-2.42-1.01-.44,0-.85.08-1.24.23-.39.16-.74.37-1.05.65v-.9h-4.37Z"/>
      <path class="cls-1" d="M125.16,35.88c-.09.72-.38,1.34-.86,1.85-.49.51-1.06.76-1.71.76h-.21v1.14h.69v4.67c0,1.14.41,1.98,1.23,2.52.82.54,1.8.82,2.95.82h1.84v-1.12h-.58c-.46,0-.86-.09-1.2-.28-.34-.19-.51-.51-.51-.97v-5.62h2.04v-1.14h-2.04v-2.61h-1.65Z"/>
      <path class="cls-1" d="M131.19,40.34h1.72l.24-.69c.06-.01.13-.02.19-.02h.17c.47,0,.81.11,1.01.32.2.21.3.58.3,1.11-.25.01-.51.04-.79.07-.27.04-.55.09-.82.17-.89.22-1.7.61-2.44,1.16-.74.55-1.11,1.28-1.11,2.19,0,.11,0,.23.02.35.01.12.03.24.06.37.17.75.61,1.32,1.3,1.72.69.39,1.48.6,2.37.61.1,0,.2,0,.31,0,.11,0,.21,0,.31,0l1.05-.69v.66h4.1v-1.11h-.67v-4.61c0-1.25-.47-2.13-1.4-2.65-.94-.52-1.98-.79-3.11-.82h-.21c-.46,0-.92.03-1.37.09-.45.06-.86.15-1.24.26v1.54ZM134.83,45.7c-.08.19-.17.33-.27.43-.11.1-.22.16-.33.19-.01,0-.03,0-.05,0-.02,0-.04,0-.07,0h-.03s-.02,0-.03-.02h-.06c-.24-.06-.41-.22-.53-.46s-.17-.55-.17-.91c0-.15,0-.31.02-.48.01-.17.04-.34.07-.52.09-.49.26-.88.52-1.19.26-.31.56-.5.91-.59v3.52Z"/>
      <path class="cls-1" d="M140.68,47.63h4.42v-1.11h-.67v-4.72c0-.44.12-.81.36-1.11.24-.3.5-.49.79-.58.01,0,.03,0,.05,0,.02,0,.03,0,.05,0l.24.71h1.71v-2.23c-.15-.03-.3-.04-.45-.06-.15-.01-.29-.02-.43-.02-.41,0-.81.05-1.19.15-.38.1-.75.24-1.12.43v-.51h-4.39v1.2h.64v7.85Z"/>
      <path class="cls-1" d="M149.52,36.79c.4.32.88.48,1.44.48s1.04-.16,1.44-.48c.4-.32.6-.7.6-1.15s-.2-.83-.6-1.15c-.4-.32-.88-.48-1.44-.48s-1.04.16-1.44.48c-.4.32-.6.7-.6,1.15s.2.83.6,1.15Z"/>
      <polygon class="cls-1" points="149.05 47.63 153.46 47.63 153.46 46.53 152.78 46.53 152.78 38.58 148.4 38.58 148.4 39.78 149.05 39.78 149.05 47.63"/>
      <polygon class="cls-1" points="104.78 21.87 108.27 20.03 111.77 21.87 111.1 17.98 113.93 15.23 110.02 14.66 108.27 11.12 106.53 14.66 102.62 15.23 105.45 17.98 104.78 21.87"/>
      <polygon class="cls-1" points="91.6 23.75 94.04 22.47 96.49 23.75 96.02 21.03 98 19.1 95.26 18.7 94.04 16.23 92.82 18.7 90.08 19.1 92.07 21.03 91.6 23.75"/>
      <polygon class="cls-1" points="120.04 23.75 122.49 22.47 124.93 23.75 124.47 21.03 126.45 19.1 123.71 18.7 122.49 16.23 121.27 18.7 118.53 19.1 120.51 21.03 120.04 23.75"/>
      <polygon class="cls-1" points="84.37 26.66 85.42 26.11 86.47 26.66 86.27 25.5 87.11 24.67 85.94 24.5 85.42 23.44 84.9 24.5 83.73 24.67 84.57 25.5 84.37 26.66"/>
      <polygon class="cls-1" points="129.35 26.66 130.4 26.11 131.45 26.66 131.25 25.5 132.1 24.67 130.93 24.5 130.4 23.44 129.88 24.5 128.7 24.67 129.55 25.5 129.35 26.66"/>
      <path class="cls-1" d="M109.89,100.54c.4-.06.82-.49.72-.91,0-.01,0-.03-.01-.05-.03-.5-.39-.91-.39-.91l-2.35-1.89c.47-.48.91-.93,1.11-1.14,0,0,.88-.93,2.01-.44,0,0,1.87,1.48,2.8,2.85,0,0,5.94-4.43,9.75-8.95-.2.23-3.6-3.48-4.03-3.86-.57-.5-1.34-.63-2.01-.18-.31.21-.6.78-.85,1.08-.45.55-.94,1.08-1.46,1.57-1.72,1.66-3.58,3.18-5.35,4.78l-3.58,3.01-1.42-1.14h.01s-11.9-9.35-11.9-9.35c0,0-.57-.34-.53-.19-.07-.06-.11-.09-.11-.09.04,1.82.51,3.72,1.52,5.24,1.49,2.25,3.46,4.23,5.53,5.94.34.27.68.54,1.02.8.19.14.37.27.55.4.33.24.74.64,1.18.53.42-.1.63-.54.83-.87.16-.28.34-.55.52-.82l1.15.92-2.08,1.75s-.37.09-.04.61c.44.68,1.2,1.42,2.09,1.3-.06-.2.14-.56.27-.72.4-.49.87-.92,1.34-1.34,0,0,.07-.07.19-.19l2.33,1.86c.33.2.78.46,1.18.4ZM118.08,86.09c.11-.18.34-.24.53-.13.18.11.24.35.13.53-.11.18-.35.24-.53.13-.18-.11-.25-.35-.13-.53ZM104.43,94.34h0s0,0,0,0c0,0-.26-.2-.69-.54l.69.54Z"/>
      <path class="cls-1" d="M73.76,97.07l-2,2.55c.07-.32.06-.64-.04-.95-.1-.31-.27-.57-.52-.77-.57-.45-1.17-.6-1.8-.45-.79.19-1.66.9-2.61,2.11l-2.99,3.81c-.45.58-.81,1.09-1.08,1.54-.8,1.35-.73,2.39.19,3.12.68.53,1.38.58,2.12.16l-.66.85,1.38,1.09,9.39-11.96-1.38-1.09ZM70.94,100.31c-.12.4-.46.96-1.02,1.67l-3.18,4.05c-.77.99-1.38,1.49-1.82,1.5-.21,0-.41-.06-.61-.22-.2-.15-.32-.32-.36-.49-.1-.41.24-1.11,1.01-2.09l3.2-4.07c.57-.73,1.04-1.2,1.4-1.42.36-.22.71-.19,1.05.07.34.27.45.6.32,1Z"/>
      <path class="cls-1" d="M77.71,102.35c-.77-.45-1.5-.58-2.17-.38-.68.2-1.41.97-2.19,2.3l-.19.32,1.5.88.22-.38c.44-.76.81-1.25,1.09-1.47.28-.22.59-.24.92-.04.33.19.51.43.54.7.03.27-.24.88-.79,1.83l-.5.86c-1.91-.34-3.16-.39-3.77-.14-.61.25-1.1.69-1.47,1.32l-.63,1.08c-1.14,1.96-1.08,3.31.18,4.04.39.23.79.31,1.18.25.39-.06.71-.2.94-.42l-.56.96,1.52.89,4.41-7.53c.3-.52.54-.96.71-1.34.4-.87.54-1.6.42-2.17-.13-.58-.58-1.09-1.35-1.54ZM73.1,112.15c-.18.14-.42.24-.71.28-.29.04-.57-.01-.85-.18-.28-.16-.39-.41-.35-.74.04-.33.25-.82.63-1.46l.6-1.02c.27-.47.52-.77.75-.91.23-.14.49-.23.78-.26.3-.03.84,0,1.62.08l-2.46,4.21Z"/>
      <path class="cls-1" d="M85.9,113.14l1.16.4-.64,1.85c-.39,1.13-.75,1.9-1.07,2.3-.33.4-.72.52-1.18.36-.46-.16-.69-.49-.7-.98,0-.5.19-1.32.58-2.45l2.06-5.98c.34-1,.67-1.66.98-1.99.31-.33.69-.42,1.12-.27.43.15.67.41.71.77.04.36-.06.91-.31,1.64l-.64,1.85,1.62.56.38-1.1c.3-.87.5-1.62.59-2.27.1-.65.01-1.22-.25-1.72-.26-.5-.83-.9-1.69-1.2-.47-.15-.93-.2-1.38-.14-1.17.17-2.11,1.29-2.83,3.38l-2.05,5.96c-.52,1.52-.69,2.7-.5,3.55.19.85.73,1.42,1.63,1.73.9.31,1.65.11,2.25-.61l-.15,1.18.88.3,2.57-7.47-2.69-.93-.44,1.29Z"/>
      <rect class="cls-1" x="93.05" y="105.96" width="1.61" height="1.76" transform="translate(-31.94 173.18) rotate(-76.51)"/>
      <rect class="cls-1" x="85.48" y="114.12" width="12.82" height="1.75" transform="translate(-41.35 177.57) rotate(-76.53)"/>
      <path class="cls-1" d="M98.86,109.66c-.51-.07-.97-.04-1.38.11-1.02.37-1.68,1.58-1.98,3.64l-.65,4.49c-.16,1.12-.19,2.02-.08,2.7.2,1.18.96,1.87,2.28,2.06.91.13,1.64-.05,2.2-.54.56-.49.97-1.62,1.23-3.41l.65-4.49c.15-1.03.16-1.9.03-2.6-.21-1.12-.98-1.77-2.31-1.96ZM99.45,113.63l-.77,5.32c-.11.77-.26,1.36-.46,1.76-.19.4-.51.57-.96.5-.01,0-.02,0-.03,0-.21-.03-.38-.11-.5-.24-.31-.31-.38-1.09-.2-2.33l.77-5.32c.11-.75.26-1.32.45-1.71.19-.39.52-.56.97-.49.23.03.4.11.53.24.31.31.37,1.07.2,2.27Z"/>
      <polygon class="cls-1" points="105.6 117.64 105.25 120.5 105.08 120.5 104.89 117.62 104.25 110.37 102.62 110.31 103.95 123.19 106 123.27 108.33 110.53 106.71 110.47 105.6 117.64"/>
      <path class="cls-1" d="M115.08,112.72c-.15-.95-.45-1.63-.88-2.03-.43-.41-1.09-.58-1.98-.52-.89.06-1.56.36-2.01.91-.45.54-.62,1.59-.52,3.13l.02.37,1.74-.12-.03-.44c-.06-.88-.03-1.48.07-1.83.11-.34.35-.53.74-.55.38-.03.66.07.84.28.17.21.3.87.37,1.96l.07.99c-1.77.79-2.84,1.45-3.2,2-.37.55-.52,1.19-.48,1.92l.08,1.24c.16,2.26.97,3.34,2.42,3.25.45-.03.83-.18,1.12-.46.29-.27.47-.57.54-.88l.07,1.11,1.76-.12-.58-8.7c-.04-.6-.09-1.1-.16-1.51ZM113.49,121.49c-.22.2-.48.31-.8.33-.32.02-.55-.12-.7-.41-.15-.29-.25-.82-.3-1.56l-.08-1.19c-.04-.54,0-.93.11-1.18.11-.24.27-.46.5-.65.23-.19.69-.47,1.38-.85l.33,4.87c-.07.22-.21.43-.43.63Z"/>
      <path class="cls-1" d="M122.12,109.44c-.44-.39-.94-.53-1.5-.42-.56.11-1,.34-1.33.71-.32.37-.5.76-.53,1.19l-.25-1.33-1.72.33,2.39,12.59,1.72-.33-1.88-9.86c-.09-.48-.05-.86.14-1.15.18-.28.45-.46.8-.53.35-.07.64-.01.87.16.24.18.39.48.48.9l1.91,10.03,1.72-.33-1.91-10.04c-.17-.9-.47-1.54-.91-1.93Z"/>
      <path class="cls-1" d="M129.56,107.21c-.48-.33-1-.41-1.54-.23-.54.18-.95.47-1.22.87-.27.4-.4.82-.38,1.25l-.42-1.29-1.66.54,3.98,12.18,1.67-.54-3.12-9.54c-.15-.47-.16-.85,0-1.16.15-.31.39-.51.72-.62.34-.11.63-.09.89.05.26.14.45.42.59.83l3.17,9.71,1.67-.54-3.17-9.71c-.28-.87-.67-1.47-1.15-1.8Z"/>
      <rect class="cls-1" x="134.23" y="104.83" width="1.75" height="12.82" transform="translate(-33.4 63.99) rotate(-23.8)"/>
      <rect class="cls-1" x="130.85" y="102.76" width="1.76" height="1.61" transform="translate(-30.6 61.99) rotate(-23.81)"/>
      <path class="cls-1" d="M140.1,102.02c-.54-.23-1.06-.2-1.56.09-.5.28-.84.65-1.02,1.1-.19.45-.23.88-.12,1.3l-.67-1.18-1.52.87,6.35,11.13,1.52-.87-4.97-8.72c-.24-.43-.32-.8-.24-1.13.08-.33.28-.58.58-.76.31-.17.6-.22.88-.13.28.09.53.32.74.7l5.06,8.87,1.52-.87-5.06-8.88c-.45-.79-.95-1.3-1.49-1.53Z"/>
      <path class="cls-1" d="M148.6,100.14c-.63-.83-1.25-1.44-1.84-1.84-.95-.63-1.96-.53-3.02.28-.41.31-.7.67-.88,1.07-.45.99-.04,2.31,1.23,3.96l2.76,3.6c.69.9,1.32,1.55,1.88,1.94.98.68,2.01.61,3.07-.2.73-.56,1.11-1.21,1.15-1.95.04-.74-.49-1.83-1.58-3.25l-2.76-3.6ZM150.9,107.79s-.02.01-.03.02c-.17.13-.34.19-.52.19-.44,0-1.04-.49-1.81-1.49l-3.27-4.26c-.46-.6-.77-1.11-.91-1.52-.15-.41-.04-.76.33-1.04.18-.14.36-.21.54-.21.44,0,1.02.48,1.77,1.44l3.27,4.26c.48.62.79,1.14.94,1.56.15.42.05.76-.31,1.04Z"/>
      <path class="cls-1" d="M201.75,38.47l-2.14-1.51v-20.77h-41.14l-1.41-1.19C145.91,5.61,127.54,0,107.91,0s-38,5.61-49.14,15l-1.41,1.19H16.22v20.77l-2.14,1.51C5.26,44.68,0,54.81,0,65.56s5.26,20.88,14.08,27.09l2.14,1.51v20.77h41.14l1.41,1.19c11.14,9.39,29.51,15,49.14,15s38-5.61,49.14-15l1.41-1.19h41.14v-20.77l2.14-1.51c8.82-6.21,14.08-16.34,14.08-27.09s-5.26-20.88-14.08-27.09ZM199.48,89.44l-3.81,2.68v18.89h-38.65l-2.51,2.12c-10.45,8.81-27.87,14.07-46.61,14.07s-36.16-5.26-46.61-14.07l-2.51-2.12H20.15v-18.89l-3.81-2.68c-7.77-5.48-12.41-14.4-12.41-23.88s4.64-18.4,12.41-23.88l3.81-2.68v-18.89h38.65l2.51-2.12c10.45-8.81,27.87-14.07,46.61-14.07s36.16,5.26,46.61,14.07l2.51,2.12h38.65v18.89l3.81,2.68c7.77,5.47,12.42,14.4,12.42,23.88s-4.64,18.4-12.42,23.88Z"/>
    </g>
  </g>
</svg>