<?xml version="1.0" encoding="UTF-8"?>
<svg id="Livello_2" data-name="Livello 2" xmlns="http://www.w3.org/2000/svg" viewBox="0 0 252.71 66.65">
  <defs>
    <style>
      .cls-1 {
        fill: #515151;
      }
    </style>
  </defs>
  <g id="Livello_1-2" data-name="Livello 1">
    <g>
      <g>
        <path class="cls-1" d="M101.4,66.65c.04-.6-1.5-.63-1.1-1.25.06-.1,1.96-.52,2.05-1.11-3.68.5-3.58-3.86.08-3.8,1.61.02,2.75.92,2.61,2.62-.13,1.51-1.4,2.43-2.58,3.11-.21.12-.5.05-.42.44h-.63ZM103.02,62.41c0-.36-.29-.66-.66-.66s-.66.29-.66.66.29.66.66.66.66-.29.66-.66Z"/>
        <path class="cls-1" d="M106.77,66.65c.12-.55-.51-.18-.72-.46-.43-.58,2.06-3.75,1.83-3.96-.85-.02-1.69-.04-2.53.16v-1.74s4.9,0,4.9,0c.26,2.22-1.96,3.86-2.21,6h-1.26Z"/>
        <path class="cls-1" d="M78.26,59.23c2.27.31,3.21,2.18,2.56,4.3-.89,2.88-4.45,2.16-6.75,2.18.19-1.22.2-2.48.17-3.72-.01-.4-.45-2.76.07-2.76,1.17,0,2.86-.15,3.95,0ZM76.45,60.81v3.47c1.84.22,2.2-.4,2.06-2.14-.12-1.46-.74-1.39-2.06-1.33Z"/>
        <path class="cls-1" d="M88.13,65.7h-2.37s-.12-.8-.23-.95c-.15-.21-2.06-.23-2.13-.15-.04.04-.05,1.1-.16,1.1h-2.21l2.13-6.32c.18-.22,2.92-.41,3.05.27l1.93,6.05ZM85.13,63.18c.09-.09-.34-2.05-.55-2.05l-.71,2.05h1.26Z"/>
        <path class="cls-1" d="M111.4,65.18c-1.21-1.21-.72-3.82.9-4.45,2.25-.88,4.04.41,3.79,2.84-.23,2.24-3.29,3-4.68,1.6ZM114.16,63.93c.79-.79-.42-2.15-1.39-1.47-.26.18-.21,1.18,0,1.45.26.33,1.14.29,1.4.03Z"/>
        <path class="cls-1" d="M91.13,64.13h2.37c0,.17-.08,1.58-.16,1.58h-4.42v-6.48c.46.08,2.08-.17,2.3.15.37.53-.35,3.88-.09,4.75Z"/>
        <path class="cls-1" d="M96.19,65.7l.16-2.84-1.26.16c.08-.37-.12-1.5.02-1.72.1-.15,3.02-.81,3.45-.65.19.19-.15,2.49-.16,2.92,0,.6.32,1.44.16,2.13h-2.37Z"/>
        <g>
          <path class="cls-1" d="M243.87,2.53l.32,21.41c-.22,2.22-.25,4.48-.32,6.71h8.85V2.53h-8.85Z"/>
          <path class="cls-1" d="M87.82,2.53l3.4,14.22.52-.27,3.75-13.94h9.87l2.21,28.11h-7.74l-.63-15.64-.6.27-4.37,12.53-6.62.16-3.81-12.96-.53.26c-.48,5.11-.82,10.24-.97,15.38h-7.27l2.69-28.11h10.11Z"/>
          <path class="cls-1" d="M154.23,2.53c7.86.8,10.18,9.33,5.37,15.01-.65.77-1.56,1.36-2.14,2.13,0,.27,2.35,3.7,2.72,4.24.86,1.26,2.68,3.26,3.27,4.48.63,1.29-.92,1.49-1.84,1.74-1.73.46-4.18.94-5.95,1-.89.03-1.34-.08-1.85-.84-.66-.96-1.51-3.1-2.05-4.27-.56-1.22-1.09-2.48-1.55-3.74h-3l.32,8.37h-8.69c.1-1.39.1-2.79.16-4.18.01-.3.15-.61.16-.94.23-7.67-.31-15.32-.32-22.99h15.4ZM147.36,15.95c2.1.04,4,.74,5.08-1.63,1.76-3.85-.98-6.65-4.92-5.63l-.17,7.26Z"/>
          <path class="cls-1" d="M167.63,27.9c-5.22-5.18-4.88-17.52.5-22.53,4.43-4.12,13.6-4.62,18.31-.79,5.88,4.78,5.71,17.06.87,22.5-4.5,5.06-14.85,5.61-19.68.82ZM176.07,9.04c-2.62.37-2.86,3.09-2.97,5.24-.11,2.21-.1,6.41.77,8.41.63,1.45,1.9,2.06,3.43,2.1,2.32.07,3.62-.65,4.13-2.97.53-2.41.51-8.87-.56-11.04-.9-1.82-2.98-2.01-4.8-1.75Z"/>
          <path class="cls-1" d="M214.96,2.53v6.24l-11.69,15.32,12.17-.17.16.8-.64,6.24c-1.68-.31-3.43-.11-5.14-.15-.42-.01-.8-.16-1.25-.17-5.24-.09-10.51-.07-15.72.32v-6.4l12-15.32c.07-.36-.16-.22-.39-.23-3.28-.24-6.55.19-9.8.31-1.56.06-2.08.4-1.97-1.34.12-1.85.46-3.74.65-5.59l21.62.14Z"/>
          <path class="cls-1" d="M239.76,2.53v6.24l-11.44,14.78-.25.54,12.17-.17c.54.38-.58,5.9-.48,6.88-7.36.01-14.76-.52-22.11.16v-6.4l12-15.32c.07-.36-.16-.22-.39-.23-3.28-.24-6.55.19-9.8.31-.85.03-2.23.33-1.98-.87l.48-5.68.15-.33,21.65.09Z"/>
          <path class="cls-1" d="M109.14,30.64l8.39-28.09,10.33-.03,7.81,28.12h-8.61c-.3,0-.79-4.18-.87-4.74-2.65-.11-5.25-.1-7.89,0l-.67,4.47-.21.26h-8.29ZM124.78,19.59l-1.74-8.92c-.08-.57-.68-.56-.78,0-.66,2.99-1.74,5.9-2.21,8.92h4.74Z"/>
        </g>
        <g>
          <path class="cls-1" d="M82.53,45.17c.25.08.94,4.02,1.26,4.58l1.44-4.59h4.64s1.03,4.59,1.03,4.59c.58-1.48,1.18-2.99,1.34-4.58h2.21c-.15.8-1.92,6.22-2.2,6.4-.25.17-2.56.13-2.78-.08l-2.05-6.17c-.71,1.62-1.15,3.36-1.79,5-.11.27-.36,1.06-.48,1.22-.13.17-2.55.18-2.78-.06l-2.13-6.32h2.29Z"/>
          <path class="cls-1" d="M106.93,49.91c-.87-3.51,1.38-5.08,4.66-4.89,1.82.1,1.69.42,1.17,2.04-2.12-.34-3.75-1.11-3.47,1.84.11,1.18.64,1.23,1.74,1.18-.32-1.97.79-1.34,2.21-1.42v2.45c-1.96.97-4.94.93-6.32-1.03-.16.23-.09,1.42-.16,1.42h-4.42v-6.32h2.37c.06.17-.16.35-.16.39v4.34h2.37Z"/>
          <path class="cls-1" d="M153.92,45.17c.27.08,1.73,2.89,2.05,3.32.36.06.22-.16.24-.39.04-.66-.36-2.39-.09-2.78.22-.32,1.7-.07,2.14-.15.12,1.56-.19,3.11-.17,4.67,0,.47.32,1.34.1,1.66-.16.23-2.15.22-2.46.07l-2.21-3.4v3.24c0,.39-1.7.2-2.05.24v-6.48c.63.12,1.92-.17,2.45,0Z"/>
          <path class="cls-1" d="M122.49,45.17c1.81.3,2.23,2.12.71,3.16,1.34.15,1.52,1.96.53,2.66-.27.19-1.59.66-1.87.66h-3.87v-6.48c1.36.16,3.2-.22,4.5,0ZM120.2,47.86c.21.2,1.4-.04,1.56-.59.24-.88-.94-.89-1.56-.84.04.25-.06,1.37,0,1.42ZM120.19,50.23c2.51.42,2.3-1.57,0-1.27v1.27Z"/>
          <path class="cls-1" d="M94.97,50.65c-1.44-1.69-.59-4.78,1.65-5.43,2.85-.83,5.28.48,4.93,3.67-.33,3.01-4.95,3.69-6.58,1.77ZM98.84,50.03c.33-.33.33-2.85-.13-3.19-2.1-1.57-2.55,2.93-1.14,3.35.3.09,1.05.06,1.27-.16Z"/>
          <path class="cls-1" d="M78.64,45.19l1.91,6.46c-.5-.08-2.04.18-2.29-.15-.41-.55.29-1.08-1.26-1.08s-.86.52-1.22,1.04c-.23.33-1.88.14-2.34.19l2.23-6.45h2.96ZM77.23,47.07c-.26-.27-.27.08-.33.22-.09.21-.53,1.61-.46,1.67h1.11c.07-.07-.25-1.83-.32-1.89Z"/>
          <path class="cls-1" d="M145.31,45.17c-.1.26-.1,1.52-.16,1.58-.29.3-3.61-.68-3.16.79h2.53c-.01.3.11,1.58-.24,1.58h-2.29v.95s3.16-.16,3.16-.16c-.02.32.12,1.74-.24,1.74h-5.13v-6.48h5.53Z"/>
          <path class="cls-1" d="M180.22,45.33l-.32,1.73c-.95.1-1.72-.76-2.68-.31-.06.28.08.31.26.45.94.71,3.06.68,2.89,2.45-.23,2.41-3.99,2.23-5.67,1.67-.11-.12.3-1.84.55-1.89.42.57,3.86,1.14,2.44.09-.85-.63-2.89-.68-2.83-2.36.09-2.27,3.78-2.42,5.36-1.83Z"/>
          <path class="cls-1" d="M174.05,45.34l-.32,1.72c-.33.23-2.51-1-2.67-.22-.11.54,2.48.96,2.98,1.91,1.49,2.84-3.89,3.47-5.5,2.58.05-.36.23-1.81.56-1.88s2.09,1.33,2.76.55c.1-.32,0-.31-.2-.44-.93-.57-3.01-.78-2.92-2.36.13-2.38,3.65-2.41,5.33-1.85Z"/>
          <path class="cls-1" d="M164.74,45.17v1.58h-2.69v1.11h2.21c-.18.25-.08,1.58-.16,1.58h-2.21c.34,2.51.25,2.29-2.21,2.21v-6.48h5.05Z"/>
          <path class="cls-1" d="M131.41,45.17v4.74h2.21c-.08.63.34,1.74-.55,1.74h-3.79c-.46,0-.08-1.48-.07-1.81.02-1.56-.28-3.1-.17-4.67h2.37Z"/>
          <path class="cls-1" d="M116.56,45.17v6.48c-.48-.1-2.18.24-2.35-.26l-.02-6.22h2.37Z"/>
          <rect class="cls-1" x="165.21" y="45.17" width="2.37" height="6.48"/>
          <path class="cls-1" d="M183.69,45.17c.12,1.56-.19,3.11-.17,4.67,0,.46.37,1.49.02,1.74-.32.23-1.73-.02-2.22.07.21-2.17-.07-4.29,0-6.48h2.37Z"/>
          <path class="cls-1" d="M136.78,45.17v6.22c-.15.49-1.91.17-2.37.26v-6.48h2.37Z"/>
          <path class="cls-1" d="M127.62,45.17v6.48c-.47-.09-2.2.24-2.36-.26v-6.22s2.36,0,2.36,0Z"/>
          <path class="cls-1" d="M150.05,45.17c.06.17-.16.35-.16.39v5.92h-2.37c-.06-.17.16-.35.16-.39v-5.92h2.37Z"/>
        </g>
      </g>
      <g>
        <polygon class="cls-1" points="61.12 0 61.13 11.91 59.95 12.17 6.07 12.17 4.11 12 4.11 0 61.12 0"/>
        <path class="cls-1" d="M65.86,0v12.16h-3.87c-.13,0-.28-.38-.24-.54V0h4.11Z"/>
        <rect class="cls-1" x="0" y="0" width="3.48" height="12.16"/>
        <g>
          <path class="cls-1" d="M0,59.86v-12.16c.6.09,3.33-.19,3.56.15.28.4.12,8.56.08,9.73-.01.38-.16.72-.18,1.1-.03.52.43,1.07-.22,1.18-.93.16-2.25-.12-3.24,0Z"/>
          <polygon class="cls-1" points="0 15.95 3.47 15.95 3.47 27.96 0 28.11 0 15.95"/>
          <rect class="cls-1" y="31.9" width="3.47" height="12"/>
          <rect class="cls-1" x="4.11" y="31.9" width="57.18" height="12"/>
          <rect class="cls-1" x="4.11" y="15.95" width="57.02" height="12"/>
          <rect class="cls-1" x="61.76" y="15.95" width="4.11" height="12"/>
          <rect class="cls-1" x="61.76" y="31.9" width="4.11" height="12"/>
          <g>
            <rect class="cls-1" x="4.11" y="47.7" width="57.18" height="12.16"/>
            <rect class="cls-1" x="61.6" y="47.7" width="4.43" height="12.32"/>
          </g>
        </g>
      </g>
    </g>
  </g>
</svg>