<?xml version="1.0" encoding="UTF-8"?>
<svg id="Livello_2" data-name="Livello 2" xmlns="http://www.w3.org/2000/svg" viewBox="0 0 160.5 79.37">
  <defs>
    <style>
      .cls-1 {
        fill: #515151;
      }
    </style>
  </defs>
  <g id="Livello_1-2" data-name="Livello 1">
    <g>
      <path class="cls-1" d="M34.97,59.93c-.33-.1-.4-.7-.2-.99L70.04.43l.8-.43,9.62,15.64L89.5.64l.58.17,35.25,58.13c.24.26.07.99-.2.99h-17.93l11.11,18.44.11.99H42.78c-.26,0-.43-.74-.2-.99l11.12-18.44h-18.74ZM56.71,47.31h4.51l11.64-19.03c.16-.56-1.85-3.3-2.22-4.01l-13.93,23.04ZM103.19,47.31l-13.62-22.44c-.25,1.09-1.86,2.52-1.52,3.61l11.44,18.83h3.71ZM63.16,67.7c-.11-.1-.15-.3-.17-.45l16.66-27.74-5.92-10.23-29.65,48.89h72.74s-10.73-17.62-10.73-17.62l-.6-.4-11.61-.2-.21.4c.53.9,4.49,6.77,4.22,7.22l-.83.38-32.86.02c-.32-.03-.81-.03-1.05-.26ZM84.56,47.31l-4.01-6.81-4.21,6.81h8.22ZM96.18,66.74l-4.14-6.78h-23.48s-3.84,6.78-3.84,6.78h31.46Z"/>
      <path class="cls-1" d="M12.62,48.31v30.76l-.3.3H.3l-.3-.3V.32L.3.02h54.9c.26,0,.43.74.2.99l-28.65,47.3h-14.13ZM33.46,12.64H12.62v22.84h6.91l13.93-22.84Z"/>
      <path class="cls-1" d="M160.5,79.37h-26.55l-.3-.3v-12.02l.3-.3h13.73v-18.43h-14.13l-7.21-11.83c-.24-.26-.06-.99.2-.99h21.14V12.64h-35.87l-6.9-11.63-.11-.99h55.4l.3.3v79.05Z"/>
    </g>
  </g>
</svg>