<?xml version="1.0" encoding="UTF-8"?>
<svg id="Livello_2" data-name="Livello 2" xmlns="http://www.w3.org/2000/svg" viewBox="0 0 255.24 93.47">
  <defs>
    <style>
      .cls-1 {
        fill: #515151;
      }
    </style>
  </defs>
  <g id="Livello_1-2" data-name="Livello 1">
    <path class="cls-1" d="M40.4,30.15c-.13-16.05-8.64-25.4-17.97-25.34-9.33.08-15.79,6.66-18.63,9.2,1.5.6,3.21,1.85,3.23,4.52.02,2.64-4.97,13.89-4.95,18.3.03,3.42,2.12,5.09,4.74,4.86,2.27-.2,4.23-1.92,4.21-4.44,0-2.4-2.49-3.67-4.34-2.99-.07-9.45,7.35-17.59,14.57-17.63,6.96-.05,11.06,6.15,11.1,15.01v.12c-2.79.91-5.74,2.18-8.68,3.71l-.05-5.1c-.02-1.59.59-5.18,1.75-6.62l-12.5,4.73c2.32,1.1,3.38,3.02,3.41,4.58l.04,6.81C7.33,46.07-.04,54.32,0,62.01c.05,6.42,3.43,9.37,8.32,9.32,2.71,0,5.47-.69,8.18-1.91l.09,14.79c.02,3.31-2.73,6.01-5.45,6.51.93-.72,1.64-2.14,1.62-4.02,0-2.44-1.55-4.61-3.82-4.59-2.27.02-4.43,1.99-4.4,5.28.04,4.76,4.3,7.43,8.74,5.37l14.07-6.26c-2.29-.94-3.38-3.1-3.4-5.55l-.09-16.21c8.62-7.2,15.49-19.32,16.43-31.55.48-.06.92-.09,1.35-.13-.26.61-.39,1.28-.39,1.96.02,2.64,1.66,3.69,3.19,3.57,1.83-.13,3.36-1.87,3.34-4.41,0-2.51-1.35-4.26-7.35-4.05M12.66,65.52c-2.88.03-4.86-1.83-4.91-5.63-.02-5.32,3.59-10.5,8.59-14.87l.13,19.54c-1.37.64-2.68.96-3.81.96M23.8,58.57l-.11-18.85c2.84-1.74,5.78-3.18,8.55-4.29-.65,10.28-4.23,18.07-8.44,23.14M178.14,57.29h-.28c-56.97.35-95.65,7.1-138.13,24.11-5.02,2.01-9.14.78-10.63-3.72-1.79-5.5,4.67-9.19,7.83-6.82-2.66.74-4.47,2.85-3.68,5.05.9,2.52,2.99,2.23,5.69,1.2,22.05-8.29,41.59-13.94,61.79-18,23.02-4.62,47.94-7.27,77.37-8.14l.04,6.32ZM250.19,51.81l-16.31,11.32c-3.8-1.58-24.13-4.99-46.33-5.71l-.04-6.67c2.75-.03,5.54-.08,8.38-.09,25.13-.17,44.71.67,54.3,1.15M66.94,37.7c-.78,0-2.16.45-2.13,2.19.02,4.31,7.44,7.2,7.48,13.76.02,4.27-2.64,7.01-6.31,7.96-3.8.99-6.76-2.04-6.78-5.34-.02-2.22,1.89-4.39,3.97-4.22-1.33.9-1.61,5.84,1.61,5.82,1.53,0,2.49-1.11,2.49-3.14-.04-4.13-7.63-7.62-7.68-13.2-.02-4,2.53-6.8,6.06-7.73,2.38-.62,5.39-.14,6.52.52l-1.5,6.12c-1.18-1.57-2.49-2.75-3.73-2.74M251.94,41.91c.78,0,1.46.28,2.03.83.55.55.83,1.22.83,2.01s-.26,1.47-.81,2.02c-.54.56-1.22.84-2.03.84-.76,0-1.44-.27-2.01-.82-.54-.55-.82-1.22-.82-2.01s.26-1.46.82-2.02c.52-.55,1.2-.84,1.99-.85M255.24,44.73c0-.91-.33-1.69-.96-2.32-.66-.63-1.42-.96-2.36-.95-.89.02-1.66.33-2.29.98-.63.64-.96,1.41-.94,2.33,0,.92.33,1.69.96,2.32.64.63,1.42.96,2.31.95.92,0,1.7-.33,2.33-.99.63-.64.96-1.42.94-2.33M252.84,44.03c0,.28-.13.47-.39.58-.13.05-.33.08-.62.08h-.59v-1.3h.55c.35,0,.63.04.78.13.15.09.26.26.26.52M250.61,42.95l.02,3.61h.63l-.02-1.43h.52c.35,0,.58.03.72.11.22.13.35.41.35.82l.02.3v.15s0,.03.02.03h.57v-.03s-.05-.11-.05-.2v-.27l-.02-.26c0-.19-.04-.37-.2-.56-.11-.18-.33-.31-.61-.35.22-.03.4-.09.5-.18.27-.16.37-.4.37-.72,0-.44-.19-.75-.57-.9-.21-.09-.55-.13-1-.12h-1.27ZM39.98,69.77c1.27-2.36,1.85-4.48,1.84-6.21l-.11-16.03c0-1.74-.61-3.61-1.9-4.95l7.09-2.35.13,21.56c.02,1.75.63,3.4,1.94,4.73l-8.99,3.25ZM49.84,66.3c1.27-2.34,1.85-4.45,1.83-6.18l-.2-30.44c0-1.75-.61-3.63-1.9-5.01l7.11-2.15.22,35.98c.02,1.74.61,3.41,1.92,4.79l-8.99,3.01ZM93.88,53.86l-7.03,1.68c-.78-1.7-1.15-3.53-1.15-5.28l-.09-12.54c-.02-3.75-2.79-3.82-4.93.44l.06,13.5c.02,1.74.64,3.46,1.92,4.92l-8.99,2.36c1.27-2.23,1.86-4.3,1.86-6.04l-.11-15.38c0-1.74-.61-3.64-1.92-5.09l7.11-1.82.02,3.04c2.7-5.68,10.15-8.56,10.21,1.69l.08,13.8c0,1.74.94,3.39,2.95,4.72M126.27,23.36l-2.42,7.1c-1.17-2.67-3.92-3.18-6.06.78l.09,12.93c0,1.75.63,3.51,1.91,5.11l-8.98,1.4c1.26-2.09,1.85-4.09,1.85-5.81l-.11-14.86c0-1.74-.61-3.71-1.91-5.26l7.11-1.19.02,3.15c1.9-3.79,6.13-5.94,8.51-3.35M106.37,42.14c.83,1.23.7,5.73-2.85,6.33-2.6.43-4.12-2.55-4.36-7.58,5.01,1.15,10.14-2.88,10.12-8.49-.02-3.34-2.09-7.91-7.02-7.03-5.06.91-8.72,6.33-8.66,15.42.04,8.35,4.6,12.57,9.51,11.65,4.04-.74,6.42-3.32,6.39-6.59-.02-2.22-1.35-3.71-3.12-3.7M102.53,29.34c1.26-.26,1.96.99,1.96,2.74.02,2.02-.37,4.86-5.37,5.95.17-4.64,1.25-8.26,3.4-8.69M168.91,20.25l-2.42,6.75c-1.13-2.73-3.77-3.54-5.87-.05l.06,12.89c.02,1.71.61,3.53,1.9,5.26l-8.9.46c1.24-1.93,1.83-3.86,1.83-5.58l-.09-14.74c-.02-1.7-.63-3.72-1.91-5.4l7.04-.41.02,3.03c1.94-3.42,6.02-4.99,8.33-2.21M223.85,25.72c.08-3.3-1.79-7.82-6.7-7.79-5.04.03-9.12,5.88-9.07,13.97.06,9.09,3.6,12.95,8.79,12.9,4.06-.02,6.66-2.52,6.74-5.75.07-2.22-1.22-3.83-2.94-4.04.76,1.31.43,5.88-3.03,5.9-2.57.01-4.01-3.05-4.06-8.01,4.89,1.74,10.12-1.62,10.28-7.19M217.31,21.88c1.26,0,1.89,1.23,1.85,2.96-.07,1.99-.52,4.77-5.52,5.24.33-4.62,1.46-8.17,3.67-8.2M185.42,57.81l-.2-33.73c-.02-1.72.57-3.63,1.83-5.51l-7.07.14c0,.93,0,1.92.02,2.91-.02-.02-.02-.05-.05-.06-.76-1.58-2.09-3.1-4.6-3.09-3.31.03-7.44,5.61-7.67,13.78-.22,7.53,2.4,12.72,7.19,12.69,2.53-.02,4.48-2.09,5.22-3.68,0-.03.02-.06.02-.07l.18,25.67,7.02-4.83c-1.26-.87-1.88-2.53-1.9-4.24M180.05,34.8c.02,2.18-1.33,5.13-3.54,5.13-2.03,0-3.49-3.22-3.33-8.18.16-5.29,1.74-8.24,3.62-8.24,1.37-.01,2.38.92,3.18,2.52.02.01.02.03.05.06l.04,8.43c-.02.08-.02.17-.02.28M205.26,38.6c0,1.71.62,3.77,1.9,5.53l-7.05-.05-.02-3.01c-2.69,4.95-10.05,5.95-10.1-4.21l-.09-12.93c-.02-1.72-.64-3.57-2.27-5.37h6.31c.76,1.88,1.13,3.78,1.13,5.51l.09,12.01c.02,3.71,2.76,4.28,4.91.52l-.09-12.75c-.02-1.72-.61-3.57-1.9-5.36l8.92-.04c-1.27,1.87-1.85,3.75-1.83,5.48l.08,14.67ZM150.17,39.14c0,2.09.74,4.53,2.29,6.54l-8.55.61-.02-4.76c-.02.07-.04.13-.07.21-1.26,3.7-4.69,5.91-7.81,5.92-1.28.01-2.53-.48-3.51-1.63-1.44,1.77-4.62,2.81-6.24,2.3,2.07-.81,3.9-3.87,4.34-7.73-.04-.61-.09-1.26-.09-1.98l-.13-17.73c-.02-5.72-6.91-7.37-6.96-13.32-.02-4.41,5.54-7.54,7.62-7.56-.92,1.13-1.68,2.7-1.66,4.67.02,5.35,7.26,7.49,7.31,14.77l.11,18.24c.02,2.33.92,3.25,2.13,3.24,1.4,0,3.49-1.32,4.91-4.44l-.13-23.3c-.02-2.08-.74-4.26-2.3-6.31l10.8-.82c-1.53,2.38-2.25,4.73-2.23,6.83l.18,26.27ZM225.27,44.41c1.28-1.85,1.88-3.76,1.86-5.48l-.18-28.55c0-1.73-.61-3.81-1.92-5.62l7.13.15.19,34.26c.02,1.73.64,3.6,1.93,5.44l-9.01-.18ZM235.78,44.66c1.29-1.86,1.85-3.74,1.85-5.47l-.2-28.54c0-1.75-.61-3.83-1.89-5.66l7.11.27.22,34.23c.02,1.75.61,3.63,1.92,5.49l-9.01-.32Z"/>
  </g>
</svg>