<?xml version="1.0" encoding="UTF-8"?>
<svg id="Livello_2" data-name="Livello 2" xmlns="http://www.w3.org/2000/svg" viewBox="0 0 241.41 28.54">
  <defs>
    <style>
      .cls-1 {
        fill: #515151;
      }
    </style>
  </defs>
  <g id="Livello_1-2" data-name="Livello 1">
    <g>
      <path class="cls-1" d="M3.78,16.76v11.2H0V.58h9.96c5.06,0,8.46,3.51,8.46,8.11s-3.4,8.07-8.46,8.07H3.78ZM9.27,13.36c3.28,0,5.29-1.82,5.29-4.63s-2.01-4.75-5.29-4.75H3.78v9.38h5.48Z"/>
      <path class="cls-1" d="M30.97,16.76h-4.09v11.2h-3.82V.58h10.31c5.17,0,8.38,3.63,8.38,8.15,0,3.94-2.51,6.99-6.64,7.76l6.53,11.47h-4.4l-6.26-11.2ZM32.67,13.36c3.09,0,5.17-1.82,5.17-4.63s-2.09-4.75-5.17-4.75h-5.79v9.38h5.79Z"/>
      <path class="cls-1" d="M58.78,0c6.87,0,13.75,5.1,13.75,14.25s-6.87,14.29-13.75,14.29-13.75-5.14-13.75-14.29S51.9,0,58.78,0ZM58.78,25.06c5.1,0,9.89-3.67,9.89-10.81s-4.79-10.77-9.89-10.77-9.89,3.63-9.89,10.77,4.79,10.81,9.89,10.81Z"/>
      <path class="cls-1" d="M75.04,18.04l3.78-.85v2.59c0,3.63,1.97,5.25,4.71,5.25s4.48-1.82,4.48-4.98V.58h3.78v19.19c0,4.79-3.13,8.77-8.23,8.77-5.37,0-8.53-3.48-8.53-8.73v-1.78Z"/>
      <path class="cls-1" d="M98.36,27.96V.58h16.64v3.51h-12.86v8.42h11.66v3.55h-11.66v8.38h12.86v3.51h-16.64Z"/>
      <path class="cls-1" d="M118.87,14.25c0-9.15,6.8-14.25,13.59-14.25,6.26,0,10.66,3.4,12.05,8.69l-3.51,1.24c-1.04-4.13-4.05-6.45-8.53-6.45-4.98,0-9.73,3.63-9.73,10.77s4.75,10.81,9.73,10.81c4.67,0,7.61-2.82,8.73-6.57l3.36,1.24c-1.47,5.14-5.79,8.81-12.09,8.81-7.07,0-13.59-5.14-13.59-14.29Z"/>
      <path class="cls-1" d="M159.23,4.09v23.87h-3.78V4.09h-9.15V.58h22.09v3.51h-9.15Z"/>
      <path class="cls-1" d="M171.74,27.96V.58h9.93c8.23,0,13.75,5.25,13.75,13.71s-5.52,13.67-13.79,13.67h-9.89ZM181.4,22.21c4.21,0,7.65-2.43,7.65-7.92s-3.44-7.96-7.65-7.96h-3.55v15.87h3.55Z"/>
      <path class="cls-1" d="M199.78,27.96V.58h17.65v5.79h-11.55v5.79h10.16v5.56h-10.12v10.23h-6.14Z"/>
      <path class="cls-1" d="M227.82,18.11v9.85h-6.1V.58h10.31c5.56,0,9.38,3.67,9.38,8.77s-3.82,8.77-9.38,8.77h-4.21ZM231.41,12.86c2.32,0,3.9-1.35,3.9-3.48s-1.58-3.51-3.9-3.51h-3.55v6.99h3.55Z"/>
    </g>
  </g>
</svg>