<?xml version="1.0" encoding="UTF-8"?>
<svg id="Livello_2" data-name="Livello 2" xmlns="http://www.w3.org/2000/svg" viewBox="0 0 130.73 130.73">
  <defs>
    <style>
      .cls-1 {
        fill: #515151;
      }
    </style>
  </defs>
  <g id="Livello_1-2" data-name="Livello 1">
    <path class="cls-1" d="M0,64.69C.37,29.34,28.77.69,64.11.01c35.34-.68,64.82,26.86,66.54,62.17,1.7,34.91-24.36,64.98-59.15,68.26C36.71,133.72,5.49,109.06.63,74.45c-.08-1.06-.19-2.17-.37-3.21-.01-.14-.02-.28-.04-.41C.08,69.06,0,67.29,0,65.53c0-.28,0-.56,0-.84ZM51.49,8.9c-.13.02-.3-.03-.42,0l-.42.14c-.42.08-.94.03-1.26.42-.05,0-.09,0-.14,0-.54.05-.62.18-.98.28-.78.21-1.67.41-2.37.84-.53.01-1.16.29-1.67.49-4.34,1.68-8.49,3.92-12.27,6.56l-.7.62c.62.23.84.93,1.26,1.43,10.45,12.26,20.53,25.29,30.68,37.77,2.16,2.65,4.37,5.52,6.42,8.09.35.44.74.84,1.12,1.26.04.05.09.09.14.14.08.08.13.23.28.28,0,.1.07.26.13.35.27.39,1.46,2.02,1.72,2.26.56.53.41.42.88,1.01,4.73,5.93,9.52,11.74,14.29,17.65.67.84,1.68,2.21,2.39,2.91.12.12.12.31.39.23l-1.25-79.13c-3.91-1.8-8.03-3.22-12.25-4.11-.62-.13-.83-.15-1.38-.3-1.32-.38-5.05-.76-6.53-.84-4.74-.27-10.37,0-15.02.87-.81.15-1.88.35-2.66.55-.13.03-.33.13-.37.25ZM121.04,82.92c4.3-14.06,3.1-29.94-3.27-43.15-.38-.79-1.18-2.44-1.64-3.1-.15-.22-.37-.46-.61-.57-.14,1.38.17,3.07.01,4.4-.04.3-.13,0-.14.82-.22,17.67.15,35.34,0,53.01.11.63.43.15.65-.19,1.76-2.8,4.08-8.14,5.02-11.22ZM58.74,92.45c-.08-.48-.56-.69-.83-1.05-7.03-9.07-14.85-17.78-22.12-26.56-.81-.98-3-3.33-3.48-4.19-.11-.21-.04-.47-.08-.55-.02-.03-.18.18-.62-.28-3.48-3.67-6.89-8.36-10.17-12.29-2.44-2.92-4.86-5.86-7.29-8.78l-.6-.13c-.29,1.19-1.12,2.25-1.54,3.41-.46,1.26-1.04,2.43-1.53,3.77-8.34,22.71-.86,49.16,17.65,64.37,6.4,5.26,17.84,11.52,26.15,12.28,1.72.49,3.53.67,5.3.84.8.08,2,.28,2.72.28h6.14c.68,0,1.82-.21,2.58-.28,3.88-.37,7.75-1.07,11.44-2.31-.02-.22-.16-.38-.28-.55-2.86-4.01-6.95-8.15-10.13-11.98-.71-.85-1.44-1.76-2.14-2.6-.04-.05-.1-.09-.14-.14-.36-.42-.74-.94-1.12-1.39-.04-.05-.1-.09-.14-.14-.1-.12-.22-.21-.28-.28-1.91-2.28-3.76-5.18-6-7.11-.08-.21-.15-.43-.28-.63-.76-1.11-1.81-2.28-2.67-3.33-.16-.19-.25-.36-.54-.37Z"/>
  </g>
</svg>