<?xml version="1.0" encoding="UTF-8"?>
<svg id="Livello_2" data-name="Livello 2" xmlns="http://www.w3.org/2000/svg" viewBox="0 0 202.07 103.35">
  <defs>
    <style>
      .cls-1 {
        fill: #515151;
      }
    </style>
  </defs>
  <g id="Livello_1-2" data-name="Livello 1">
    <g>
      <g>
        <path class="cls-1" d="M184.41,15.59s0,0,0,0l.02-.04-1.41-.2c.79.12,1.32.21,1.4.24Z"/>
        <polygon class="cls-1" points="192.79 51.27 192.86 51.27 192.86 51.21 192.79 51.27"/>
        <polygon class="cls-1" points="188.77 7.79 188.7 7.79 188.77 7.88 188.77 7.79"/>
        <path class="cls-1" d="M189.37,6.15l-.16.47.07.33.26.28.34.37.19.31s0,.01,0,.02l-.02.45s0,.02-.01.03l-.22.15s0,0-.01,0l-.52.07h-.31s-.01,0-.02,0l-.18-.1s-.02-.02-.02-.03l-.02-.56-.1-.11h-.25s-.09.27-.09.27v.51l.03.52.24.29.5.11h.73s.01,0,.02,0l.17.12s0,0,.01,0l.15.25h0s.16.66.16.66l.19.93.21.94.08.5.04.5.15.86s0,0,0,.01l-.05.33s0,0,0,.01l-.26.38-.42.59-.32.68-.44.88-.07.34-.08.29s0,.02-.02.02l-.4.21-.47.36s0,0-.01,0l-.49.13-.36.3-.26.39-.11.38-.13.4s0,0,0,0l-.17.23s-.01,0-.02.01l-.27.08s0,0-.01,0l-.34-.05s-.01,0-.02,0l-.28-.29s0-.01,0-.02v-.43l.11-.64.13-.45.15-.62.2-.53.17-.49.06-.87v-.61s-.3-.5-.3-.5l-.26-.34-.3-.07h-.48l-.38.27-.38.41-.2.53v.53l.12.47.12.38.12.62.02.68v.71l.02.58-.08.35s0,.01,0,.02l-.23.23s0,0-.01,0l-.36.09s-.01,0-.02,0l-.49-.14-.76-.15-.88-.23-.74-.18h-.44s-.3.28-.3.28l-.21.43-.29.75-.13.52-.03.37v.26s-.01,1.84-.01,1.84l.95,1.64.26.77s0,0,0,.01l.04,2.6s0,0,0,.01l-.29.85-.1.77.11.77.53,1.28.61,1.42.6.88s0,.02,0,.03l-.4,1.66-.17.96-.07.97.24.92.24.95.3.69s0,0,0,.01v.39l-.12,1.04-.37,1.64-.46,2.19-.31,1.43.03,1.02v.85s0,.01,0,.02l-.18.24s-.01.01-.02.01l-.79.18-.57.21-.48.33-.34.28v.17h3.56l.12-.28.08-.46-.11-.46s0-.01,0-.02l.14-.53.21-.88.11-.75.11-.69v-.31s0-.02.01-.02l.32-.31.44-.57.46-.72.22-1.32-.04-.85-.15-.37s0,0,0-.01v-1.42l.2-.79.34-.96.28-1.13.09-.7.43-1.24.15-.4.28-.56s.02-.02.03-.02h.2s.03,0,.03.02l.23.8.24.88.35,1.46.31,1.47.28.56.27.47.48.55.34.23s.02.02.01.03l-.03.27-.24.6-.16.86-.05.81.09.54.27.48.43.63.43.52.2.29s0,0,0,.01l.06.32.03.65.04.45.07.57.07.69.11.19s0,.02,0,.03l-.16.29.03.74.12.19.17.18h2.06l.15-.12v-.24s-.22-.45-.22-.45l-.43-.51-.25-.15s0,0,0,0l-.25-.25s0-.01,0-.02v-.59s-.03-.83-.03-.83l-.1-.99-.06-1.33-.22-1.37-.22-1.13-.23-.76-.16-.99.02-.79.04-.9.1-1.19-.08-2.2-.3-1.38-.31-.94-.33-.91-.53-1.02-.47-.94-.3-.39s0,0,0-.01l-.19-.96-.08-.94.02-.75.11-.87.44-1.33.24-.86.19-1.15.25-1.19.38-1.4.24-1,.08-.62s0,0,0-.01l.43-.62.47-.88.55-.89.35-.8s0,0,0,0c0,0,0,0,0,0l.16-.35.43-.71.3-.65v-.56s-.28-.71-.28-.71l-.35-1.2-.31-.8-.43-.76-.24-.53s0-.01,0-.02l.13-.67.2-.58.07-.41-.1-.66-.42-.84-.4-.65-.61-.61-.25-.11h-.24s-.24.39-.24.39ZM184.3,30.69l-.12.45-.24.59-.16.55-.23.58s-.02.02-.03.02h-.14s0,0,0,0c0,0-.01,0-.02,0l-.1-.06s-.01-.01-.01-.02l-.06-.23-.06-.45-.17-.44-.22-.54-.16-.51-.16-.34s0,0,0-.01l-.04-.64.1-.91v-.8l.02-1.01v-1.82s0-.01,0-.02l.08-.15s.02-.02.03-.02h.16s.02,0,.03.01l.1.15s0,0,0,.01l.2.96.29.56s0,0,0,0l.12.61.33,1.43.15.71.22.68.07.51.03.13s0,.01,0,.02Z"/>
        <path class="cls-1" d="M144.47,56.97h56.9V.07h-56.9v56.9ZM150.13,5.7s0,0,0,0h39.73s0,0,0,0h5.84s0,0,0,0c.02,0,.03.01.03.03h0v45.57h0s-.01.03-.03.03h-3.01s-2.09,0-2.09,0c0,0,0,0,0,0h-7.89s0,0,0,0h-3.61s0,0,0,0h-3.34s0,0,0,0,0,0,0,0c0,0,0,0-.01-.01,0,0-.02,0-.02-.02,0,0,0,0,0,0h-14.17s-.01.03-.03.03h-11.39s0,0,0,0,0,0,0,0c0,0,0-.01-.01-.02,0,0-.02,0-.02-.02,0,0,0,0,0,0V5.73s0,0,0,0c0-.02.02-.03.03-.03,0,0,0,0,0,0Z"/>
        <polygon class="cls-1" points="195.74 5.73 195.74 17.13 195.74 51.3 195.74 51.3 195.74 5.73 195.74 5.73 195.74 5.73 195.74 5.73"/>
        <polygon class="cls-1" points="175.73 14.36 161.56 28.53 161.56 51.3 175.73 51.3 175.73 51.3 175.73 14.36"/>
        <path class="cls-1" d="M189.18,6.62l.06.35.27.28.34.37.18.3v.45s-.23.15-.23.15l-.52.07h-.3l-.19-.1-.02-.62-.07-.08-.33.02-.1.29v.52l.03.54.25.3.5.12h.74l.17.12.15.25.15.65.2.93.21.94.08.5.04.5.14.86-.05.33-.26.38-.42.59s-.26.55-.32.67c.01,0,.02.02.02.03,0,.02-.02.03-.03.03h-.02s-.42.84-.42.84l-.08.34-.07.29-.4.21-.48.36-.5.13-.36.31-.27.4-.11.38-.13.4-.17.23-.28.08-.34-.05-.28-.29v-.43l.11-.63.12-.45.16-.62.2-.52.17-.49s.05-.76.06-.92h0s-.03-.02-.03-.04c0-.02.02-.02.04-.02l-.02-.51-.29-.51-.26-.36-.31-.08h-.49l-.39.28-.39.42-.16.43s.03.02.02.03c0,.02-.02.03-.03.03h-.04s-.02.04-.02.04c0,0,0,0,0,0,0,0,.03,0,.03,0v.54l.12.48.12.39.13.62.02.68v1.3s-.06.34-.06.34l-.23.23-.36.09-.49-.14-.76-.15-.88-.23-.75-.18h-.46s-.31.29-.31.29l-.21.44-.29.75-.13.52-.04.37v.26s0,1.85,0,1.85l.95,1.65.26.77.04,2.6-.28.85-.11.78.11.78.53,1.28.6,1.42.61.89-.4,1.66-.17.96-.07.98.24.92.24.95.31.7v.39l-.12,1.03-.36,1.64-.46,2.19-.31,1.43.03,1.03v.85l-.18.24-.79.18-.58.21-.48.34-.35.29v.19h.03v-.17l.34-.28.48-.33.57-.21.79-.18s.01,0,.02-.01l.18-.24s0-.01,0-.02v-.85l-.03-1.02.31-1.43.46-2.19.37-1.64.12-1.04v-.39s0,0,0-.01l-.3-.69-.24-.95-.24-.92.07-.97.17-.96.4-1.66s0-.02,0-.03l-.6-.88-.61-1.42-.53-1.28-.11-.77.1-.77.29-.85s0,0,0-.01l-.04-2.6s0,0,0-.01l-.26-.77-.95-1.64v-2.11s.04-.37.04-.37l.13-.52.29-.75.21-.43.3-.27h.44s.74.17.74.17l.88.23.76.15.49.14s.01,0,.02,0l.36-.09s0,0,.01,0l.23-.23s0,0,0-.02l.08-.35-.02-.58v-.71l-.02-.68-.12-.62-.12-.38-.12-.47v-.53l.2-.53.38-.41.38-.27h.48l.3.07.26.34.29.5v.61s-.05.87-.05.87l-.17.49-.2.53-.15.62-.13.45-.11.64v.43s0,.02,0,.02l.28.29s.01,0,.02,0l.34.05s0,0,.01,0l.27-.08s.01,0,.02-.01l.17-.23s0,0,0,0l.13-.4.11-.38.26-.39.36-.3.49-.13s0,0,.01,0l.47-.36.4-.21s.01-.01.02-.02l.08-.29.07-.34.44-.88.32-.68.42-.59.26-.38s0,0,0-.01l.05-.33s0,0,0-.01l-.15-.86-.04-.5-.08-.5-.21-.94-.19-.93-.16-.65h0s-.15-.26-.15-.26c0,0,0,0-.01,0l-.17-.12s-.01,0-.02,0h-.73l-.5-.11-.24-.29-.03-.52v-.51l.09-.26h.25s.1.1.1.1l.02.56s0,.02.02.03l.18.1s.01,0,.02,0h.31s.52-.07.52-.07c0,0,0,0,.01,0l.22-.15s.01-.01.01-.03l.02-.45s0-.01,0-.02l-.19-.31-.34-.37-.26-.28-.07-.33.16-.47.24-.37h.24s-.27-.01-.27-.01l-.24.37-.17.49Z"/>
        <path class="cls-1" d="M190.72,6.49l.4.65.42.84.1.66-.07.41-.2.58-.13.67s0,.01,0,.02l.24.53.43.76.31.8.35,1.2.27.71v.56s-.29.65-.29.65l-.43.71-.16.35s.02-.03.04-.03h0s.14-.31.14-.31l.43-.71.3-.66v-.58s-.28-.71-.28-.71l-.34-1.2-.3-.8-.43-.76-.24-.53.06-.32.07-.35.2-.57.07-.42-.1-.67-.42-.84-.4-.66-.62-.62-.19-.08h-.08l.25.11.61.61Z"/>
        <path class="cls-1" d="M192.88,50.9l-.24-.46-.43-.52-.26-.15-.25-.25v-.59s-.03-.83-.03-.83l-.1-.99-.06-1.33-.23-1.37-.22-1.13-.23-.76-.15-.98.02-.78.04-.9.1-1.18-.08-2.21-.31-1.39-.3-.94-.34-.92-.53-1.03-.47-.94-.3-.4-.19-.96-.09-.94.02-.75.11-.86.43-1.32.24-.86.19-1.16.24-1.18.38-1.4.24-1,.08-.62.43-.62.47-.88.55-.89.35-.79s-.03-.01-.02-.03l-.35.8-.55.89-.47.88-.43.62s0,0,0,.01l-.08.62-.24,1-.38,1.4-.25,1.19-.19,1.15-.24.86-.44,1.33-.11.87-.02.75.08.94.19.96s0,0,0,.01l.3.39.47.94.53,1.02.33.91.31.94.3,1.38.08,2.2-.1,1.19-.04.9-.02.79.16.99.23.76.22,1.13.22,1.37.06,1.33.1.99.02.83v.59s.01.02.02.02l.25.25s0,0,0,0l.25.15.43.51.23.45v.24s-.16.12-.16.12h.11l.07-.06v-.31Z"/>
        <path class="cls-1" d="M190.33,50.9l-.03-.74.16-.29s0-.02,0-.03l-.11-.19-.07-.69-.07-.57-.04-.45-.03-.65-.06-.32s0,0,0-.01l-.2-.29-.43-.52-.43-.63-.27-.48-.09-.54.05-.81.16-.86.24-.6.03-.27s0-.03-.01-.03l-.34-.23-.48-.55-.27-.47-.28-.56-.31-1.47-.35-1.46-.24-.88-.23-.8s-.02-.02-.03-.02h-.2s-.03,0-.03.02l-.28.56-.15.4-.43,1.24-.09.7-.28,1.13-.34.96-.2.79v1.42s0,0,0,.01l.15.37.04.85-.22,1.32-.46.72-.44.57-.32.31s-.01.01-.01.02v.31l-.11.69-.11.75-.21.88-.14.53s0,.01,0,.02l.11.46-.08.46-.12.28h.04l.11-.27.08-.47-.11-.47.14-.53.2-.88.11-.75.11-.69v-.31l.32-.3.44-.58.46-.73.09-.53.13-.8-.05-.87-.16-.38v-1.42l.2-.78.34-.95.28-1.14.09-.71.22-.61.21-.61.16-.4.28-.55h.2l.24.8.24.88.35,1.46.31,1.48.28.56.27.47.49.56.34.23-.04.27-.23.59-.17.86-.05.81.09.56.27.49.43.63.43.52.2.29.07.32.03.64.04.45.07.58.07.7.11.2-.17.29v.36s.03.39.03.39l.13.2.15.16h.05l-.17-.18-.12-.19Z"/>
        <polygon class="cls-1" points="179.11 51.34 182.72 51.34 182.72 51.34 179.11 51.34 179.11 51.34"/>
        <polygon class="cls-1" points="189.86 5.7 189.86 5.7 189.86 5.7 189.86 5.7"/>
        <polygon class="cls-1" points="190.61 51.34 192.7 51.34 192.7 51.34 190.61 51.34 190.61 51.34"/>
        <path class="cls-1" d="M184.48,15.49l.16-.43.39-.42.39-.28h.49l.31.08.26.36.29.51.02.51s0,0,0,0h.03s-.01-.51-.01-.51c0,0,0-.01,0-.01l-.3-.51-.26-.36s0-.01-.02-.01l-.32-.08h-.49s-.01,0-.02,0l-.39.28-.39.42s0,0,0,.01l-.16.43h.03s0,0,0,.01Z"/>
        <path class="cls-1" d="M190.76,6.47l.4.66.42.84.1.67-.07.42-.2.57-.07.35-.06.32.24.53.43.76.3.8.34,1.2.28.71v.58s-.29.66-.29.66l-.43.71-.14.31h.03s.13-.3.13-.3l.44-.71.3-.66s0,0,0-.01v-.58s0,0,0-.01l-.28-.71-.34-1.2-.31-.81-.43-.76-.23-.52.13-.66.2-.58.07-.42s0,0,0,0l-.1-.67h0s-.42-.85-.42-.85l-.41-.66-.62-.62s0,0-.01,0l-.12-.05h-.08l.19.08.62.62Z"/>
        <path class="cls-1" d="M189.89,16.27c.05-.11.32-.67.32-.67l.42-.59.26-.38.05-.33-.14-.86-.04-.5-.08-.5-.21-.94-.2-.93-.15-.65-.15-.25-.17-.12h-.74l-.5-.12-.25-.3-.03-.54v-.52l.1-.29.33-.02-.02-.02s-.01-.01-.03-.01l-.29.02s-.03,0-.03.02l-.1.28s0,0,0,.01v.52l.04.54s0,.01,0,.02l.25.3s.01,0,.02.01l.51.12h.73l.15.11.15.24.15.64.19.93.21.94.07.49.04.5.14.85-.05.31-.25.37-.42.6-.32.67h.02s0,.01,0,.01Z"/>
        <path class="cls-1" d="M189.14,6.61s0,.01,0,.02l.07.35s0,.01,0,.02l.27.28.33.36.18.29-.02.43-.2.14-.51.07h-.3l-.16-.09-.02-.55s0-.01,0-.02l-.03-.03.02.62.19.1h.3l.52-.07.22-.15v-.45s-.17-.3-.17-.3l-.34-.37-.27-.28-.06-.35.17-.49.24-.37h-.04l-.23.36-.17.49Z"/>
        <path class="cls-1" d="M190.3,50.91l-.02-.39v-.36s.15-.29.15-.29l-.11-.2-.07-.7-.07-.58-.04-.45-.03-.64-.07-.32-.2-.29-.43-.52-.43-.63-.27-.49-.09-.56.05-.81.17-.86.23-.59.04-.27-.34-.23-.49-.56-.27-.47-.28-.56-.31-1.48-.35-1.46-.24-.88-.24-.8h-.2l-.28.55-.16.4-.21.61-.22.61-.09.71-.28,1.14-.34.95-.2.78v1.42l.16.38.05.87-.13.8-.09.53-.46.73-.44.58-.32.3v.31l-.11.69-.11.75-.2.88-.14.53.11.47-.08.47-.11.27h.04l.11-.26.08-.47s0,0,0-.01l-.11-.46.14-.52.21-.88.11-.75.11-.7v-.3l.31-.3.44-.58.47-.73s0,0,0-.01l.22-1.34-.04-.87s0,0,0-.01l-.15-.37v-1.4s.2-.78.2-.78l.34-.95.28-1.14.09-.7.43-1.23.15-.4.27-.53h.16l.23.78.23.88.35,1.46.32,1.48s0,0,0,0l.28.56.27.47.48.56s0,0,0,0l.32.22-.03.24-.24.6-.16.87-.06.82.09.56h0s.27.5.27.5l.44.63.43.52.2.28.07.31.03.65.04.45.07.57.07.7s0,0,0,.01l.1.18-.16.28s0,.01,0,.02l.03.76s0,.01,0,.02l.13.2.13.14h.05l-.15-.16-.13-.2Z"/>
        <path class="cls-1" d="M191.98,16.62l-.35.79-.55.89-.47.88-.43.62-.08.62-.24,1-.38,1.4-.24,1.18-.19,1.16-.24.86-.43,1.32-.11.86-.02.75.09.94.19.96.3.4.47.94.53,1.03.34.92.3.94.31,1.39.08,2.21-.1,1.18-.04.9-.02.78.15.98.23.76.22,1.13.23,1.37.06,1.33.1.99.02.83v.59s.27.25.27.25l.26.15.43.52.24.46v.31s0-.02,0-.02c0,0,.01-.01.01-.02v-.27s0-.01,0-.02l-.24-.47-.44-.52s0,0,0,0l-.26-.15-.24-.24-.03-1.41-.1-.99-.06-1.33-.22-1.37-.22-1.13-.23-.76-.16-.98.02-.78.04-.9.1-1.19-.08-2.21-.31-1.39-.3-.94-.34-.92-.53-1.03-.47-.95-.3-.39-.19-.95-.08-.93.02-.75.11-.86.43-1.32.24-.87.19-1.16.24-1.18.38-1.4.24-1,.08-.61.43-.62.47-.88.56-.89.35-.79h-.03s0,0,0-.01Z"/>
        <path class="cls-1" d="M179.46,50.79l.48-.34.58-.21.79-.18.18-.24v-.85l-.03-1.03.31-1.43.46-2.19.36-1.64.12-1.03v-.39l-.31-.7-.24-.95-.24-.92.07-.98.17-.96.4-1.66-.61-.89-.6-1.42-.53-1.28-.11-.78.11-.78.28-.85-.04-2.6-.26-.77-.95-1.65v-2.12s.04-.37.04-.37l.13-.52.29-.75.21-.44.31-.28h.46s.75.17.75.17l.88.23.76.15.49.14.36-.09.23-.23.08-.34v-.59s-.01-.71-.01-.71l-.02-.68-.13-.62-.12-.39-.12-.48v-.54s-.02,0-.03,0c0,0,0,0,0,.01v.54s0,0,0,0l.13.48.12.38.12.61.02.68v.71l.02.58-.08.33-.22.22-.34.09-.49-.14-.76-.15-.88-.23-.74-.19s0,0-.01,0l-.46.02s-.02,0-.02,0l-.31.28s0,0,0,.01l-.21.44-.29.76-.13.53-.03.38v.27s-.01,0-.01,0v1.85s0,.01,0,.02l.95,1.65.26.76.03,2.59-.28.86-.11.78h0s.11.79.11.79c0,0,0,0,0,0l.54,1.28.61,1.43.6.88-.4,1.65-.17.97-.07.98s0,0,0,.01l.24.92.24.96.3.69v.38l-.12,1.03-.37,1.64-.46,2.18-.3,1.43.03,1.03v.84l-.17.22-.78.18-.59.22-.49.34-.35.29s-.01.02-.01.03v.19h.04v-.19l.35-.29Z"/>
        <path class="cls-1" d="M189.41,17.16l-.07.34-.07.27-.39.21-.47.36-.49.13s0,0-.01,0l-.36.31s0,0,0,0l-.27.4s0,0,0,0l-.12.38-.13.4-.16.22-.26.07-.32-.04-.26-.28v-.41l.11-.63.12-.45.15-.61.2-.53.17-.49s0,0,0,0l.06-.88v-.03s-.03,0-.03,0c0,.17-.06.92-.06.92l-.17.49-.2.52-.16.62-.12.45-.11.63v.43l.28.29.34.05.28-.08.17-.23.13-.4.11-.38.27-.4.36-.31.5-.13.48-.36.4-.21.07-.29.08-.34.42-.84h-.03s-.42.83-.42.83Z"/>
        <path class="cls-1" d="M144.47,57s-.01.03-.03.03h56.97s-.03-.02-.03-.03h-56.9Z"/>
        <polygon class="cls-1" points="201.37 56.97 144.47 56.97 144.47 57 144.47 57 201.37 57 201.37 57 201.37 56.97"/>
        <path class="cls-1" d="M201.4.07h0v56.9h0s.03.01.03.03V.03s-.01.03-.03.03Z"/>
        <polygon class="cls-1" points="201.37 56.97 201.4 56.97 201.4 11.1 201.4 .07 201.37 .07 201.37 56.97"/>
        <path class="cls-1" d="M201.4,56.97v.03h-.03s.01.03.03.03.03-.01.03-.03-.01-.03-.03-.03h0Z"/>
        <polygon class="cls-1" points="201.37 57 201.37 57 201.4 57 201.4 56.97 201.37 56.97 201.37 57"/>
        <path class="cls-1" d="M144.47.03h0s18.73,0,18.73,0h38.17s.01-.03.03-.03.03.01.03.03c0-.02-.01-.03-.03-.03h-56.97s-.03.02-.03.03c0-.02.01-.03.03-.03s.03.01.03.03Z"/>
        <polygon class="cls-1" points="201.37 .07 201.37 .03 163.2 .03 144.47 .03 144.47 .07 201.37 .07"/>
        <path class="cls-1" d="M201.37.03h0s.03,0,.03,0v.03h0s.03-.01.03-.03-.01-.03-.03-.03-.03.01-.03.03Z"/>
        <rect class="cls-1" x="201.37" y=".03" width=".03" height=".03"/>
        <path class="cls-1" d="M144.44,56.97V.07h0s-.03-.01-.03-.03v56.97s.01-.03.03-.03h0Z"/>
        <rect class="cls-1" x="144.44" y=".07" width=".03" height="56.9"/>
        <path class="cls-1" d="M144.44,57v-.03h0s-.03.01-.03.03.01.03.03.03.03-.02.03-.03h-.03Z"/>
        <polygon class="cls-1" points="144.47 56.97 144.44 56.97 144.44 57 144.47 57 144.47 57 144.47 56.97"/>
        <path class="cls-1" d="M144.44.07v-.03h.03s-.01-.03-.03-.03-.03.01-.03.03.01.03.03.03h0Z"/>
        <rect class="cls-1" x="144.44" y=".03" width=".03" height=".03"/>
        <polygon class="cls-1" points="161.54 28.5 161.54 28.5 175.73 14.31 175.73 14.31 161.54 28.5"/>
        <path class="cls-1" d="M161.54,28.5s.02,0,.02.02v.02l14.18-14.18v-.05l-14.19,14.19Z"/>
        <path class="cls-1" d="M175.73,14.28s0,0,0,0c0,0,0,0,0,0,0,0,.01,0,.02-.01,0,0,0,0,0,0,0,0-.01,0-.02,0l-14.24,14.24s0,.01,0,.02c0-.01.01-.03.02-.03.01,0,.01.01.02.02l14.19-14.19v-.03Z"/>
        <path class="cls-1" d="M175.77,51.34s0,0,0,0c0,0,0,0-.01-.01,0,0,0,.01.01.01Z"/>
        <path class="cls-1" d="M175.77,14.33l-.03.03v36.94s.01-.03.03-.03V14.33Z"/>
        <path class="cls-1" d="M175.77,14.24s0,0,0,0c0,0,0,0,0,0,0,0,0,0,0,0,0,0,0,0,0,0Z"/>
        <polygon class="cls-1" points="175.8 14.31 175.78 14.31 175.77 14.32 175.77 51.27 175.8 51.27 175.8 14.31"/>
        <polygon class="cls-1" points="175.77 14.33 175.77 51.27 175.77 51.27 175.77 51.27 175.77 14.32 175.77 14.33"/>
        <polygon class="cls-1" points="175.73 14.31 175.73 14.31 175.75 14.29 175.75 14.29 175.73 14.31"/>
        <path class="cls-1" d="M175.77,14.31h0s0-.01-.01-.02l-.02.02v.05l.03-.03v-.02Z"/>
        <path class="cls-1" d="M175.73,14.28v.03l.02-.02s-.01-.01-.01-.02c0,0,0,0,0,0Z"/>
        <polygon class="cls-1" points="175.76 14.25 175.75 14.26 175.76 14.25 175.76 14.25"/>
        <polygon class="cls-1" points="175.77 14.32 175.78 14.31 175.77 14.31 175.77 14.32"/>
        <rect class="cls-1" x="175.76" y="14.32" width=".01" height="0" transform="translate(134.49 185.77) rotate(-81.12)"/>
        <rect class="cls-1" x="182.75" y="51.3" width="7.81" height="0"/>
        <polygon class="cls-1" points="179.07 51.3 175.8 51.3 175.8 51.3 175.8 51.3 179.07 51.3 179.07 51.3 179.07 51.3"/>
        <polygon class="cls-1" points="195.67 51.3 192.86 51.3 192.86 51.3 192.75 51.3 192.75 51.3 195.67 51.3 195.67 51.3 195.67 51.3"/>
        <polygon class="cls-1" points="192.79 51.27 192.75 51.3 192.86 51.3 192.86 51.27 192.79 51.27"/>
        <rect class="cls-1" x="179.14" y="51.27" width="3.56" height="0"/>
        <rect class="cls-1" x="190.62" y="51.27" width="2.06" height="0"/>
        <path class="cls-1" d="M192.75,51.3l-.03.03s-.01,0-.02,0h3.01s-.03-.01-.03-.03h-2.92Z"/>
        <path class="cls-1" d="M175.73,51.3h0s0,0,0,0c0,.01.01.01.02.02,0,0-.02,0-.02-.02h0Z"/>
        <path class="cls-1" d="M190.56,51.3h-7.81s-.01.03-.03.03h7.89s-.02,0-.02-.01l-.02-.02Z"/>
        <path class="cls-1" d="M175.8,51.3s-.01.03-.03.03c0,0,0,0,0,0h3.34s-.04-.01-.04-.03h-3.27Z"/>
        <polygon class="cls-1" points="175.73 51.3 175.73 51.3 175.73 51.3 175.73 51.3"/>
        <rect class="cls-1" x="192.86" y="51.3" width="2.81" height="0"/>
        <rect class="cls-1" x="182.75" y="51.3" width="7.81" height="0"/>
        <rect class="cls-1" x="175.8" y="51.3" width="3.27" height="0"/>
        <rect class="cls-1" x="192.86" y="51.27" width="2.81" height=".03"/>
        <polygon class="cls-1" points="182.75 51.3 190.56 51.3 190.53 51.27 182.77 51.27 182.75 51.3"/>
        <rect class="cls-1" x="175.8" y="51.27" width="3.27" height=".03"/>
        <polygon class="cls-1" points="190.61 51.3 190.61 51.3 190.56 51.3 190.56 51.3 192.75 51.3 192.75 51.3 190.61 51.3"/>
        <polygon class="cls-1" points="182.72 51.3 182.72 51.3 179.11 51.3 179.11 51.3 179.07 51.3 179.07 51.3 179.07 51.3 182.75 51.3 182.75 51.3 182.72 51.3"/>
        <polygon class="cls-1" points="192.68 51.27 192.68 51.27 190.62 51.27 190.62 51.27 190.58 51.27 190.61 51.3 192.75 51.3 192.79 51.27 192.68 51.27"/>
        <polygon class="cls-1" points="182.69 51.27 182.69 51.27 179.14 51.27 179.14 51.27 179.11 51.27 179.11 51.3 182.72 51.3 182.73 51.27 182.69 51.27"/>
        <path class="cls-1" d="M192.75,51.3h-2.19l.02.02s.01.01.02.01h2.09s.02,0,.02,0l.03-.03Z"/>
        <path class="cls-1" d="M182.75,51.3h-3.68s.02.03.04.03h3.61s.02,0,.03-.02h0Z"/>
        <rect class="cls-1" x="179.07" y="51.3" width=".04" height="0"/>
        <rect class="cls-1" x="190.56" y="51.3" width=".05" height="0"/>
        <rect class="cls-1" x="182.72" y="51.3" width=".04" height="0"/>
        <polygon class="cls-1" points="182.77 51.27 182.73 51.27 182.72 51.3 182.75 51.3 182.77 51.27"/>
        <polygon class="cls-1" points="190.53 51.27 190.56 51.3 190.61 51.3 190.58 51.27 190.53 51.27"/>
        <rect class="cls-1" x="179.07" y="51.27" width=".04" height=".03"/>
        <rect class="cls-1" x="175.77" y="51.3" width=".03" height="0"/>
        <path class="cls-1" d="M175.77,51.3h0s0,0,0,0h0s-.03,0-.03,0h0s.01.02.02.02c0,0,0,.01.01.01.02,0,.03-.01.03-.03h-.03Z"/>
        <path class="cls-1" d="M175.73,51.3h0s.03,0,.03,0v-.03s-.03.01-.03.03Z"/>
        <rect class="cls-1" x="175.77" y="51.3" width=".03" height="0"/>
        <rect class="cls-1" x="175.77" y="51.27" width=".03" height=".03"/>
        <rect class="cls-1" x="175.77" y="51.3" width="0" height="0"/>
        <rect class="cls-1" x="175.77" y="51.27" width="0" height=".03"/>
        <polygon class="cls-1" points="195.71 17.09 195.71 17.09 195.71 5.76 195.71 5.76 195.71 17.09"/>
        <polygon class="cls-1" points="195.7 17.16 195.7 51.27 195.71 51.27 195.71 51.27 195.71 25.86 195.71 17.16 195.71 17.16 195.7 17.16"/>
        <polygon class="cls-1" points="195.74 51.3 195.74 51.3 195.74 51.3 195.74 51.3"/>
        <path class="cls-1" d="M195.74,5.73h0s-.01-.03-.03-.03c0,0,0,0,0,0h0s.03.01.03.03Z"/>
        <path class="cls-1" d="M195.71,17.09h0s.03.02.03.04V5.73s-.01.03-.03.03v11.33Z"/>
        <path class="cls-1" d="M195.71,17.16v34.11s.03.01.03.03h0V17.13s-.01.03-.03.03Z"/>
        <polygon class="cls-1" points="195.74 5.73 195.74 5.73 195.74 5.73 195.74 5.73 195.74 5.73"/>
        <polygon class="cls-1" points="195.71 5.76 195.67 5.76 195.67 17.08 195.71 17.09 195.71 5.76 195.71 5.76"/>
        <polygon class="cls-1" points="195.67 17.15 195.67 51.27 195.7 51.27 195.7 17.16 195.7 17.16 195.67 17.15"/>
        <polygon class="cls-1" points="195.7 51.3 195.67 51.3 195.67 51.3 195.67 51.3 195.71 51.3 195.71 51.3 195.7 51.3 195.7 51.3"/>
        <rect class="cls-1" x="195.7" y="51.27" width="0" height=".03"/>
        <path class="cls-1" d="M195.71,51.3h0s-.03,0-.03,0c0,.02.01.03.03.03s.03-.01.03-.03c0,0,0,0,0,0h-.03Z"/>
        <path class="cls-1" d="M195.74,51.3s-.01-.03-.03-.03v.03h.03Z"/>
        <rect class="cls-1" x="195.67" y="51.3" width=".03" height="0"/>
        <rect class="cls-1" x="195.67" y="51.27" width=".03" height=".03"/>
        <polygon class="cls-1" points="189.86 5.76 189.86 5.76 189.86 5.76 189.86 5.76"/>
        <path class="cls-1" d="M150.1,5.73h0s.01-.03.03-.04c-.02,0-.03.01-.03.03,0,0,0,0,0,0Z"/>
        <path class="cls-1" d="M150.17,5.73h39.4s.01-.02.02-.02l.26-.02h-39.72s.03.01.03.03h0Z"/>
        <path class="cls-1" d="M189.95,5.73h5.73s.01-.03.03-.03h-5.84s0,0,.01,0l.07.03Z"/>
        <rect class="cls-1" x="169.87" y="-13.97" width="0" height="39.4" transform="translate(45.7 121.79) rotate(-45)"/>
        <polygon class="cls-1" points="195.67 5.73 195.67 5.73 189.95 5.73 189.95 5.73 195.67 5.73"/>
        <polygon class="cls-1" points="195.67 5.73 189.95 5.73 190.03 5.76 195.67 5.76 195.67 5.73"/>
        <polygon class="cls-1" points="189.54 5.76 189.57 5.73 163.83 5.73 150.17 5.73 150.17 5.76 189.54 5.76"/>
        <polygon class="cls-1" points="189.57 5.73 189.57 5.73 150.17 5.73 150.17 5.73 163.83 5.73 189.57 5.73"/>
        <rect class="cls-1" x="189.95" y="5.73" width="5.72" height="0"/>
        <polygon class="cls-1" points="189.86 5.76 189.86 5.76 189.86 5.76 189.94 5.76 189.86 5.73 189.6 5.73 189.58 5.76 189.86 5.76"/>
        <path class="cls-1" d="M189.57,5.73h0s.38,0,.38,0l-.07-.03s0,0-.01,0h0l-.26.02s-.02,0-.02.01Z"/>
        <polygon class="cls-1" points="189.61 5.73 189.6 5.73 189.86 5.73 189.86 5.73 189.95 5.73 189.95 5.73 189.57 5.73 189.57 5.73 189.61 5.73"/>
        <polygon class="cls-1" points="190.03 5.76 189.95 5.73 189.86 5.73 189.94 5.76 190.03 5.76"/>
        <polygon class="cls-1" points="189.54 5.76 189.58 5.76 189.6 5.73 189.57 5.73 189.54 5.76"/>
        <rect class="cls-1" x="189.59" y="5.71" width="0" height=".04" transform="translate(34.48 114.9) rotate(-36.87)"/>
        <rect class="cls-1" x="189.86" y="5.73" width=".08" height="0"/>
        <polygon class="cls-1" points="195.71 5.76 195.71 5.73 195.71 5.73 195.71 5.76 195.71 5.76"/>
        <path class="cls-1" d="M195.74,5.73s-.01-.03-.03-.03h0s-.03.01-.03.03h.06Z"/>
        <path class="cls-1" d="M195.71,5.73h0s0,0,0,0v.03s.03-.01.03-.03c0,0,0,0,0,0h-.06s0,0,0,0h.03Z"/>
        <polygon class="cls-1" points="195.67 5.76 195.71 5.76 195.71 5.76 195.71 5.73 195.67 5.73 195.67 5.76"/>
        <rect class="cls-1" x="195.67" y="5.73" width=".03" height="0"/>
        <path class="cls-1" d="M150.13,51.34s0,0,0,0c0,0,0,0-.02-.01,0,0,0,.02.01.02Z"/>
        <path class="cls-1" d="M150.13,5.76s-.03-.01-.03-.03v45.57s.01-.03.03-.03V5.76Z"/>
        <polygon class="cls-1" points="150.13 5.7 150.13 5.7 150.13 5.7 150.13 5.7 150.13 5.7"/>
        <polygon class="cls-1" points="150.17 51.27 150.17 5.76 150.13 5.76 150.13 51.27 150.13 51.27 150.17 51.27"/>
        <rect class="cls-1" x="150.17" y="5.76" width="0" height="45.5"/>
        <polygon class="cls-1" points="150.13 51.27 150.13 5.76 150.13 5.76 150.13 5.76 150.13 51.27 150.13 51.27"/>
        <path class="cls-1" d="M150.1,5.73s.02.03.03.03v-.03h.03s-.01-.03-.03-.03h0s0,0,0,0c-.02,0-.03.01-.03.03h0Z"/>
        <polygon class="cls-1" points="150.17 5.73 150.17 5.73 150.17 5.73 150.17 5.73"/>
        <rect class="cls-1" x="150.13" y="5.73" width=".03" height=".03"/>
        <rect class="cls-1" x="150.17" y="5.73" width="0" height=".03"/>
        <polygon class="cls-1" points="150.13 5.76 150.13 5.73 150.17 5.73 150.17 5.73 150.13 5.73 150.13 5.76 150.13 5.76 150.13 5.76"/>
        <rect class="cls-1" x="150.17" y="5.73" width="0" height="0"/>
        <polygon class="cls-1" points="150.17 51.3 150.17 51.3 161.49 51.3 161.49 51.3 150.17 51.3"/>
        <path class="cls-1" d="M150.1,51.3s0,0,0,0c0,.01.01.01.02.02,0,0-.02,0-.02-.02h0Z"/>
        <path class="cls-1" d="M150.17,51.3s-.01.03-.03.03c0,0,0,0,0,0h11.39s-.03-.01-.03-.03h-11.33Z"/>
        <rect class="cls-1" x="150.17" y="51.3" width="11.33" height="0"/>
        <rect class="cls-1" x="150.17" y="51.27" width="11.33" height=".03"/>
        <polygon class="cls-1" points="150.13 51.3 150.13 51.3 150.17 51.3 150.17 51.3 150.13 51.3"/>
        <path class="cls-1" d="M150.13,51.3h0s0,0,0,0v-.03s-.03.01-.03.03h0s.01.01.02.02c0,0,0,.01.02.01.02,0,.03-.01.03-.03h-.03Z"/>
        <polygon class="cls-1" points="150.17 51.3 150.17 51.3 150.17 51.27 150.13 51.27 150.13 51.27 150.13 51.3 150.17 51.3 150.17 51.3"/>
        <rect class="cls-1" x="150.17" y="51.27" width="0" height=".03"/>
        <polygon class="cls-1" points="150.13 51.27 150.13 51.3 150.13 51.3 150.13 51.27 150.13 51.27"/>
        <polygon class="cls-1" points="161.56 51.3 161.56 51.3 161.56 51.3 161.56 51.3"/>
        <path class="cls-1" d="M161.55,28.54s-.02,0-.02,0v22.72s.03.01.03.03h0v-22.77h0Z"/>
        <path class="cls-1" d="M161.5,28.54s0-.02,0-.03c0,0,0,0,0,0v22.75h.03s0,0,0,0v-22.72s0,0,0,0c0,0-.02,0-.02,0Z"/>
        <polygon class="cls-1" points="161.53 28.52 161.53 28.52 161.54 28.5 161.54 28.5 161.53 28.52"/>
        <path class="cls-1" d="M161.54,28.5l-.02.02v.03s.02,0,.02,0h0v-.02s-.01,0-.02-.02Z"/>
        <path class="cls-1" d="M161.53,28.52l.02-.02s0-.02-.02-.02c-.01,0-.02.01-.02.03,0,.01,0,.02,0,.03,0,0,.02,0,.02,0,0,0,0,0,0,0v-.03h0Z"/>
        <polygon class="cls-1" points="161.49 51.3 161.53 51.3 161.53 51.3 161.49 51.3 161.49 51.3"/>
        <path class="cls-1" d="M161.53,51.3h0s-.03,0-.03,0c0,.02.01.03.03.03.02,0,.03-.01.03-.03,0,0,0,0,0,0h-.03Z"/>
        <path class="cls-1" d="M161.56,51.3s-.01-.03-.03-.03v.03h.03Z"/>
        <rect class="cls-1" x="161.49" y="51.3" width=".03" height="0"/>
        <rect class="cls-1" x="161.49" y="51.27" width=".03" height=".03"/>
        <path class="cls-1" d="M184.19,30.04l-.22-.68-.15-.71-.33-1.43-.12-.61s0,0,0,0l-.29-.56-.2-.96s0,0,0-.01l-.1-.15s-.01-.01-.03-.01h-.16s-.03,0-.03.02l-.08.15s0,0,0,.02v1.82s-.01,1.01-.01,1.01v.8l-.1.91.04.64s0,0,0,.01l.16.34.16.51.22.54.17.44.06.45.06.23s0,.02.01.02l.1.06s.01,0,.02,0h.14s.03-.02.03-.03l.23-.58.16-.55.24-.59.12-.45s0-.01,0-.02l-.03-.13-.07-.51ZM184.15,31.14l-.25.58-.16.56-.24.57s-.14,0-.24-.05l-.06-.24-.06-.45-.17-.45-.22-.54-.16-.5-.16-.34-.04-.64.1-.91v-.81l.03-1.01v-1.55s-.01-.27-.01-.27l.08-.15h.16l.1.15.08.38.12.58.29.56.12.6.33,1.43.15.71.22.68s.07.5.11.64l-.12.45Z"/>
        <path class="cls-1" d="M183.94,29.37l-.15-.71-.33-1.43-.12-.6-.29-.56-.12-.58-.08-.38-.1-.15h-.16l-.08.15v1.82s-.02,1.01-.02,1.01v.81l-.1.91.04.64.16.34.16.5.22.54.17.45.06.45.06.24c.1.06.24.05.24.05l.24-.57.16-.56.25-.58.12-.45c-.04-.14-.11-.64-.11-.64l-.22-.68ZM184.23,30.68l-.12.44-.24.59-.16.55-.23.55h-.11s-.08-.04-.08-.04l-.06-.22-.06-.45-.17-.45-.22-.54-.16-.51-.16-.34-.04-.63.1-.91v-.8l.02-1.01v-1.55s-.01-.26-.01-.26l.07-.12h.12l.09.13.2.96s0,0,0,0l.29.56.12.6.33,1.43.15.71h0s.22.68.22.68l.07.5.03.13Z"/>
        <path class="cls-1" d="M175.8,14.28h0c.26.04,4.82.69,7.22,1.07l1.41.2v-.03s-8.63-1.23-8.63-1.23Z"/>
        <path class="cls-1" d="M175.79,14.25s0,.01,0,.02c0,0,0,0,0,0h0s8.64,1.24,8.64,1.24v-.03s-8.67-1.24-8.67-1.24c0,0,0,0,0,0,0,0,0,0,0,0,0,0,.01,0,.02,0Z"/>
        <path class="cls-1" d="M175.8,14.28v.03l7.22,1.03c-2.39-.38-6.96-1.03-7.22-1.06Z"/>
        <path class="cls-1" d="M184.44,15.51v.03s.03,0,.03,0h0s.03-.01.03-.03c0-.02,0-.03-.02-.03v.03s-.04,0-.04,0Z"/>
        <polygon class="cls-1" points="184.47 15.52 184.48 15.49 184.48 15.49 184.45 15.48 184.44 15.51 184.47 15.52"/>
        <path class="cls-1" d="M175.73,14.27s0,0,0,0c0,0,0-.01.02-.02,0,0-.02,0-.02.01Z"/>
        <path class="cls-1" d="M175.78,14.25s.01,0,.02.02c0,0,0-.01,0-.02,0,0-.01,0-.02,0Z"/>
        <polygon class="cls-1" points="175.79 14.28 175.79 14.28 175.8 14.28 175.8 14.28 175.79 14.28"/>
        <path class="cls-1" d="M175.8,14.28s0,0,0,0c0,0,0,0,0,.01h0s0,0,0,0Z"/>
        <path class="cls-1" d="M175.78,14.25s0,0,0,0c0,0,0,0,0,0,0,0,.01,0,.02,0Z"/>
        <path class="cls-1" d="M175.79,14.28s0,.01,0,.02h-.01s.02.01.02.01v-.03s0,0,0,0Z"/>
        <polygon class="cls-1" points="175.77 14.28 175.75 14.29 175.75 14.29 175.77 14.28 175.77 14.28"/>
        <path class="cls-1" d="M175.79,14.28h-.02s0,0,0,0h0s0,0,0,0h0s.02,0,.02,0h0Z"/>
        <polygon class="cls-1" points="175.77 14.28 175.77 14.28 175.77 14.28 175.77 14.28"/>
        <path class="cls-1" d="M175.75,14.29s0,.01.01.02h0s0-.03,0-.03l-.02.02Z"/>
        <path class="cls-1" d="M175.77,14.28h0s.02,0,.02,0c0,0,0,0,0-.01,0,0,0-.01-.02-.02,0,0-.01,0-.02,0,0,0,0,0,0,0,0,0-.01,0-.02.02,0,0,0,.01.01.02l.02-.02h0s0,0,0,0Z"/>
        <path class="cls-1" d="M175.79,14.28s-.02,0-.02,0v.03h.01s.01-.01.01-.01c0,0,0-.01,0-.02Z"/>
        <rect class="cls-1" x="175.77" y="14.28" width="0" height="0"/>
        <polygon class="cls-1" points="175.77 14.28 175.77 14.28 175.77 14.28 175.77 14.31 175.77 14.31 175.77 14.28"/>
        <polygon class="cls-1" points="175.77 14.28 175.77 14.28 175.77 14.28 175.77 14.28"/>
        <polygon class="cls-1" points="189.84 16.29 189.85 16.27 189.86 16.25 186.82 15.82 186.82 15.85 189.84 16.29"/>
        <polygon class="cls-1" points="186.82 15.89 189.83 16.32 189.84 16.29 186.82 15.85 186.82 15.89"/>
        <rect class="cls-1" x="186.81" y="16.07" width="3.05" height="0"/>
        <path class="cls-1" d="M189.88,16.29l-.02.03h.01s0,0,0,0c.02,0,.03-.01.03-.03,0-.01-.01-.02-.02-.03,0,.01-.01.02-.01.02h0Z"/>
        <path class="cls-1" d="M186.79,15.82s-.03,0-.04.02c0,.02.01.04.03.04h0s0-.03,0-.03v-.03Z"/>
        <path class="cls-1" d="M189.84,16.29h.03s0,0,.01-.02c0,0,0,0,0,0h-.02s0,.01,0,.01v.02Z"/>
        <polygon class="cls-1" points="186.79 15.82 186.79 15.85 186.79 15.85 186.82 15.85 186.82 15.82 186.8 15.82 186.79 15.82"/>
        <polygon class="cls-1" points="189.84 16.29 189.83 16.32 189.86 16.32 189.88 16.29 189.84 16.29"/>
        <path class="cls-1" d="M186.82,15.85h-.03s0,.02,0,.03h.03s0-.03,0-.03Z"/>
        <rect class="cls-1" x="189.84" y="16.29" width=".03" height="0"/>
        <polygon class="cls-1" points="186.82 15.85 186.82 15.85 186.79 15.85 186.79 15.85 186.79 15.85 186.82 15.85"/>
        <polygon class="cls-1" points="191.95 16.59 191.96 16.59 191.96 16.59 191.95 16.59"/>
        <polygon class="cls-1" points="192.02 16.6 195.67 17.12 195.67 17.08 192.04 16.57 192.02 16.6"/>
        <polygon class="cls-1" points="192.01 16.63 195.67 17.15 195.67 17.12 192.02 16.6 192.01 16.63"/>
        <rect class="cls-1" x="193.85" y="15.02" width="0" height="3.68" transform="translate(149.76 206.38) rotate(-81.88)"/>
        <path class="cls-1" d="M191.99,16.59h0s.01-.03.01-.03h0s-.04,0-.04.03h0s.01.02.02.03v-.03Z"/>
        <polygon class="cls-1" points="192.02 16.6 192.04 16.57 192 16.56 191.99 16.59 192.02 16.6"/>
        <path class="cls-1" d="M191.99,16.59h0s-.01.03-.01.03c0,0,0,0,0,0h.03s.01-.03.01-.03h-.03Z"/>
        <rect class="cls-1" x="192.01" y="16.58" width="0" height=".04" transform="translate(148.48 204.34) rotate(-81.89)"/>
        <polygon class="cls-1" points="195.71 17.09 195.71 17.12 195.7 17.12 195.7 17.16 195.71 17.16 195.71 17.16 195.71 17.09 195.71 17.09"/>
        <path class="cls-1" d="M195.71,17.09v.07s.03-.01.03-.03c0-.02,0-.04-.03-.04h0Z"/>
        <polygon class="cls-1" points="195.67 17.12 195.7 17.12 195.7 17.12 195.71 17.12 195.71 17.09 195.67 17.08 195.67 17.12"/>
        <polygon class="cls-1" points="195.67 17.15 195.7 17.16 195.7 17.16 195.7 17.12 195.67 17.12 195.67 17.15"/>
        <rect class="cls-1" x="195.67" y="17.12" width=".03" height="0"/>
      </g>
      <path class="cls-1" d="M28.15,57.21c4.15.09,6.85.14,8.08.14h6.26v-2.21c0-3.94.23-8.01.67-12.21h-2.49l-.4,4.58c-.22,2.46-.58,4.02-1.06,4.66-.48.64-1.26,1.03-2.34,1.17-1.89.19-5.87.28-11.96.28h-14.65l16.78-26.49,10.74-16.9c1.32-2.01,3.12-4.54,5.39-7.59V.19c-1.88.19-4.25.28-7.11.28L9.7.15l-4.18.04c.14,2.83.2,5.03.2,6.61s-.07,3.86-.2,6.77h2.19l.34-4.74c.13-2.01.38-3.21.74-3.61.36-.4,1.55-.7,3.57-.88,4.63-.37,8.96-.56,13-.56,2.38,0,5.2.09,8.46.28-1.75,2.94-4.69,7.68-8.83,14.21l-15.26,24.08c-3.3,5.24-6.15,9.46-8.55,12.64v2.37c3.44-.19,8.3-.28,14.58-.28,3.84,0,7.97.05,12.39.14"/>
      <path class="cls-1" d="M52.94,3.68c.31.24.55.58.72,1.02.17.44.33,1.81.47,4.12.14,2.3.22,5.26.22,8.88v22.05c0,5.76-.09,9.48-.25,11.17-.17,1.69-.5,2.76-1.01,3.21-.5.46-1.73.68-3.69.68h-1.05v2.53c4.36-.19,7.85-.28,10.47-.28s7.03.09,12.86.28l5.29.12c2.49,0,5.03-.13,7.61-.4l-.07-1.81c0-1.96.31-5.88.91-11.76h-2.22c-.58,3.53-1.16,6.48-1.72,8.84-1.24.54-2.41.88-3.51,1.04-1.71.27-3.82.4-6.34.4-3.76,0-7.27-.15-10.56-.44-.07-1.64-.1-4.22-.1-7.76l-.04-5.67v-9.86c2.02-.19,3.98-.28,5.86-.28,5.1,0,8.07.29,8.91.86.84.58,1.26,2.15,1.26,4.72v2.33h2.29c-.16-3.45-.24-6.45-.24-9,0-2.41.08-5.64.24-9.68h-2.29v2.61c0,2.3-.35,3.68-1.06,4.12-.71.44-3.73.66-9.08.66-1.71,0-3.67-.09-5.9-.28v-8.14l.07-6.17c.07-2.51.09-5.03.07-7.54,3.37-.32,6.59-.48,9.67-.48,3.86,0,7.12.59,9.77,1.77.25,1.96.37,4.41.37,7.35h2.29c.09-5.09.56-9.23,1.41-12.41-2.13-.21-4.24-.31-6.33-.28l-6.13.05-12.93.23c-1.03,0-2.55-.05-4.55-.14l-3.57-.14h-3.64v2.53l2.59.32c1.62.19,2.58.4,2.9.64"/>
      <path class="cls-1" d="M94.79,4.09c.26.32.47,1.49.62,3.49.27,3.45.4,7.57.4,12.33v11.65c0,10.36-.18,17.62-.54,21.77l-3.13,2.21v1.93c2.8-.32,5.12-.48,6.94-.48,1.08,0,3.65.09,7.71.28l4.14.12c8.24,0,14.92-2.96,20.02-8.87,5.11-5.91,7.66-13.39,7.66-22.44,0-4.47-.66-8.41-1.99-11.82-1.33-3.41-3.26-6.25-5.79-8.51-2.54-2.26-5.37-3.77-8.49-4.52-3.12-.75-6.16-1.1-9.13-1.04l-7.38.12-9.06.08c-1.28,0-3.77-.07-7.48-.2v2.53l2.69.48c1.59.27,2.52.56,2.78.88M102.15,13.25c0-3.27.14-6.19.41-8.76,3.23-.56,6.03-.84,8.38-.84,6.74,0,11.85,2.05,15.34,6.15,3.49,4.1,5.24,10.06,5.24,17.88,0,8.97-2.1,15.8-6.3,20.49-3.48,3.86-8.36,5.78-14.65,5.78-2.31,0-4.98-.27-8.01-.8-.27-4.23-.41-8.77-.41-13.62V13.25Z"/>
      <path class="cls-1" d="M11.93,102.77v-1.81h-1.38c-1.33,0-2.11-.34-2.35-1.03-.24-.69-.36-3.91-.36-9.66v-16.37c0-3.11.05-6.05.14-8.8,1.53-.71,2.94-1.06,4.23-1.06,2.28,0,3.99.75,5.14,2.25,1.15,1.5,1.73,3.59,1.73,6.26s-.54,4.95-1.62,6.55c-1.08,1.6-2.53,2.39-4.37,2.39-.79,0-1.76-.21-2.93-.63l.4,2.15c1.2.36,2.2.55,2.99.55,1.74,0,3.38-.58,4.92-1.75,1.54-1.17,2.72-2.71,3.56-4.63.84-1.92,1.26-3.92,1.26-6.01,0-2.87-.73-5.14-2.17-6.82-1.46-1.68-3.8-2.52-7.02-2.52-.63,0-1.54.04-2.75.12-1.84.11-3.5.17-5.01.17-2.55,0-4.66-.05-6.32-.14v1.81h1c1.32,0,2.15.28,2.48.83s.52,2.06.55,4.53l.06,5.93v15.31c-.08,4.64-.16,7.42-.22,8.33-.07.91-.22,1.51-.46,1.81-.24.3-.78.44-1.62.44H0v1.81c3.05-.13,5.17-.2,6.36-.2,1.36,0,3.21.07,5.57.2"/>
      <path class="cls-1" d="M38.54,61.89c-.84,0-2.21.05-4.13.14-1.65.1-2.91.14-3.79.14-1.3,0-3.19-.07-5.67-.2v1.81h1.08c1.36,0,2.16.35,2.41,1.06.24.71.37,4.02.37,9.95v13.79c0,6.82-.11,10.59-.32,11.31-.21.72-.89,1.07-2.03,1.07h-1.5v1.81c2.99-.13,5.06-.2,6.21-.2,1.45,0,3.28.07,5.49.2v-1.81h-1.56c-1.24,0-1.97-.37-2.19-1.1-.23-.74-.34-4.48-.34-11.22v-13.85c0-3.46.08-6.71.24-9.75,1.41-.75,2.81-1.12,4.21-1.12,2.01,0,3.54.69,4.61,2.08,1.06,1.39,1.59,3.31,1.59,5.78,0,2.75-.63,4.95-1.88,6.59-1.26,1.64-3,2.47-5.22,2.47-.37,0-.94-.05-1.72-.14l-.2.98c1.5,2.41,2.91,4.87,4.23,7.4l7.06,13.7c.84-.13,1.64-.2,2.4-.2.82,0,1.79.07,2.89.2v-1.81h-.52c-.24,0-.47-.09-.7-.26-.23-.17-.68-.87-1.36-2.09l-3.83-7.14c-1.93-3.57-3.54-6.71-4.85-9.4,2.56-.76,4.52-2.18,5.87-4.24s2.02-4.44,2.02-7.14c0-1.84-.31-3.41-.93-4.73-.62-1.32-1.52-2.33-2.71-3.02-1.19-.7-2.94-1.05-5.24-1.05"/>
      <path class="cls-1" d="M82.25,80.96c0-5.91-1.31-10.64-3.93-14.2-2.61-3.56-6.22-5.35-10.83-5.35s-8.46,1.92-11.28,5.76c-2.82,3.84-4.23,8.91-4.23,15.19,0,4.17.6,7.87,1.82,11.09,1.21,3.23,2.86,5.69,4.95,7.37,2.09,1.68,4.58,2.52,7.47,2.52,4.62,0,8.45-2.14,11.48-6.42,3.03-4.28,4.55-9.6,4.55-15.97M73.07,98.85c-1.54,1.36-3.35,2.03-5.41,2.03-2.22,0-4.2-.8-5.93-2.39-1.73-1.6-3.11-3.99-4.14-7.2-1.03-3.2-1.55-6.96-1.55-11.28,0-3.25.44-6.11,1.32-8.59.88-2.48,2.09-4.35,3.64-5.63,1.54-1.28,3.38-1.92,5.51-1.92,2.33,0,4.35.73,6.05,2.18,1.7,1.45,3.05,3.62,4.02,6.49.98,2.88,1.47,6.34,1.47,10.39s-.44,7.14-1.33,9.83c-.89,2.7-2.1,4.72-3.65,6.08"/>
      <path class="cls-1" d="M85.74,71.6c-1.37,3.22-2.06,6.89-2.06,11.02s.64,7.56,1.92,10.71c1.28,3.14,3.1,5.6,5.48,7.37,2.37,1.77,5.13,2.65,8.27,2.65,2.03,0,4.17-.3,6.39-.9,2.23-.6,4.22-1.4,5.99-2.39-.2-2.2-.3-4.18-.3-5.93,0-1.66.1-3.3.3-4.9l1.4-1.32v-1.43c-.92.19-2.01.29-3.29.29-1.48,0-3.74-.09-6.78-.29v1.81l2.35.29c1.25.15,1.95.28,2.08.39.14.1.24.34.29.69.05.36.08,1.71.08,4.06,0,1.82-.04,3.53-.12,5.14-2.51,1.36-4.85,2.04-7,2.04-4.14,0-7.4-2.1-9.8-6.31-2.04-3.55-3.05-7.93-3.05-13.13s1.13-9.76,3.39-13.04c2.07-3.02,5.06-4.53,8.97-4.53,2.21,0,4.17.45,5.89,1.36,1.72.91,2.77,1.67,3.17,2.28.21.33.32,1.42.32,3.3v1.89h1.26c.21-3.63.49-6.46.84-8.49l-1.7-.66c-2.07-.86-3.75-1.43-5.05-1.72-1.29-.29-2.7-.43-4.23-.43-3.75,0-6.85.89-9.29,2.68-2.45,1.79-4.36,4.29-5.73,7.51"/>
      <path class="cls-1" d="M118.68,64.47c.19.17.33.42.43.73.1.31.19,1.3.28,2.94.09,1.64.13,3.75.13,6.33v15.74c0,4.11-.05,6.77-.15,7.97-.1,1.21-.3,1.97-.6,2.29-.3.33-1.03.49-2.18.49h-.62v1.81c2.58-.13,4.65-.2,6.2-.2s4.16.07,7.62.2l3.13.09c1.48,0,2.98-.1,4.51-.29l-.04-1.29c0-1.4.18-4.2.54-8.4h-1.31c-.35,2.52-.69,4.63-1.02,6.31-.73.38-1.43.63-2.08.75-1.01.19-2.26.29-3.76.29-2.22,0-4.31-.1-6.25-.31-.04-1.17-.06-3.02-.06-5.54l-.02-4.05v-7.04c1.2-.13,2.35-.2,3.47-.2,3.02,0,4.78.21,5.27.62.5.41.75,1.53.75,3.37v1.66h1.36c-.09-2.47-.14-4.61-.14-6.42,0-1.72.05-4.02.14-6.91h-1.36v1.86c0,1.64-.21,2.62-.63,2.94-.42.31-2.21.47-5.38.47-1.01,0-2.17-.07-3.49-.2v-5.81l.04-4.41c.04-1.79.05-3.59.04-5.38,1.99-.23,3.9-.34,5.72-.34,2.29,0,4.22.42,5.79,1.26.14,1.39.22,3.14.22,5.25h1.36c.05-3.63.33-6.59.84-8.86-1.26-.15-2.51-.22-3.75-.2l-3.63.03-7.66.17c-.61,0-1.51-.03-2.69-.1l-2.11-.1h-2.15v1.81l1.53.23c.96.13,1.53.29,1.72.46"/>
      <path class="cls-1" d="M152.67,62.18c-1.26,0-5.49-.07-12.67-.2.16,2.58.24,4.56.24,5.93l-.04,3.41h1.25l.28-3.84c.11-1.49.33-2.35.66-2.57.33-.22,2.13-.33,5.41-.33h2.03c.09,2.7.14,5.66.14,8.89v16.37c0,3.54-.07,6.42-.2,8.66-.07.98-.23,1.63-.5,1.96-.26.34-.84.5-1.72.5h-1.68v1.81c2.31-.13,4.3-.2,5.95-.2s3.63.07,5.98.2v-1.81h-1.5c-1.3,0-2.06-.31-2.27-.93-.22-.62-.32-3.97-.32-10.05v-16.34c0-3.17.07-6.19.22-9.06h1.56c1.86,0,3.52.08,4.99.23.5.06.83.21.98.44.15.24.26,1.01.34,2.31l.2,3.75h1.26c.04-3,.18-6.12.44-9.35l-11.03.2Z"/>
      <path class="cls-1" d="M178.99,64.59h1.56c1.86,0,3.53.08,4.99.23.51.06.83.21.98.44.15.24.26,1.01.34,2.31l.2,3.76h1.26c.04-3,.19-6.12.44-9.35l-11.03.2c-1.27,0-5.49-.07-12.67-.2.16,2.58.24,4.56.24,5.93l-.04,3.41h1.26l.28-3.84c.11-1.49.33-2.35.66-2.57.33-.22,2.14-.33,5.42-.33h2.03c.09,2.7.14,5.66.14,8.89v16.37c0,3.54-.07,6.42-.2,8.66-.07.97-.23,1.63-.5,1.96-.27.33-.84.5-1.72.5h-1.67v1.81c2.31-.13,4.3-.2,5.94-.2s3.63.07,5.99.2v-1.81h-1.5c-1.3,0-2.06-.31-2.27-.93-.21-.62-.32-3.97-.32-10.05v-16.34c0-3.17.08-6.19.22-9.06"/>
      <path class="cls-1" d="M198.32,66.74c.04-1.32.18-2.14.42-2.47.24-.33.84-.49,1.78-.49h1.55v-1.81c-1.46.13-3.1.2-4.9.2-2.16,0-4.34-.07-6.56-.2v1.81h1.62c1.06,0,1.7.39,1.92,1.17.21.78.32,5,.32,12.64v9.72c0,7.38-.12,11.5-.37,12.36-.25.86-.99,1.29-2.23,1.29h-1.26v1.81c1.81-.13,3.84-.2,6.1-.2,1.93,0,3.72.07,5.36.2v-1.81h-1.33c-1.23,0-1.96-.38-2.18-1.13-.23-.75-.34-4.85-.34-12.28v-9.89c0-5.24.03-8.88.1-10.92"/>
    </g>
  </g>
</svg>