<?xml version="1.0" encoding="UTF-8" standalone="no"?>
<!-- Created with Inkscape (http://www.inkscape.org/) -->

<svg
   version="1.1"
   id="svg1"
   width="1122.52"
   height="308.09601"
   viewBox="0 0 1122.52 308.09601"
   sodipodi:docname="NEXT APPENNINO.ai"
   xmlns:inkscape="http://www.inkscape.org/namespaces/inkscape"
   xmlns:sodipodi="http://sodipodi.sourceforge.net/DTD/sodipodi-0.dtd"
   xmlns="http://www.w3.org/2000/svg"
   xmlns:svg="http://www.w3.org/2000/svg">
  <defs
     id="defs1">
    <clipPath
       clipPathUnits="userSpaceOnUse"
       id="clipPath2">
      <path
         d="M 0,231.072 H 841.89 V 0 H 0 Z"
         transform="translate(-113.12001,-161.2159)"
         id="path2" />
    </clipPath>
    <clipPath
       clipPathUnits="userSpaceOnUse"
       id="clipPath4">
      <path
         d="M 0,231.072 H 841.89 V 0 H 0 Z"
         transform="translate(-171.25281,-143.5345)"
         id="path4" />
    </clipPath>
    <clipPath
       clipPathUnits="userSpaceOnUse"
       id="clipPath6">
      <path
         d="M 0,231.072 H 841.89 V 0 H 0 Z"
         transform="translate(-291.76921,-148.28841)"
         id="path6" />
    </clipPath>
    <clipPath
       clipPathUnits="userSpaceOnUse"
       id="clipPath8">
      <path
         d="M 0,231.072 H 841.89 V 0 H 0 Z"
         transform="translate(-358.90911,-127.10391)"
         id="path8" />
    </clipPath>
    <clipPath
       clipPathUnits="userSpaceOnUse"
       id="clipPath10">
      <path
         d="M 0,231.072 H 841.89 V 0 H 0 Z"
         transform="translate(-413.62231,-127.10391)"
         id="path10" />
    </clipPath>
    <clipPath
       clipPathUnits="userSpaceOnUse"
       id="clipPath12">
      <path
         d="M 0,231.072 H 841.89 V 0 H 0 Z"
         transform="translate(-467.41831,-127.10391)"
         id="path12" />
    </clipPath>
    <clipPath
       clipPathUnits="userSpaceOnUse"
       id="clipPath14">
      <path
         d="M 0,231.072 H 841.89 V 0 H 0 Z"
         transform="translate(-528.55391,-143.5345)"
         id="path14" />
    </clipPath>
    <clipPath
       clipPathUnits="userSpaceOnUse"
       id="clipPath16">
      <path
         d="M 0,231.072 H 841.89 V 0 H 0 Z"
         transform="translate(-567.33721,-161.2159)"
         id="path16" />
    </clipPath>
    <clipPath
       clipPathUnits="userSpaceOnUse"
       id="clipPath18">
      <path
         d="M 0,231.072 H 841.89 V 0 H 0 Z"
         transform="translate(-614.21102,-161.2159)"
         id="path18" />
    </clipPath>
    <clipPath
       clipPathUnits="userSpaceOnUse"
       id="clipPath20">
      <path
         d="M 0,231.072 H 841.89 V 0 H 0 Z"
         id="path20" />
    </clipPath>
    <clipPath
       clipPathUnits="userSpaceOnUse"
       id="clipPath22">
      <path
         d="M 0,231.072 H 841.89 V 0 H 0 Z"
         transform="translate(-683.43662,-161.2159)"
         id="path22" />
    </clipPath>
    <clipPath
       clipPathUnits="userSpaceOnUse"
       id="clipPath24">
      <path
         d="M 0,231.072 H 841.89 V 0 H 0 Z"
         transform="translate(-733.14612,-126.9372)"
         id="path24" />
    </clipPath>
    <clipPath
       clipPathUnits="userSpaceOnUse"
       id="clipPath26">
      <path
         d="M 0,231.072 H 841.89 V 0 H 0 Z"
         transform="translate(-220.45591,-104.1177)"
         id="path26" />
    </clipPath>
    <clipPath
       clipPathUnits="userSpaceOnUse"
       id="clipPath28">
      <path
         d="M 0,231.072 H 841.89 V 0 H 0 Z"
         transform="translate(-201.1933,-152.75091)"
         id="path28" />
    </clipPath>
    <clipPath
       clipPathUnits="userSpaceOnUse"
       id="clipPath30">
      <path
         d="M 0,231.072 H 841.89 V 0 H 0 Z"
         transform="translate(-225.3454,-131.15421)"
         id="path30" />
    </clipPath>
    <clipPath
       clipPathUnits="userSpaceOnUse"
       id="clipPath32">
      <path
         d="M 0,231.072 H 841.89 V 0 H 0 Z"
         transform="translate(-208.24401,-157.0162)"
         id="path32" />
    </clipPath>
    <clipPath
       clipPathUnits="userSpaceOnUse"
       id="clipPath34">
      <path
         d="M 0,231.072 H 841.89 V 0 H 0 Z"
         transform="translate(-270.33511,-121.7358)"
         id="path34" />
    </clipPath>
    <clipPath
       clipPathUnits="userSpaceOnUse"
       id="clipPath36">
      <path
         d="M 0,231.072 H 841.89 V 0 H 0 Z"
         transform="translate(-246.18301,-143.3325)"
         id="path36" />
    </clipPath>
    <clipPath
       clipPathUnits="userSpaceOnUse"
       id="clipPath38">
      <path
         d="M 0,231.072 H 841.89 V 0 H 0 Z"
         transform="translate(-263.28441,-117.4705)"
         id="path38" />
    </clipPath>
    <clipPath
       clipPathUnits="userSpaceOnUse"
       id="clipPath40">
      <path
         d="M 0,231.072 H 841.89 V 0 H 0 Z"
         transform="translate(-251.4586,-173.0349)"
         id="path40" />
    </clipPath>
    <clipPath
       clipPathUnits="userSpaceOnUse"
       id="clipPath42">
      <path
         d="M 0,231.072 H 841.89 V 0 H 0 Z"
         transform="translate(-229.8622,-148.8828)"
         id="path42" />
    </clipPath>
    <clipPath
       clipPathUnits="userSpaceOnUse"
       id="clipPath44">
      <path
         d="M 0,231.072 H 841.89 V 0 H 0 Z"
         transform="translate(-264.27271,-174.612)"
         id="path44" />
    </clipPath>
    <clipPath
       clipPathUnits="userSpaceOnUse"
       id="clipPath46">
      <path
         d="M 0,231.072 H 841.89 V 0 H 0 Z"
         transform="translate(-240.48321,-126.51501)"
         id="path46" />
    </clipPath>
    <clipPath
       clipPathUnits="userSpaceOnUse"
       id="clipPath48">
      <path
         d="M 0,231.072 H 841.89 V 0 H 0 Z"
         transform="translate(-224.9137,-102.83961)"
         id="path48" />
    </clipPath>
    <clipPath
       clipPathUnits="userSpaceOnUse"
       id="clipPath50">
      <path
         d="M 0,231.072 H 841.89 V 0 H 0 Z"
         transform="translate(-94.9033,-80.7751)"
         id="path50" />
    </clipPath>
    <clipPath
       clipPathUnits="userSpaceOnUse"
       id="clipPath52">
      <path
         d="M 0,231.072 H 841.89 V 0 H 0 Z"
         transform="translate(-118.2612,-58.082701)"
         id="path52" />
    </clipPath>
    <clipPath
       clipPathUnits="userSpaceOnUse"
       id="clipPath54">
      <path
         d="M 0,231.072 H 841.89 V 0 H 0 Z"
         transform="translate(-137.37891,-74.333702)"
         id="path54" />
    </clipPath>
    <clipPath
       clipPathUnits="userSpaceOnUse"
       id="clipPath56">
      <path
         d="M 0,231.072 H 841.89 V 0 H 0 Z"
         transform="translate(-156.53121,-58.082701)"
         id="path56" />
    </clipPath>
    <clipPath
       clipPathUnits="userSpaceOnUse"
       id="clipPath58">
      <path
         d="M 0,231.072 H 841.89 V 0 H 0 Z"
         transform="translate(-177.7183,-58.082701)"
         id="path58" />
    </clipPath>
    <clipPath
       clipPathUnits="userSpaceOnUse"
       id="clipPath60">
      <path
         d="M 0,231.072 H 841.89 V 0 H 0 Z"
         transform="translate(-197.86911,-65.156904)"
         id="path60" />
    </clipPath>
    <clipPath
       clipPathUnits="userSpaceOnUse"
       id="clipPath62">
      <path
         d="M 0,231.072 H 841.89 V 0 H 0 Z"
         transform="translate(-220.49271,-58.082701)"
         id="path62" />
    </clipPath>
    <clipPath
       clipPathUnits="userSpaceOnUse"
       id="clipPath64">
      <path
         d="M 0,231.072 H 841.89 V 0 H 0 Z"
         transform="translate(-239.1436,-74.333702)"
         id="path64" />
    </clipPath>
    <clipPath
       clipPathUnits="userSpaceOnUse"
       id="clipPath66">
      <path
         d="M 0,231.072 H 841.89 V 0 H 0 Z"
         transform="translate(-269.40621,-58.082701)"
         id="path66" />
    </clipPath>
    <clipPath
       clipPathUnits="userSpaceOnUse"
       id="clipPath68">
      <path
         d="M 0,231.072 H 841.89 V 0 H 0 Z"
         id="path68" />
    </clipPath>
    <clipPath
       clipPathUnits="userSpaceOnUse"
       id="clipPath70">
      <path
         d="M 0,231.072 H 841.89 V 0 H 0 Z"
         transform="translate(-302.87211,-66.958704)"
         id="path70" />
    </clipPath>
    <clipPath
       clipPathUnits="userSpaceOnUse"
       id="clipPath72">
      <path
         d="M 0,231.072 H 841.89 V 0 H 0 Z"
         transform="translate(-314.78221,-74.333702)"
         id="path72" />
    </clipPath>
    <clipPath
       clipPathUnits="userSpaceOnUse"
       id="clipPath74">
      <path
         d="M 0,231.072 H 841.89 V 0 H 0 Z"
         transform="translate(-350.28421,-66.958704)"
         id="path74" />
    </clipPath>
    <clipPath
       clipPathUnits="userSpaceOnUse"
       id="clipPath76">
      <path
         d="M 0,231.072 H 841.89 V 0 H 0 Z"
         transform="translate(-362.66111,-74.333702)"
         id="path76" />
    </clipPath>
    <clipPath
       clipPathUnits="userSpaceOnUse"
       id="clipPath78">
      <path
         d="M 0,231.072 H 841.89 V 0 H 0 Z"
         transform="translate(-374.47271,-71.997699)"
         id="path78" />
    </clipPath>
    <clipPath
       clipPathUnits="userSpaceOnUse"
       id="clipPath80">
      <path
         d="M 0,231.072 H 841.89 V 0 H 0 Z"
         transform="translate(-389.82131,-58.082701)"
         id="path80" />
    </clipPath>
    <clipPath
       clipPathUnits="userSpaceOnUse"
       id="clipPath82">
      <path
         d="M 0,231.072 H 841.89 V 0 H 0 Z"
         transform="translate(-408.13821,-74.000702)"
         id="path82" />
    </clipPath>
    <clipPath
       clipPathUnits="userSpaceOnUse"
       id="clipPath84">
      <path
         d="M 0,231.072 H 841.89 V 0 H 0 Z"
         transform="translate(-425.65721,-66.958704)"
         id="path84" />
    </clipPath>
    <clipPath
       clipPathUnits="userSpaceOnUse"
       id="clipPath86">
      <path
         d="M 0,231.072 H 841.89 V 0 H 0 Z"
         transform="translate(-448.01071,-58.082701)"
         id="path86" />
    </clipPath>
    <clipPath
       clipPathUnits="userSpaceOnUse"
       id="clipPath88">
      <path
         d="M 0,231.072 H 841.89 V 0 H 0 Z"
         transform="translate(-466.32711,-74.000702)"
         id="path88" />
    </clipPath>
    <clipPath
       clipPathUnits="userSpaceOnUse"
       id="clipPath90">
      <path
         d="M 0,231.072 H 841.89 V 0 H 0 Z"
         transform="translate(-483.84571,-66.958704)"
         id="path90" />
    </clipPath>
    <clipPath
       clipPathUnits="userSpaceOnUse"
       id="clipPath92">
      <path
         d="M 0,231.072 H 841.89 V 0 H 0 Z"
         transform="translate(-503.49802,-66.958704)"
         id="path92" />
    </clipPath>
    <clipPath
       clipPathUnits="userSpaceOnUse"
       id="clipPath94">
      <path
         d="M 0,231.072 H 841.89 V 0 H 0 Z"
         transform="translate(-517.07521,-56.380599)"
         id="path94" />
    </clipPath>
    <clipPath
       clipPathUnits="userSpaceOnUse"
       id="clipPath96">
      <path
         d="M 0,231.072 H 841.89 V 0 H 0 Z"
         id="path96" />
    </clipPath>
    <clipPath
       clipPathUnits="userSpaceOnUse"
       id="clipPath98">
      <path
         d="M 0,231.072 H 841.89 V 0 H 0 Z"
         transform="translate(-535.99321,-56.380599)"
         id="path98" />
    </clipPath>
    <clipPath
       clipPathUnits="userSpaceOnUse"
       id="clipPath100">
      <path
         d="M 0,231.072 H 841.89 V 0 H 0 Z"
         transform="translate(-554.81152,-74.333702)"
         id="path100" />
    </clipPath>
    <clipPath
       clipPathUnits="userSpaceOnUse"
       id="clipPath102">
      <path
         d="M 0,231.072 H 841.89 V 0 H 0 Z"
         transform="translate(-584.44042,-58.082701)"
         id="path102" />
    </clipPath>
    <clipPath
       clipPathUnits="userSpaceOnUse"
       id="clipPath104">
      <path
         d="M 0,231.072 H 841.89 V 0 H 0 Z"
         transform="translate(-608.66212,-58.483104)"
         id="path104" />
    </clipPath>
    <clipPath
       clipPathUnits="userSpaceOnUse"
       id="clipPath106">
      <path
         d="M 0,231.072 H 841.89 V 0 H 0 Z"
         transform="translate(-631.75292,-58.182301)"
         id="path106" />
    </clipPath>
    <clipPath
       clipPathUnits="userSpaceOnUse"
       id="clipPath108">
      <path
         d="M 0,231.072 H 841.89 V 0 H 0 Z"
         transform="translate(-652.30571,-58.182301)"
         id="path108" />
    </clipPath>
    <clipPath
       clipPathUnits="userSpaceOnUse"
       id="clipPath110">
      <path
         d="M 0,231.072 H 841.89 V 0 H 0 Z"
         transform="translate(-671.79101,-66.892299)"
         id="path110" />
    </clipPath>
    <clipPath
       clipPathUnits="userSpaceOnUse"
       id="clipPath112">
      <path
         d="M 0,231.072 H 841.89 V 0 H 0 Z"
         id="path112" />
    </clipPath>
    <clipPath
       clipPathUnits="userSpaceOnUse"
       id="clipPath114">
      <path
         d="M 0,231.072 H 841.89 V 0 H 0 Z"
         transform="translate(-696.74801,-58.483104)"
         id="path114" />
    </clipPath>
    <clipPath
       clipPathUnits="userSpaceOnUse"
       id="clipPath116">
      <path
         d="M 0,231.072 H 841.89 V 0 H 0 Z"
         transform="translate(-719.83792,-58.182301)"
         id="path116" />
    </clipPath>
    <clipPath
       clipPathUnits="userSpaceOnUse"
       id="clipPath118">
      <path
         d="M 0,231.072 H 841.89 V 0 H 0 Z"
         transform="translate(-733.88382,-78.639302)"
         id="path118" />
    </clipPath>
    <clipPath
       clipPathUnits="userSpaceOnUse"
       id="clipPath120">
      <path
         d="M 0,231.072 H 841.89 V 0 H 0 Z"
         transform="translate(-749.20022,-58.249704)"
         id="path120" />
    </clipPath>
  </defs>
  <sodipodi:namedview
     id="namedview1"
     pagecolor="#ffffff"
     bordercolor="#000000"
     borderopacity="0.25"
     inkscape:showpageshadow="2"
     inkscape:pageopacity="0.0"
     inkscape:pagecheckerboard="0"
     inkscape:deskcolor="#d1d1d1">
    <inkscape:page
       x="0"
       y="0"
       inkscape:label="1"
       id="page1"
       width="1122.52"
       height="308.09601"
       margin="66.408401 112.68533 59.714668 125.0268"
       bleed="0" />
  </sodipodi:namedview>
  <g
     id="layer-MC0"
     inkscape:groupmode="layer"
     inkscape:label="Livello 1">
    <path
       id="path1"
       d="M 0,0 C 12.01,0 19.349,-7.34 19.349,-19.183 V -45.288 H 6.172 v 25.605 c 0,4.754 -2.252,7.422 -6.172,7.422 -3.92,0 -6.172,-2.668 -6.172,-7.422 V -45.288 H -19.35 v 26.105 C -19.35,-7.34 -12.01,0 0,0"
       style="fill:#28509f;fill-opacity:1;fill-rule:nonzero;stroke:none"
       transform="matrix(1.3333333,0,0,-1.3333333,150.82667,93.141467)"
       clip-path="url(#clipPath2)" />
    <path
       id="path3"
       d="m 0,0 c -1.001,4.504 -4.337,7.006 -9.258,7.006 -5.004,0 -8.757,-2.752 -10.175,-7.006 z m -32.027,-5.671 c 0,13.928 10.009,23.352 22.853,23.352 12.093,0 23.186,-8.257 21.351,-26.772 H -19.6 c 1.252,-5.254 5.505,-8.424 11.343,-8.424 4.671,0 8.674,2.002 11.927,6.088 l 8.507,-7.088 C 7.256,-25.021 0.251,-28.691 -8.507,-28.691 c -14.095,0 -23.52,9.508 -23.52,23.02"
       style="fill:#28509f;fill-opacity:1;fill-rule:nonzero;stroke:none"
       transform="matrix(1.3333333,0,0,-1.3333333,228.33707,116.71667)"
       clip-path="url(#clipPath4)" />
    <path
       id="path5"
       d="M 0,0 H -5.255 V 11.843 H 0 v 11.343 l 13.178,4.253 V 11.843 h 5.337 V 0 H 13.178 L 13.094,-32.36 H -0.084 Z"
       style="fill:#28509f;fill-opacity:1;fill-rule:nonzero;stroke:none"
       transform="matrix(1.3333333,0,0,-1.3333333,389.0256,110.37813)"
       clip-path="url(#clipPath6)" />
    <path
       id="path7"
       d="m 0,0 c 6.005,0 10.425,4.254 10.425,10.926 0,6.672 -4.42,10.925 -10.425,10.925 -6.088,0 -10.592,-4.253 -10.592,-10.925 C -10.592,4.254 -6.088,0 0,0 m -23.77,10.926 c 0,13.595 10.092,22.936 22.018,22.936 4.921,0 9.758,-1.668 12.761,-4.838 l 0.083,4.004 H 22.769 V -11.176 H 11.092 l -0.083,4.004 c -3.003,-3.17 -7.84,-4.838 -12.761,-4.838 -11.926,0 -22.018,9.341 -22.018,22.936"
       style="fill:#28509f;fill-opacity:1;fill-rule:nonzero;stroke:none"
       transform="matrix(1.3333333,0,0,-1.3333333,478.54547,138.62413)"
       clip-path="url(#clipPath8)" />
    <path
       id="path9"
       d="m 0,0 c 6.088,0 10.592,4.254 10.592,10.926 0,6.672 -4.504,10.925 -10.592,10.925 -6.005,0 -10.425,-4.253 -10.425,-10.925 C -10.425,4.254 -6.005,0 0,0 m -22.769,33.028 h 11.676 l 0.084,-4.004 c 3.002,3.17 7.84,4.838 12.76,4.838 11.927,0 22.019,-9.341 22.019,-22.936 0,-13.595 -10.092,-22.936 -22.019,-22.936 -4.337,0 -8.59,1.251 -11.593,3.753 0.167,-3.669 0.251,-7.673 0.251,-11.343 v -8.257 h -13.178 z"
       style="fill:#28509f;fill-opacity:1;fill-rule:nonzero;stroke:none"
       transform="matrix(1.3333333,0,0,-1.3333333,551.4964,138.62413)"
       clip-path="url(#clipPath10)" />
    <path
       id="path11"
       d="m 0,0 c 6.088,0 10.592,4.254 10.592,10.926 0,6.672 -4.504,10.925 -10.592,10.925 -6.005,0 -10.425,-4.253 -10.425,-10.925 C -10.425,4.254 -6.005,0 0,0 m -22.769,33.028 h 11.676 l 0.084,-4.004 c 3.002,3.17 7.84,4.838 12.76,4.838 11.927,0 22.019,-9.341 22.019,-22.936 0,-13.595 -10.092,-22.936 -22.019,-22.936 -4.337,0 -8.59,1.251 -11.593,3.753 0.167,-3.669 0.251,-7.673 0.251,-11.343 v -8.257 h -13.178 z"
       style="fill:#28509f;fill-opacity:1;fill-rule:nonzero;stroke:none"
       transform="matrix(1.3333333,0,0,-1.3333333,623.2244,138.62413)"
       clip-path="url(#clipPath12)" />
    <path
       id="path13"
       d="m 0,0 c -1.001,4.504 -4.337,7.006 -9.258,7.006 -5.004,0 -8.757,-2.752 -10.175,-7.006 z m -32.027,-5.671 c 0,13.928 10.008,23.352 22.852,23.352 12.094,0 23.187,-8.257 21.352,-26.772 H -19.6 c 1.251,-5.254 5.505,-8.424 11.343,-8.424 4.67,0 8.674,2.002 11.926,6.088 l 8.508,-7.088 C 7.256,-25.021 0.25,-28.691 -8.507,-28.691 c -14.095,0 -23.52,9.508 -23.52,23.02"
       style="fill:#28509f;fill-opacity:1;fill-rule:nonzero;stroke:none"
       transform="matrix(1.3333333,0,0,-1.3333333,704.73853,116.71667)"
       clip-path="url(#clipPath14)" />
    <path
       id="path15"
       d="M 0,0 C 12.01,0 19.349,-7.34 19.349,-19.183 V -45.288 H 6.172 v 25.605 c 0,4.754 -2.252,7.422 -6.172,7.422 -3.92,0 -6.172,-2.668 -6.172,-7.422 V -45.288 H -19.35 v 26.105 C -19.35,-7.34 -12.01,0 0,0"
       style="fill:#28509f;fill-opacity:1;fill-rule:nonzero;stroke:none"
       transform="matrix(1.3333333,0,0,-1.3333333,756.4496,93.141467)"
       clip-path="url(#clipPath16)" />
    <path
       id="path17"
       d="M 0,0 C 12.01,0 19.349,-7.34 19.349,-19.183 V -45.288 H 6.172 v 25.605 c 0,4.754 -2.252,7.422 -6.172,7.422 -3.92,0 -6.172,-2.668 -6.172,-7.422 V -45.288 H -19.35 v 26.105 C -19.35,-7.34 -12.01,0 0,0"
       style="fill:#28509f;fill-opacity:1;fill-rule:nonzero;stroke:none"
       transform="matrix(1.3333333,0,0,-1.3333333,818.948,93.141467)"
       clip-path="url(#clipPath18)" />
    <path
       id="path19"
       d="m 642.236,160.132 h 13.178 v -44.204 h -13.178 z m 0,20.267 h 13.178 v -13.511 h -13.178 z"
       style="fill:#28509f;fill-opacity:1;fill-rule:nonzero;stroke:none"
       transform="matrix(1.3333333,0,0,-1.3333333,0,308.096)"
       clip-path="url(#clipPath20)" />
    <path
       id="path21"
       d="M 0,0 C 12.01,0 19.349,-7.34 19.349,-19.183 V -45.288 H 6.172 v 25.605 c 0,4.754 -2.252,7.422 -6.172,7.422 -3.92,0 -6.172,-2.668 -6.172,-7.422 V -45.288 H -19.35 v 26.105 C -19.35,-7.34 -12.01,0 0,0"
       style="fill:#28509f;fill-opacity:1;fill-rule:nonzero;stroke:none"
       transform="matrix(1.3333333,0,0,-1.3333333,911.2488,93.141467)"
       clip-path="url(#clipPath22)" />
    <path
       id="path23"
       d="m 0,0 c 5.922,0 10.425,4.42 10.425,11.009 0,6.589 -4.503,11.009 -10.425,11.009 -5.921,0 -10.425,-4.42 -10.425,-11.009 C -10.425,4.42 -5.921,0 0,0 m -23.603,11.009 c 0,13.595 10.509,23.27 23.603,23.27 13.095,0 23.603,-9.675 23.603,-23.27 0,-13.595 -10.508,-23.27 -23.603,-23.27 -13.094,0 -23.603,9.675 -23.603,23.27"
       style="fill:#28509f;fill-opacity:1;fill-rule:nonzero;stroke:none"
       transform="matrix(1.3333333,0,0,-1.3333333,977.52813,138.8464)"
       clip-path="url(#clipPath24)" />
    <path
       id="path25"
       d="m 0,0 c 0.641,0.641 1.691,0.641 2.332,0 0.642,-0.641 0.642,-1.691 0,-2.332 L 2.273,-2.392 1.547,-3.117 c -0.919,-0.92 -2.832,-2.311 -1.405,-3.738 0.641,-0.642 1.691,-0.642 2.332,0 l 1.406,1.405 0.725,0.725 9.812,9.753 -6.089,5.67 C 5.017,13.781 5.111,19.121 8.274,22.343 8.256,22.325 8.238,22.307 8.22,22.289 2.312,16.381 -3.592,10.418 -9.465,4.546 c -0.641,-0.642 -0.641,-1.691 0,-2.333 0.565,-0.564 1.445,-0.632 2.086,-0.203 1.242,1.332 1.783,1.264 2.712,0.336 0.641,-0.641 0.641,-1.691 0,-2.333 -1.174,-1.173 -2.327,-2.342 -3.504,-3.52 -0.642,-0.641 -0.642,-1.691 0,-2.332 0.641,-0.641 1.691,-0.641 2.332,0 l 3.708,3.708 1.346,1.346 z"
       style="fill:#f48617;fill-opacity:1;fill-rule:evenodd;stroke:none"
       transform="matrix(1.3333333,0,0,-1.3333333,293.9412,169.2724)"
       clip-path="url(#clipPath26)" />
    <path
       id="path27"
       d="m 0,0 c 0.692,-0.692 0.692,-1.824 0,-2.515 -0.692,-0.692 -1.823,-0.692 -2.515,0 l -0.065,0.064 -0.782,0.782 c -0.991,0.992 -2.491,3.055 -4.03,1.516 -0.692,-0.692 -0.692,-1.824 0,-2.515 l 1.515,-1.516 0.782,-0.782 10.517,-10.581 6.114,6.566 c 3.325,3.571 9.083,3.47 12.557,0.058 -0.019,0.02 -0.038,0.039 -0.058,0.059 -6.371,6.371 -12.801,12.738 -19.134,19.07 -0.691,0.692 -1.823,0.692 -2.515,0 C 1.778,9.598 1.705,8.648 2.167,7.958 3.603,6.618 3.531,6.034 2.53,5.033 1.838,4.341 0.706,4.341 0.015,5.033 -1.251,6.298 -2.511,7.542 -3.781,8.812 -4.473,9.503 -5.605,9.503 -6.297,8.811 -6.988,8.12 -6.988,6.988 -6.297,6.296 l 3.999,-3.999 1.451,-1.45 z"
       style="fill:#8ddaf5;fill-opacity:1;fill-rule:evenodd;stroke:none"
       transform="matrix(1.3333333,0,0,-1.3333333,268.25773,104.42813)"
       clip-path="url(#clipPath28)" />
    <path
       id="path29"
       d="m 0,0 -22.186,-22.185 c -3.469,-3.47 -9.146,-3.47 -12.615,0 -3.47,3.469 -3.47,9.146 0,12.616 l 15.877,15.877 c 12.711,13.226 7.147,17.902 5.983,19.202 L -0.117,12.733 C 3.915,8.715 3.626,3.626 0,0"
       style="fill:#28509f;fill-opacity:1;fill-rule:evenodd;stroke:none"
       transform="matrix(1.3333333,0,0,-1.3333333,300.46053,133.22373)"
       clip-path="url(#clipPath30)" />
    <path
       id="path31"
       d="m 0,0 c 0,-4.795 -3.887,-8.682 -8.682,-8.682 -4.795,0 -8.682,3.887 -8.682,8.682 0,4.795 3.887,8.682 8.682,8.682 C -3.887,8.682 0,4.795 0,0"
       style="fill:#8ddaf5;fill-opacity:1;fill-rule:evenodd;stroke:none"
       transform="matrix(1.3333333,0,0,-1.3333333,277.65867,98.741067)"
       clip-path="url(#clipPath32)" />
    <path
       id="path33"
       d="m 0,0 c -0.692,0.692 -0.692,1.824 0,2.515 0.692,0.692 1.823,0.692 2.515,0 L 2.58,2.451 3.362,1.669 c 0.991,-0.992 2.491,-3.055 4.03,-1.516 0.692,0.692 0.692,1.824 0,2.515 L 5.877,4.184 5.095,4.966 -5.422,15.547 -11.536,8.981 c -3.325,-3.571 -9.083,-3.47 -12.557,-0.058 0.019,-0.02 0.038,-0.039 0.058,-0.059 6.371,-6.371 12.801,-12.738 19.134,-19.07 0.691,-0.692 1.823,-0.692 2.515,0 0.608,0.608 0.681,1.558 0.219,2.248 -1.436,1.34 -1.364,1.924 -0.363,2.925 0.692,0.692 1.824,0.692 2.515,0 1.266,-1.265 2.526,-2.509 3.796,-3.779 0.692,-0.691 1.824,-0.691 2.516,10e-4 0.691,0.691 0.691,1.823 0,2.515 l -3.999,3.999 -1.451,1.45 z"
       style="fill:#c85775;fill-opacity:1;fill-rule:evenodd;stroke:none"
       transform="matrix(1.3333333,0,0,-1.3333333,360.4468,145.7816)"
       clip-path="url(#clipPath34)" />
    <path
       id="path35"
       d="m 0,0 22.186,22.185 c 3.469,3.47 9.146,3.47 12.615,0 3.47,-3.469 3.47,-9.146 0,-12.616 L 18.924,-6.308 C 6.213,-19.534 11.777,-24.21 12.941,-25.51 L 0.117,-12.733 C -3.915,-8.715 -3.626,-3.626 0,0"
       style="fill:#bf1c2e;fill-opacity:1;fill-rule:evenodd;stroke:none"
       transform="matrix(1.3333333,0,0,-1.3333333,328.244,116.986)"
       clip-path="url(#clipPath36)" />
    <path
       id="path37"
       d="m 0,0 c 0,4.795 3.887,8.682 8.682,8.682 4.795,0 8.682,-3.887 8.682,-8.682 0,-4.795 -3.887,-8.682 -8.682,-8.682 C 3.887,-8.682 0,-4.795 0,0"
       style="fill:#c85775;fill-opacity:1;fill-rule:evenodd;stroke:none"
       transform="matrix(1.3333333,0,0,-1.3333333,351.04587,151.46867)"
       clip-path="url(#clipPath38)" />
    <path
       id="path39"
       d="m 0,0 c -0.691,-0.692 -1.823,-0.692 -2.515,0 -0.692,0.691 -0.692,1.823 0,2.515 l 0.064,0.065 0.783,0.782 c 0.991,0.991 3.054,2.491 1.515,4.03 -0.691,0.692 -1.823,0.692 -2.515,0 L -4.183,5.877 -4.966,5.095 -15.547,-5.422 -8.98,-11.536 c 3.57,-3.325 3.469,-9.083 0.057,-12.557 0.02,0.019 0.04,0.038 0.059,0.057 6.371,6.371 12.738,12.802 19.07,19.135 0.692,0.691 0.692,1.823 0,2.515 -0.608,0.608 -1.558,0.681 -2.248,0.219 -1.34,-1.437 -1.924,-1.364 -2.925,-0.363 -0.692,0.692 -0.692,1.824 0,2.515 1.266,1.266 2.509,2.526 3.779,3.796 0.692,0.692 0.692,1.824 0,2.515 C 8.12,6.988 6.988,6.988 6.297,6.297 L 2.298,2.298 0.847,0.847 Z"
       style="fill:#40b93c;fill-opacity:1;fill-rule:evenodd;stroke:none"
       transform="matrix(1.3333333,0,0,-1.3333333,335.27813,77.3828)"
       clip-path="url(#clipPath40)" />
    <path
       id="path41"
       d="m 0,0 -22.185,22.185 c -3.47,3.47 -3.47,9.147 0,12.616 3.469,3.47 9.146,3.47 12.616,0 L 6.308,18.924 C 19.534,6.213 24.21,11.777 25.51,12.941 L 12.733,0.117 C 8.715,-3.916 3.626,-3.626 0,0"
       style="fill:#1f6636;fill-opacity:1;fill-rule:evenodd;stroke:none"
       transform="matrix(1.3333333,0,0,-1.3333333,306.48293,109.5856)"
       clip-path="url(#clipPath42)" />
    <path
       id="path43"
       d="m 0,0 c 0,-4.923 -3.991,-8.914 -8.914,-8.914 -4.923,0 -8.913,3.991 -8.913,8.914 0,4.923 3.99,8.914 8.913,8.914 C -3.991,8.914 0,4.923 0,0"
       style="fill:#40b93c;fill-opacity:1;fill-rule:evenodd;stroke:none"
       transform="matrix(1.3333333,0,0,-1.3333333,352.3636,75.28)"
       clip-path="url(#clipPath44)" />
    <path
       id="path45"
       d="m 0,0 20.574,-20.574 c 3.217,-3.217 3.217,-8.482 0,-11.699 -3.218,-3.217 -8.482,-3.217 -11.7,0 l -14.723,14.724 c -12.266,11.787 -16.602,6.628 -17.807,5.548 l 11.849,11.893 C -8.082,3.631 -3.362,3.362 0,0"
       style="fill:#f04725;fill-opacity:1;fill-rule:evenodd;stroke:none"
       transform="matrix(1.3333333,0,0,-1.3333333,320.64427,139.40933)"
       clip-path="url(#clipPath46)" />
    <path
       id="path47"
       d="m 0,0 c 0,-4.539 -3.68,-8.219 -8.219,-8.219 -4.539,0 -8.219,3.68 -8.219,8.219 0,4.539 3.68,8.219 8.219,8.219 C -3.68,8.219 0,4.539 0,0"
       style="fill:#f48617;fill-opacity:1;fill-rule:evenodd;stroke:none"
       transform="matrix(1.3333333,0,0,-1.3333333,299.88493,170.97653)"
       clip-path="url(#clipPath48)" />
    <path
       id="path49"
       d="M 0,0 H 12.047 V -2.103 H 2.236 v -8.61 h 9.544 v -2.136 H 2.236 V -24.395 H 0 Z"
       style="fill:#050606;fill-opacity:1;fill-rule:nonzero;stroke:none"
       transform="matrix(1.3333333,0,0,-1.3333333,126.53773,200.39587)"
       clip-path="url(#clipPath50)" />
    <path
       id="path51"
       d="m 0,0 c 3.871,0 6.741,2.97 6.741,7.074 0,4.139 -2.87,7.142 -6.741,7.142 -3.871,0 -6.741,-3.003 -6.741,-7.142 C -6.741,2.97 -3.871,0 0,0 m -8.91,7.074 c 0,5.307 3.837,9.177 8.91,9.177 5.072,0 8.91,-3.87 8.91,-9.177 0,-5.239 -3.838,-9.143 -8.91,-9.143 -5.073,0 -8.91,3.904 -8.91,9.143"
       style="fill:#050606;fill-opacity:1;fill-rule:nonzero;stroke:none"
       transform="matrix(1.3333333,0,0,-1.3333333,157.6816,230.6524)"
       clip-path="url(#clipPath52)" />
    <path
       id="path53"
       d="M 0,0 C 4.171,0 6.641,-2.702 6.641,-7.308 V -17.953 H 4.505 v 10.578 c 0,3.471 -1.602,5.34 -4.505,5.34 -2.937,0 -4.505,-1.869 -4.505,-5.34 V -17.953 H -6.641 V -7.308 C -6.641,-2.702 -4.205,0 0,0"
       style="fill:#050606;fill-opacity:1;fill-rule:nonzero;stroke:none"
       transform="matrix(1.3333333,0,0,-1.3333333,183.17187,208.9844)"
       clip-path="url(#clipPath54)" />
    <path
       id="path55"
       d="m 0,0 c 3.571,0 6.574,2.469 6.574,7.074 0,4.639 -3.003,7.142 -6.574,7.142 -3.904,0 -6.774,-3.003 -6.774,-7.142 C -6.774,2.97 -3.904,0 0,0 m -8.943,7.074 c 0,5.373 3.871,9.177 8.709,9.177 2.903,0 5.406,-1.334 6.674,-3.437 -0.033,1.235 -0.066,2.469 -0.066,3.771 v 7.408 H 8.51 V -1.702 H 6.541 v 3.27 c -1.202,-2.202 -3.805,-3.604 -6.775,-3.604 -4.838,0 -8.709,3.805 -8.709,9.11"
       style="fill:#050606;fill-opacity:1;fill-rule:nonzero;stroke:none"
       transform="matrix(1.3333333,0,0,-1.3333333,208.70827,230.6524)"
       clip-path="url(#clipPath56)" />
    <path
       id="path57"
       d="m 0,0 c 3.871,0 6.741,2.97 6.741,7.074 0,4.139 -2.87,7.142 -6.741,7.142 -3.871,0 -6.741,-3.003 -6.741,-7.142 C -6.741,2.97 -3.871,0 0,0 m -8.91,7.074 c 0,5.307 3.837,9.177 8.91,9.177 5.072,0 8.91,-3.87 8.91,-9.177 0,-5.239 -3.838,-9.143 -8.91,-9.143 -5.073,0 -8.91,3.904 -8.91,9.143"
       style="fill:#050606;fill-opacity:1;fill-rule:nonzero;stroke:none"
       transform="matrix(1.3333333,0,0,-1.3333333,236.95773,230.6524)"
       clip-path="url(#clipPath58)" />
    <path
       id="path59"
       d="m 0,0 c 0,5.307 3.737,9.011 8.943,9.011 0.801,0 1.802,-0.101 2.837,-0.268 V 6.741 C 10.645,6.908 9.777,6.975 9.144,6.975 4.972,6.975 2.169,4.104 2.169,0 c 0,-4.104 2.803,-6.941 6.975,-6.941 0.633,0 1.501,0.067 2.636,0.234 V -8.71 C 10.745,-8.91 9.744,-9.01 8.943,-9.01 3.737,-9.01 0,-5.272 0,0"
       style="fill:#050606;fill-opacity:1;fill-rule:nonzero;stroke:none"
       transform="matrix(1.3333333,0,0,-1.3333333,263.82547,221.22013)"
       clip-path="url(#clipPath60)" />
    <path
       id="path61"
       d="m 0,0 c 3.871,0 6.741,2.97 6.741,7.074 0,4.139 -2.87,7.142 -6.741,7.142 -3.871,0 -6.741,-3.003 -6.741,-7.142 C -6.741,2.97 -3.871,0 0,0 m -8.91,7.074 c 0,5.307 3.837,9.177 8.91,9.177 5.072,0 8.91,-3.87 8.91,-9.177 0,-5.239 -3.838,-9.143 -8.91,-9.143 -5.073,0 -8.91,3.904 -8.91,9.143"
       style="fill:#050606;fill-opacity:1;fill-rule:nonzero;stroke:none"
       transform="matrix(1.3333333,0,0,-1.3333333,293.99027,230.6524)"
       clip-path="url(#clipPath62)" />
    <path
       id="path63"
       d="M 0,0 C 2.77,0 4.638,-1.368 5.473,-3.403 6.34,-1.368 8.209,0 11.012,0 c 3.871,0 6.107,-2.736 6.107,-7.141 v -10.812 h -2.136 v 10.712 c 0,3.237 -1.301,5.206 -4.071,5.206 -2.836,0 -4.371,-2.035 -4.371,-5.54 V -17.953 H 4.405 v 10.378 c 0,3.505 -1.535,5.54 -4.339,5.54 -2.769,0 -4.104,-1.969 -4.104,-5.206 V -17.953 H -6.174 V -7.141 C -6.174,-2.736 -3.938,0 0,0"
       style="fill:#050606;fill-opacity:1;fill-rule:nonzero;stroke:none"
       transform="matrix(1.3333333,0,0,-1.3333333,318.85813,208.9844)"
       clip-path="url(#clipPath64)" />
    <path
       id="path65"
       d="m 0,0 c 3.938,0 6.808,2.97 6.808,7.074 0,4.139 -2.87,7.142 -6.808,7.142 -3.537,0 -6.541,-2.503 -6.541,-7.142 C -6.541,2.469 -3.537,0 0,0 m -8.476,15.918 h 1.969 v -3.237 c 1.235,2.169 3.838,3.57 6.741,3.57 4.839,0 8.743,-3.804 8.743,-9.177 0,-5.305 -3.904,-9.11 -8.743,-9.11 -2.837,0 -5.373,1.302 -6.641,3.371 0.033,-1.235 0.067,-2.536 0.067,-3.772 v -5.839 h -2.136 z"
       style="fill:#050606;fill-opacity:1;fill-rule:nonzero;stroke:none"
       transform="matrix(1.3333333,0,0,-1.3333333,359.20827,230.6524)"
       clip-path="url(#clipPath66)" />
    <path
       id="path67"
       d="m 282.15,82.076 h 2.136 V 56.381 h -2.136 z"
       style="fill:#050606;fill-opacity:1;fill-rule:nonzero;stroke:none"
       transform="matrix(1.3333333,0,0,-1.3333333,0,308.096)"
       clip-path="url(#clipPath68)" />
    <path
       id="path69"
       d="M 0,0 C -0.667,3.738 -3.27,5.373 -6.14,5.373 -9.511,5.373 -11.947,3.07 -12.581,0 Z m -14.816,-1.835 c 0,5.106 3.67,9.144 8.709,9.144 4.338,0 8.176,-2.937 8.31,-9.078 h -14.951 v -0.099 c 0,-3.938 2.737,-7.041 6.875,-7.041 2.836,0 5.139,1.434 6.44,3.804 L 2.169,-6.14 c -1.335,-2.336 -3.971,-4.739 -8.075,-4.739 -5.34,0 -8.91,3.972 -8.91,9.044"
       style="fill:#050606;fill-opacity:1;fill-rule:nonzero;stroke:none"
       transform="matrix(1.3333333,0,0,-1.3333333,403.82947,218.81773)"
       clip-path="url(#clipPath70)" />
    <path
       id="path71"
       d="M 0,0 C 2.77,0 4.638,-1.368 5.473,-3.403 6.34,-1.368 8.209,0 11.012,0 c 3.871,0 6.107,-2.736 6.107,-7.141 v -10.812 h -2.136 v 10.712 c 0,3.237 -1.301,5.206 -4.071,5.206 -2.836,0 -4.371,-2.035 -4.371,-5.54 V -17.953 H 4.405 v 10.378 c 0,3.505 -1.535,5.54 -4.339,5.54 -2.769,0 -4.104,-1.969 -4.104,-5.206 V -17.953 H -6.174 V -7.141 C -6.174,-2.736 -3.938,0 0,0"
       style="fill:#050606;fill-opacity:1;fill-rule:nonzero;stroke:none"
       transform="matrix(1.3333333,0,0,-1.3333333,419.7096,208.9844)"
       clip-path="url(#clipPath72)" />
    <path
       id="path73"
       d="M 0,0 C -0.667,3.738 -3.27,5.373 -6.14,5.373 -9.511,5.373 -11.947,3.07 -12.581,0 Z m -14.816,-1.835 c 0,5.106 3.67,9.144 8.709,9.144 4.338,0 8.176,-2.937 8.31,-9.078 h -14.951 v -0.099 c 0,-3.938 2.737,-7.041 6.875,-7.041 2.836,0 5.139,1.434 6.44,3.804 L 2.169,-6.14 c -1.335,-2.336 -3.971,-4.739 -8.075,-4.739 -5.34,0 -8.91,3.972 -8.91,9.044"
       style="fill:#050606;fill-opacity:1;fill-rule:nonzero;stroke:none"
       transform="matrix(1.3333333,0,0,-1.3333333,467.0456,218.81773)"
       clip-path="url(#clipPath74)" />
    <path
       id="path75"
       d="M 0,0 C 4.171,0 6.641,-2.702 6.641,-7.308 V -17.953 H 4.505 v 10.578 c 0,3.471 -1.602,5.34 -4.505,5.34 -2.937,0 -4.505,-1.869 -4.505,-5.34 V -17.953 H -6.641 V -7.308 C -6.641,-2.702 -4.205,0 0,0"
       style="fill:#050606;fill-opacity:1;fill-rule:nonzero;stroke:none"
       transform="matrix(1.3333333,0,0,-1.3333333,483.54813,208.9844)"
       clip-path="url(#clipPath76)" />
    <path
       id="path77"
       d="M 0,0 H -2.169 V 2.003 H 0 V 6.975 L 2.136,7.876 V 2.003 H 4.438 V 0 H 2.136 V -15.617 H 0 Z"
       style="fill:#050606;fill-opacity:1;fill-rule:nonzero;stroke:none"
       transform="matrix(1.3333333,0,0,-1.3333333,499.29693,212.09907)"
       clip-path="url(#clipPath78)" />
    <path
       id="path79"
       d="m 0,0 c 3.571,0 6.574,2.469 6.574,7.074 0,4.639 -3.003,7.142 -6.574,7.142 -3.904,0 -6.774,-3.003 -6.774,-7.142 C -6.774,2.97 -3.904,0 0,0 m -8.943,7.074 c 0,5.373 3.871,9.177 8.709,9.177 2.97,0 5.573,-1.435 6.775,-3.637 v 3.304 H 8.51 V -1.702 H 6.541 v 3.27 c -1.202,-2.202 -3.805,-3.604 -6.775,-3.604 -4.838,0 -8.709,3.805 -8.709,9.11"
       style="fill:#050606;fill-opacity:1;fill-rule:nonzero;stroke:none"
       transform="matrix(1.3333333,0,0,-1.3333333,519.76173,230.6524)"
       clip-path="url(#clipPath80)" />
    <path
       id="path81"
       d="M 0,0 H 1.869 V -2.003 H 0.2 c -2.236,0 -3.137,-0.801 -3.137,-3.203 V -17.62 H -5.072 V -5.206 C -5.072,-1.669 -3.471,0 0,0"
       style="fill:#050606;fill-opacity:1;fill-rule:nonzero;stroke:none"
       transform="matrix(1.3333333,0,0,-1.3333333,544.18427,209.4284)"
       clip-path="url(#clipPath82)" />
    <path
       id="path83"
       d="m 0,0 c -0.668,3.738 -3.271,5.373 -6.141,5.373 -3.37,0 -5.806,-2.303 -6.44,-5.373 z m -14.817,-1.835 c 0,5.106 3.671,9.144 8.71,9.144 4.338,0 8.175,-2.937 8.309,-9.078 h -14.95 v -0.099 c 0,-3.938 2.736,-7.041 6.874,-7.041 2.837,0 5.14,1.434 6.441,3.804 L 2.169,-6.14 c -1.335,-2.336 -3.972,-4.739 -8.076,-4.739 -5.339,0 -8.91,3.972 -8.91,9.044"
       style="fill:#050606;fill-opacity:1;fill-rule:nonzero;stroke:none"
       transform="matrix(1.3333333,0,0,-1.3333333,567.54293,218.81773)"
       clip-path="url(#clipPath84)" />
    <path
       id="path85"
       d="m 0,0 c 3.57,0 6.574,2.469 6.574,7.074 0,4.639 -3.004,7.142 -6.574,7.142 -3.904,0 -6.774,-3.003 -6.774,-7.142 C -6.774,2.97 -3.904,0 0,0 m -8.943,7.074 c 0,5.373 3.871,9.177 8.71,9.177 2.969,0 5.572,-1.435 6.774,-3.637 v 3.304 H 8.51 V -1.702 H 6.541 v 3.27 c -1.202,-2.202 -3.805,-3.604 -6.774,-3.604 -4.839,0 -8.71,3.805 -8.71,9.11"
       style="fill:#050606;fill-opacity:1;fill-rule:nonzero;stroke:none"
       transform="matrix(1.3333333,0,0,-1.3333333,597.3476,230.6524)"
       clip-path="url(#clipPath86)" />
    <path
       id="path87"
       d="M 0,0 H 1.869 V -2.003 H 0.2 c -2.236,0 -3.137,-0.801 -3.137,-3.203 V -17.62 H -5.072 V -5.206 C -5.072,-1.669 -3.471,0 0,0"
       style="fill:#050606;fill-opacity:1;fill-rule:nonzero;stroke:none"
       transform="matrix(1.3333333,0,0,-1.3333333,621.76947,209.4284)"
       clip-path="url(#clipPath88)" />
    <path
       id="path89"
       d="M 0,0 C -0.667,3.738 -3.271,5.373 -6.14,5.373 -9.511,5.373 -11.946,3.07 -12.581,0 Z m -14.816,-1.835 c 0,5.106 3.67,9.144 8.71,9.144 4.337,0 8.175,-2.937 8.309,-9.078 h -14.95 v -0.099 c 0,-3.938 2.736,-7.041 6.874,-7.041 2.837,0 5.139,1.434 6.44,3.804 L 2.169,-6.14 c -1.335,-2.336 -3.971,-4.739 -8.075,-4.739 -5.34,0 -8.91,3.972 -8.91,9.044"
       style="fill:#050606;fill-opacity:1;fill-rule:nonzero;stroke:none"
       transform="matrix(1.3333333,0,0,-1.3333333,645.1276,218.81773)"
       clip-path="url(#clipPath90)" />
    <path
       id="path91"
       d="M 0,0 C -0.667,3.738 -3.271,5.373 -6.14,5.373 -9.511,5.373 -11.946,3.07 -12.581,0 Z m -14.816,-1.835 c 0,5.106 3.67,9.144 8.71,9.144 4.337,0 8.175,-2.937 8.309,-9.078 h -14.95 v -0.099 c 0,-3.938 2.736,-7.041 6.874,-7.041 2.837,0 5.139,1.434 6.44,3.804 L 2.169,-6.14 c -1.335,-2.336 -3.971,-4.739 -8.075,-4.739 -5.34,0 -8.91,3.972 -8.91,9.044"
       style="fill:#050606;fill-opacity:1;fill-rule:nonzero;stroke:none"
       transform="matrix(1.3333333,0,0,-1.3333333,671.33067,218.81773)"
       clip-path="url(#clipPath92)" />
    <path
       id="path93"
       d="M 0,0 V 1.936 C 1.335,1.802 2.569,1.735 3.304,1.735 c 2.635,0 3.937,0.902 3.937,2.77 0,1.335 -0.734,2.236 -2.602,3.404 L 3.437,8.677 c -2.436,1.501 -3.538,2.936 -3.538,4.839 0,2.602 2.07,4.271 5.473,4.271 0.701,0 1.702,-0.067 2.637,-0.167 v -1.803 c -1.001,0.101 -1.769,0.134 -2.303,0.134 -2.402,0 -3.704,-0.9 -3.704,-2.435 0,-1.168 0.801,-2.07 2.703,-3.238 l 1.269,-0.8 C 8.376,7.942 9.41,6.541 9.41,4.538 9.41,1.602 7.175,-0.2 3.37,-0.2 2.569,-0.2 1.301,-0.101 0,0"
       style="fill:#050606;fill-opacity:1;fill-rule:nonzero;stroke:none"
       transform="matrix(1.3333333,0,0,-1.3333333,689.4336,232.92187)"
       clip-path="url(#clipPath94)" />
    <path
       id="path95"
       d="m 529.921,74.001 h 2.136 v -17.62 h -2.136 z m 0,8.075 h 2.136 v -4.738 h -2.136 z"
       style="fill:#050606;fill-opacity:1;fill-rule:nonzero;stroke:none"
       transform="matrix(1.3333333,0,0,-1.3333333,0,308.096)"
       clip-path="url(#clipPath96)" />
    <path
       id="path97"
       d="M 0,0 V 1.936 C 1.335,1.802 2.569,1.735 3.304,1.735 c 2.635,0 3.937,0.902 3.937,2.77 0,1.335 -0.734,2.236 -2.602,3.404 L 3.437,8.677 c -2.436,1.501 -3.538,2.936 -3.538,4.839 0,2.602 2.07,4.271 5.473,4.271 0.701,0 1.702,-0.067 2.637,-0.167 v -1.803 c -1.001,0.101 -1.769,0.134 -2.303,0.134 -2.402,0 -3.704,-0.9 -3.704,-2.435 0,-1.168 0.801,-2.07 2.703,-3.238 l 1.269,-0.8 C 8.376,7.942 9.41,6.541 9.41,4.538 9.41,1.602 7.175,-0.2 3.37,-0.2 2.569,-0.2 1.301,-0.101 0,0"
       style="fill:#050606;fill-opacity:1;fill-rule:nonzero;stroke:none"
       transform="matrix(1.3333333,0,0,-1.3333333,714.6576,232.92187)"
       clip-path="url(#clipPath98)" />
    <path
       id="path99"
       d="M 0,0 C 2.771,0 4.639,-1.368 5.474,-3.403 6.341,-1.368 8.21,0 11.013,0 c 3.871,0 6.106,-2.736 6.106,-7.141 v -10.812 h -2.136 v 10.712 c 0,3.237 -1.3,5.206 -4.07,5.206 -2.837,0 -4.372,-2.035 -4.372,-5.54 V -17.953 H 4.405 v 10.378 c 0,3.505 -1.535,5.54 -4.338,5.54 -2.77,0 -4.104,-1.969 -4.104,-5.206 V -17.953 H -6.173 V -7.141 C -6.173,-2.736 -3.938,0 0,0"
       style="fill:#050606;fill-opacity:1;fill-rule:nonzero;stroke:none"
       transform="matrix(1.3333333,0,0,-1.3333333,739.74867,208.9844)"
       clip-path="url(#clipPath100)" />
    <path
       id="path101"
       d="m 0,0 c 3.57,0 6.574,2.469 6.574,7.074 0,4.639 -3.004,7.142 -6.574,7.142 -3.904,0 -6.774,-3.003 -6.774,-7.142 C -6.774,2.97 -3.904,0 0,0 m -8.943,7.074 c 0,5.373 3.871,9.177 8.71,9.177 2.969,0 5.572,-1.435 6.774,-3.637 v 3.304 H 8.51 V -1.702 H 6.541 v 3.27 c -1.202,-2.202 -3.805,-3.604 -6.774,-3.604 -4.839,0 -8.71,3.805 -8.71,9.11"
       style="fill:#050606;fill-opacity:1;fill-rule:nonzero;stroke:none"
       transform="matrix(1.3333333,0,0,-1.3333333,779.25387,230.6524)"
       clip-path="url(#clipPath102)" />
    <path
       id="path103"
       d="M 0,0 H 11.213 V -2.103 H -3.137 V -0.4 l 7.442,9.009 c 2.069,2.537 4.105,5.006 4.105,7.509 0,2.303 -1.636,4.272 -4.339,4.272 -2.503,0 -4.471,-1.502 -5.172,-4.672 l -2.036,0.6 c 0.868,4.072 3.671,6.207 7.241,6.207 4.039,0 6.608,-2.803 6.608,-6.273 0,-3.271 -2.369,-6.074 -4.905,-9.11 z"
       style="fill:#050606;fill-opacity:1;fill-rule:nonzero;stroke:none"
       transform="matrix(1.3333333,0,0,-1.3333333,811.54947,230.11853)"
       clip-path="url(#clipPath104)" />
    <path
       id="path105"
       d="m 0,0 c 3.838,0 5.974,3.704 5.974,10.412 0,6.674 -2.169,10.412 -5.974,10.412 -3.805,0 -6.007,-3.738 -6.007,-10.412 C -6.007,3.704 -3.838,0 0,0 m -8.276,10.412 c 0,7.976 3.037,12.548 8.276,12.548 5.239,0 8.276,-4.572 8.276,-12.548 C 8.276,2.403 5.239,-2.169 0,-2.169 c -5.272,0 -8.276,4.572 -8.276,12.581"
       style="fill:#050606;fill-opacity:1;fill-rule:nonzero;stroke:none"
       transform="matrix(1.3333333,0,0,-1.3333333,842.3372,230.5196)"
       clip-path="url(#clipPath106)" />
    <path
       id="path107"
       d="m 0,0 c 3.838,0 5.974,3.704 5.974,10.412 0,6.674 -2.169,10.412 -5.974,10.412 -3.805,0 -6.007,-3.738 -6.007,-10.412 C -6.007,3.704 -3.838,0 0,0 m -8.276,10.412 c 0,7.976 3.037,12.548 8.276,12.548 5.239,0 8.276,-4.572 8.276,-12.548 C 8.276,2.403 5.239,-2.169 0,-2.169 c -5.272,0 -8.276,4.572 -8.276,12.581"
       style="fill:#050606;fill-opacity:1;fill-rule:nonzero;stroke:none"
       transform="matrix(1.3333333,0,0,-1.3333333,869.74093,230.5196)"
       clip-path="url(#clipPath108)" />
    <path
       id="path109"
       d="m 0,0 c 3.504,0 5.974,2.703 5.974,6.107 0,3.404 -2.47,5.907 -5.907,5.907 -3.47,0 -5.873,-2.47 -5.873,-6.007 C -5.806,2.403 -3.403,0 0,0 M 8.243,6.207 C 8.243,3.471 7.042,1.234 5.54,-1.135 l -5.84,-9.377 h -2.703 c 2.103,3.104 4.171,6.174 6.073,9.278 -1.1,-0.501 -2.268,-0.702 -3.403,-0.702 -4.505,0 -7.775,3.271 -7.775,7.91 0,4.705 3.436,8.109 8.175,8.109 4.739,0 8.176,-3.338 8.176,-7.876"
       style="fill:#050606;fill-opacity:1;fill-rule:nonzero;stroke:none"
       transform="matrix(1.3333333,0,0,-1.3333333,895.72133,218.90627)"
       clip-path="url(#clipPath110)" />
    <path
       id="path111"
       d="m 683.234,68.427 h 8.109 v -2.035 h -8.109 z"
       style="fill:#050606;fill-opacity:1;fill-rule:nonzero;stroke:none"
       transform="matrix(1.3333333,0,0,-1.3333333,0,308.096)"
       clip-path="url(#clipPath112)" />
    <path
       id="path113"
       d="M 0,0 H 11.213 V -2.103 H -3.137 V -0.4 l 7.442,9.009 c 2.069,2.537 4.105,5.006 4.105,7.509 0,2.303 -1.636,4.272 -4.339,4.272 -2.503,0 -4.471,-1.502 -5.172,-4.672 l -2.036,0.6 c 0.868,4.072 3.671,6.207 7.241,6.207 4.039,0 6.608,-2.803 6.608,-6.273 0,-3.271 -2.369,-6.074 -4.905,-9.11 z"
       style="fill:#050606;fill-opacity:1;fill-rule:nonzero;stroke:none"
       transform="matrix(1.3333333,0,0,-1.3333333,928.99733,230.11853)"
       clip-path="url(#clipPath114)" />
    <path
       id="path115"
       d="m 0,0 c 3.838,0 5.974,3.704 5.974,10.412 0,6.674 -2.169,10.412 -5.974,10.412 -3.805,0 -6.007,-3.738 -6.007,-10.412 C -6.007,3.704 -3.838,0 0,0 m -8.276,10.412 c 0,7.976 3.037,12.548 8.276,12.548 5.239,0 8.276,-4.572 8.276,-12.548 C 8.276,2.403 5.239,-2.169 0,-2.169 c -5.272,0 -8.276,4.572 -8.276,12.581"
       style="fill:#050606;fill-opacity:1;fill-rule:nonzero;stroke:none"
       transform="matrix(1.3333333,0,0,-1.3333333,959.78387,230.5196)"
       clip-path="url(#clipPath116)" />
    <path
       id="path117"
       d="M 0,0 H -2.235 V 2.136 H 2.236 V -22.259 H 0 Z"
       style="fill:#050606;fill-opacity:1;fill-rule:nonzero;stroke:none"
       transform="matrix(1.3333333,0,0,-1.3333333,978.51173,203.2436)"
       clip-path="url(#clipPath118)" />
    <path
       id="path119"
       d="m 0,0 c 3.47,0 5.873,2.469 5.873,6.007 0,3.603 -2.403,6.007 -5.807,6.007 -3.504,0 -5.973,-2.703 -5.973,-6.108 C -5.907,2.503 -3.438,0 0,0 m -8.177,5.807 c 0,2.736 1.202,4.971 2.703,7.34 l 5.84,9.378 h 2.703 c -2.101,-3.103 -4.171,-6.173 -6.073,-9.277 1.102,0.5 2.27,0.7 3.404,0.7 4.505,0 7.776,-3.269 7.776,-7.908 0,-4.706 -3.438,-8.109 -8.176,-8.109 -4.739,0 -8.177,3.337 -8.177,7.876"
       style="fill:#050606;fill-opacity:1;fill-rule:nonzero;stroke:none"
       transform="matrix(1.3333333,0,0,-1.3333333,998.9336,230.42973)"
       clip-path="url(#clipPath120)" />
  </g>
</svg>
